G75*
%MOIN*%
%OFA0B0*%
%FSLAX25Y25*%
%IPPOS*%
%LPD*%
%AMOC8*
5,1,8,0,0,1.08239X$1,22.5*
%
%ADD10C,0.00400*%
%ADD11C,0.00300*%
%ADD12C,0.00500*%
D10*
X0038040Y0004200D02*
X0038040Y0008804D01*
X0039575Y0007269D01*
X0041109Y0008804D01*
X0041109Y0004200D01*
X0042644Y0004200D02*
X0042644Y0007269D01*
X0044178Y0008804D01*
X0045713Y0007269D01*
X0045713Y0004200D01*
X0045713Y0006502D02*
X0042644Y0006502D01*
X0047248Y0008804D02*
X0050317Y0008804D01*
X0048782Y0008804D02*
X0048782Y0004200D01*
X0051852Y0004200D02*
X0051852Y0008804D01*
X0054154Y0008804D01*
X0054921Y0008037D01*
X0054921Y0006502D01*
X0054154Y0005735D01*
X0051852Y0005735D01*
X0053386Y0005735D02*
X0054921Y0004200D01*
X0056456Y0004200D02*
X0057990Y0004200D01*
X0057223Y0004200D02*
X0057223Y0008804D01*
X0056456Y0008804D02*
X0057990Y0008804D01*
X0059525Y0008804D02*
X0062594Y0004200D01*
X0059525Y0004200D02*
X0062594Y0008804D01*
X0068733Y0008804D02*
X0068733Y0004200D01*
X0071035Y0004200D01*
X0071802Y0004967D01*
X0071802Y0005735D01*
X0071035Y0006502D01*
X0068733Y0006502D01*
X0071035Y0006502D02*
X0071802Y0007269D01*
X0071802Y0008037D01*
X0071035Y0008804D01*
X0068733Y0008804D01*
X0073337Y0008037D02*
X0073337Y0004967D01*
X0074104Y0004200D01*
X0075639Y0004200D01*
X0076406Y0004967D01*
X0076406Y0008037D01*
X0075639Y0008804D01*
X0074104Y0008804D01*
X0073337Y0008037D01*
X0077941Y0008804D02*
X0081010Y0008804D01*
X0082544Y0008804D02*
X0085614Y0008804D01*
X0084079Y0008804D02*
X0084079Y0004200D01*
X0087148Y0004967D02*
X0087916Y0004200D01*
X0089450Y0004200D01*
X0090218Y0004967D01*
X0090218Y0008037D01*
X0089450Y0008804D01*
X0087916Y0008804D01*
X0087148Y0008037D01*
X0087148Y0004967D01*
X0091752Y0004200D02*
X0091752Y0008804D01*
X0093287Y0007269D01*
X0094822Y0008804D01*
X0094822Y0004200D01*
X0079475Y0004200D02*
X0079475Y0008804D01*
X0041894Y0073377D02*
X0038825Y0073377D01*
X0040360Y0073377D02*
X0040360Y0077981D01*
X0038825Y0076446D01*
X0037290Y0077981D02*
X0037290Y0074144D01*
X0036523Y0073377D01*
X0034988Y0073377D01*
X0034221Y0074144D01*
X0034221Y0077981D01*
X0038040Y0120200D02*
X0038040Y0124804D01*
X0039575Y0123269D01*
X0041109Y0124804D01*
X0041109Y0120200D01*
X0042644Y0120200D02*
X0042644Y0123269D01*
X0044178Y0124804D01*
X0045713Y0123269D01*
X0045713Y0120200D01*
X0045713Y0122502D02*
X0042644Y0122502D01*
X0047248Y0124804D02*
X0050317Y0124804D01*
X0048782Y0124804D02*
X0048782Y0120200D01*
X0051852Y0120200D02*
X0051852Y0124804D01*
X0054154Y0124804D01*
X0054921Y0124037D01*
X0054921Y0122502D01*
X0054154Y0121735D01*
X0051852Y0121735D01*
X0053386Y0121735D02*
X0054921Y0120200D01*
X0056456Y0120200D02*
X0057990Y0120200D01*
X0057223Y0120200D02*
X0057223Y0124804D01*
X0056456Y0124804D02*
X0057990Y0124804D01*
X0059525Y0124804D02*
X0062594Y0120200D01*
X0059525Y0120200D02*
X0062594Y0124804D01*
X0068733Y0124804D02*
X0071802Y0124804D01*
X0070267Y0124804D02*
X0070267Y0120200D01*
X0073337Y0120967D02*
X0074104Y0120200D01*
X0075639Y0120200D01*
X0076406Y0120967D01*
X0076406Y0124037D01*
X0075639Y0124804D01*
X0074104Y0124804D01*
X0073337Y0124037D01*
X0073337Y0120967D01*
X0077941Y0120200D02*
X0077941Y0124804D01*
X0080243Y0124804D01*
X0081010Y0124037D01*
X0081010Y0122502D01*
X0080243Y0121735D01*
X0077941Y0121735D01*
D11*
X0017990Y0005619D02*
X0017990Y0003150D01*
X0017990Y0005002D02*
X0020459Y0005002D01*
X0020459Y0005619D02*
X0020459Y0003150D01*
X0021673Y0003150D02*
X0024142Y0005619D01*
X0024142Y0006236D01*
X0023525Y0006853D01*
X0022290Y0006853D01*
X0021673Y0006236D01*
X0020459Y0005619D02*
X0019224Y0006853D01*
X0017990Y0005619D01*
X0021673Y0003150D02*
X0024142Y0003150D01*
X0044168Y0082183D02*
X0044168Y0085085D01*
X0045619Y0085085D01*
X0046103Y0084601D01*
X0046103Y0083634D01*
X0045619Y0083150D01*
X0044168Y0083150D01*
X0043157Y0083634D02*
X0042673Y0084117D01*
X0041705Y0084117D01*
X0041222Y0084601D01*
X0041705Y0085085D01*
X0043157Y0085085D01*
X0043157Y0083634D02*
X0042673Y0083150D01*
X0041222Y0083150D01*
X0040210Y0083150D02*
X0038759Y0083150D01*
X0038275Y0083634D01*
X0038759Y0084117D01*
X0040210Y0084117D01*
X0040210Y0084601D02*
X0040210Y0083150D01*
X0040210Y0084601D02*
X0039726Y0085085D01*
X0038759Y0085085D01*
X0037264Y0085569D02*
X0037264Y0084601D01*
X0036780Y0084117D01*
X0035329Y0084117D01*
X0035329Y0083150D02*
X0035329Y0086052D01*
X0036780Y0086052D01*
X0037264Y0085569D01*
X0036296Y0084117D02*
X0037264Y0083150D01*
X0043186Y0088917D02*
X0043186Y0089885D01*
X0044153Y0090852D01*
X0045150Y0089401D02*
X0045150Y0088434D01*
X0045634Y0087950D01*
X0047085Y0087950D01*
X0048097Y0087950D02*
X0049064Y0088917D01*
X0049064Y0089885D01*
X0048097Y0090852D01*
X0047085Y0089885D02*
X0045634Y0089885D01*
X0045150Y0089401D01*
X0044153Y0087950D02*
X0043186Y0088917D01*
X0047115Y0086052D02*
X0047115Y0083150D01*
X0048566Y0083150D01*
X0049050Y0083634D01*
X0049050Y0084601D01*
X0048566Y0085085D01*
X0047115Y0085085D01*
X0050061Y0084601D02*
X0050061Y0083634D01*
X0050545Y0083150D01*
X0051512Y0083150D01*
X0051996Y0084117D02*
X0050061Y0084117D01*
X0050061Y0084601D02*
X0050545Y0085085D01*
X0051512Y0085085D01*
X0051996Y0084601D01*
X0051996Y0084117D01*
X0053008Y0084117D02*
X0053975Y0085085D01*
X0054459Y0085085D01*
X0055463Y0085085D02*
X0055463Y0083150D01*
X0055463Y0084117D02*
X0056431Y0085085D01*
X0056914Y0085085D01*
X0057919Y0085085D02*
X0057919Y0083634D01*
X0058402Y0083150D01*
X0059854Y0083150D01*
X0059854Y0082666D02*
X0059370Y0082183D01*
X0058886Y0082183D01*
X0059854Y0082666D02*
X0059854Y0085085D01*
X0060865Y0085085D02*
X0060865Y0085569D01*
X0061349Y0086052D01*
X0062316Y0086052D01*
X0062800Y0085569D01*
X0062316Y0084601D02*
X0061349Y0084601D01*
X0060865Y0085085D01*
X0060865Y0083634D02*
X0061349Y0083150D01*
X0062316Y0083150D01*
X0062800Y0083634D01*
X0062800Y0084117D01*
X0062316Y0084601D01*
X0063812Y0086052D02*
X0065747Y0086052D01*
X0064779Y0086052D02*
X0064779Y0083150D01*
X0066758Y0083150D02*
X0068693Y0083150D01*
X0069705Y0083150D02*
X0069705Y0086052D01*
X0070672Y0085085D01*
X0071640Y0086052D01*
X0071640Y0083150D01*
X0068693Y0086052D02*
X0066758Y0086052D01*
X0066758Y0083150D01*
X0066758Y0084601D02*
X0067726Y0084601D01*
X0063782Y0088434D02*
X0063298Y0087950D01*
X0062331Y0087950D01*
X0061847Y0088434D01*
X0061847Y0089401D02*
X0062815Y0089885D01*
X0063298Y0089885D01*
X0063782Y0089401D01*
X0063782Y0088434D01*
X0061847Y0089401D02*
X0061847Y0090852D01*
X0063782Y0090852D01*
X0060836Y0087950D02*
X0058901Y0087950D01*
X0059868Y0087950D02*
X0059868Y0090852D01*
X0058901Y0089885D01*
X0057889Y0090369D02*
X0057889Y0088434D01*
X0057405Y0087950D01*
X0056438Y0087950D01*
X0055954Y0088434D01*
X0057889Y0090369D01*
X0057405Y0090852D01*
X0056438Y0090852D01*
X0055954Y0090369D01*
X0055954Y0088434D01*
X0054943Y0087950D02*
X0053008Y0087950D01*
X0054943Y0089885D01*
X0054943Y0090369D01*
X0054459Y0090852D01*
X0053491Y0090852D01*
X0053008Y0090369D01*
X0053260Y0094150D02*
X0052776Y0094634D01*
X0054711Y0096569D01*
X0054711Y0094634D01*
X0054227Y0094150D01*
X0053260Y0094150D01*
X0052776Y0094634D02*
X0052776Y0096569D01*
X0053260Y0097052D01*
X0054227Y0097052D01*
X0054711Y0096569D01*
X0055722Y0096085D02*
X0056690Y0097052D01*
X0056690Y0094150D01*
X0057657Y0094150D02*
X0055722Y0094150D01*
X0058669Y0094150D02*
X0060120Y0094150D01*
X0060604Y0094634D01*
X0060604Y0095601D01*
X0060120Y0096085D01*
X0058669Y0096085D01*
X0058669Y0097052D02*
X0058669Y0094150D01*
X0051764Y0095601D02*
X0049829Y0095601D01*
X0048818Y0096085D02*
X0047850Y0094150D01*
X0046883Y0096085D01*
X0045871Y0095601D02*
X0045871Y0095117D01*
X0043936Y0095117D01*
X0043936Y0094634D02*
X0043936Y0095601D01*
X0044420Y0096085D01*
X0045388Y0096085D01*
X0045871Y0095601D01*
X0045388Y0094150D02*
X0044420Y0094150D01*
X0043936Y0094634D01*
X0042925Y0094150D02*
X0041957Y0095117D01*
X0042441Y0095117D02*
X0040990Y0095117D01*
X0040990Y0094150D02*
X0040990Y0097052D01*
X0042441Y0097052D01*
X0042925Y0096569D01*
X0042925Y0095601D01*
X0042441Y0095117D01*
X0053008Y0085085D02*
X0053008Y0083150D01*
X0024142Y0122150D02*
X0021673Y0122150D01*
X0020459Y0122150D02*
X0020459Y0124619D01*
X0019224Y0125853D01*
X0017990Y0124619D01*
X0017990Y0122150D01*
X0017990Y0124002D02*
X0020459Y0124002D01*
X0021673Y0124619D02*
X0022907Y0125853D01*
X0022907Y0122150D01*
X0105624Y0122150D02*
X0107475Y0122150D01*
X0108092Y0122767D01*
X0108092Y0123384D01*
X0107475Y0124002D01*
X0105624Y0124002D01*
X0105624Y0125853D02*
X0107475Y0125853D01*
X0108092Y0125236D01*
X0108092Y0124619D01*
X0107475Y0124002D01*
X0109307Y0124619D02*
X0110541Y0125853D01*
X0110541Y0122150D01*
X0109307Y0122150D02*
X0111776Y0122150D01*
X0105624Y0122150D02*
X0105624Y0125853D01*
X0105624Y0006853D02*
X0107475Y0006853D01*
X0108092Y0006236D01*
X0108092Y0005619D01*
X0107475Y0005002D01*
X0105624Y0005002D01*
X0105624Y0006853D02*
X0105624Y0003150D01*
X0107475Y0003150D01*
X0108092Y0003767D01*
X0108092Y0004384D01*
X0107475Y0005002D01*
X0109307Y0006236D02*
X0109924Y0006853D01*
X0111158Y0006853D01*
X0111776Y0006236D01*
X0111776Y0005619D01*
X0109307Y0003150D01*
X0111776Y0003150D01*
D12*
X0069301Y0041898D02*
X0041741Y0041898D01*
X0041741Y0069457D01*
X0069301Y0069457D01*
X0069301Y0041898D01*
X0066348Y0067488D02*
X0066350Y0067550D01*
X0066356Y0067613D01*
X0066366Y0067674D01*
X0066380Y0067735D01*
X0066397Y0067795D01*
X0066418Y0067854D01*
X0066444Y0067911D01*
X0066472Y0067966D01*
X0066504Y0068020D01*
X0066540Y0068071D01*
X0066578Y0068121D01*
X0066620Y0068167D01*
X0066664Y0068211D01*
X0066712Y0068252D01*
X0066761Y0068290D01*
X0066813Y0068324D01*
X0066867Y0068355D01*
X0066923Y0068383D01*
X0066981Y0068407D01*
X0067040Y0068428D01*
X0067100Y0068444D01*
X0067161Y0068457D01*
X0067223Y0068466D01*
X0067285Y0068471D01*
X0067348Y0068472D01*
X0067410Y0068469D01*
X0067472Y0068462D01*
X0067534Y0068451D01*
X0067594Y0068436D01*
X0067654Y0068418D01*
X0067712Y0068396D01*
X0067769Y0068370D01*
X0067824Y0068340D01*
X0067877Y0068307D01*
X0067928Y0068271D01*
X0067976Y0068232D01*
X0068022Y0068189D01*
X0068065Y0068144D01*
X0068105Y0068096D01*
X0068142Y0068046D01*
X0068176Y0067993D01*
X0068207Y0067939D01*
X0068233Y0067883D01*
X0068257Y0067825D01*
X0068276Y0067765D01*
X0068292Y0067705D01*
X0068304Y0067643D01*
X0068312Y0067582D01*
X0068316Y0067519D01*
X0068316Y0067457D01*
X0068312Y0067394D01*
X0068304Y0067333D01*
X0068292Y0067271D01*
X0068276Y0067211D01*
X0068257Y0067151D01*
X0068233Y0067093D01*
X0068207Y0067037D01*
X0068176Y0066983D01*
X0068142Y0066930D01*
X0068105Y0066880D01*
X0068065Y0066832D01*
X0068022Y0066787D01*
X0067976Y0066744D01*
X0067928Y0066705D01*
X0067877Y0066669D01*
X0067824Y0066636D01*
X0067769Y0066606D01*
X0067712Y0066580D01*
X0067654Y0066558D01*
X0067594Y0066540D01*
X0067534Y0066525D01*
X0067472Y0066514D01*
X0067410Y0066507D01*
X0067348Y0066504D01*
X0067285Y0066505D01*
X0067223Y0066510D01*
X0067161Y0066519D01*
X0067100Y0066532D01*
X0067040Y0066548D01*
X0066981Y0066569D01*
X0066923Y0066593D01*
X0066867Y0066621D01*
X0066813Y0066652D01*
X0066761Y0066686D01*
X0066712Y0066724D01*
X0066664Y0066765D01*
X0066620Y0066809D01*
X0066578Y0066855D01*
X0066540Y0066905D01*
X0066504Y0066956D01*
X0066472Y0067010D01*
X0066444Y0067065D01*
X0066418Y0067122D01*
X0066397Y0067181D01*
X0066380Y0067241D01*
X0066366Y0067302D01*
X0066356Y0067363D01*
X0066350Y0067426D01*
X0066348Y0067488D01*
M02*
