G75*
%MOIN*%
%OFA0B0*%
%FSLAX25Y25*%
%IPPOS*%
%LPD*%
%AMOC8*
5,1,8,0,0,1.08239X$1,22.5*
%
%ADD10C,0.00000*%
%ADD11C,0.00100*%
D10*
X0006590Y0014500D02*
X0006592Y0014658D01*
X0006598Y0014815D01*
X0006608Y0014973D01*
X0006622Y0015130D01*
X0006640Y0015286D01*
X0006661Y0015443D01*
X0006687Y0015598D01*
X0006717Y0015753D01*
X0006750Y0015907D01*
X0006788Y0016060D01*
X0006829Y0016213D01*
X0006874Y0016364D01*
X0006923Y0016514D01*
X0006976Y0016662D01*
X0007032Y0016810D01*
X0007093Y0016955D01*
X0007156Y0017100D01*
X0007224Y0017242D01*
X0007295Y0017383D01*
X0007369Y0017522D01*
X0007447Y0017659D01*
X0007529Y0017794D01*
X0007613Y0017927D01*
X0007702Y0018058D01*
X0007793Y0018186D01*
X0007888Y0018313D01*
X0007985Y0018436D01*
X0008086Y0018558D01*
X0008190Y0018676D01*
X0008297Y0018792D01*
X0008407Y0018905D01*
X0008519Y0019016D01*
X0008635Y0019123D01*
X0008753Y0019228D01*
X0008873Y0019330D01*
X0008996Y0019428D01*
X0009122Y0019524D01*
X0009250Y0019616D01*
X0009380Y0019705D01*
X0009512Y0019791D01*
X0009647Y0019873D01*
X0009784Y0019952D01*
X0009922Y0020027D01*
X0010062Y0020099D01*
X0010205Y0020167D01*
X0010348Y0020232D01*
X0010494Y0020293D01*
X0010641Y0020350D01*
X0010789Y0020404D01*
X0010939Y0020454D01*
X0011089Y0020500D01*
X0011241Y0020542D01*
X0011394Y0020581D01*
X0011548Y0020615D01*
X0011703Y0020646D01*
X0011858Y0020672D01*
X0012014Y0020695D01*
X0012171Y0020714D01*
X0012328Y0020729D01*
X0012485Y0020740D01*
X0012643Y0020747D01*
X0012801Y0020750D01*
X0012958Y0020749D01*
X0013116Y0020744D01*
X0013273Y0020735D01*
X0013431Y0020722D01*
X0013587Y0020705D01*
X0013744Y0020684D01*
X0013899Y0020660D01*
X0014054Y0020631D01*
X0014209Y0020598D01*
X0014362Y0020562D01*
X0014515Y0020521D01*
X0014666Y0020477D01*
X0014816Y0020429D01*
X0014965Y0020378D01*
X0015113Y0020322D01*
X0015259Y0020263D01*
X0015404Y0020200D01*
X0015547Y0020133D01*
X0015688Y0020063D01*
X0015827Y0019990D01*
X0015965Y0019913D01*
X0016101Y0019832D01*
X0016234Y0019748D01*
X0016365Y0019661D01*
X0016494Y0019570D01*
X0016621Y0019476D01*
X0016746Y0019379D01*
X0016867Y0019279D01*
X0016987Y0019176D01*
X0017103Y0019070D01*
X0017217Y0018961D01*
X0017329Y0018849D01*
X0017437Y0018735D01*
X0017542Y0018617D01*
X0017645Y0018497D01*
X0017744Y0018375D01*
X0017840Y0018250D01*
X0017933Y0018122D01*
X0018023Y0017993D01*
X0018109Y0017861D01*
X0018193Y0017727D01*
X0018272Y0017591D01*
X0018349Y0017453D01*
X0018421Y0017313D01*
X0018490Y0017171D01*
X0018556Y0017028D01*
X0018618Y0016883D01*
X0018676Y0016736D01*
X0018731Y0016588D01*
X0018782Y0016439D01*
X0018829Y0016288D01*
X0018872Y0016137D01*
X0018911Y0015984D01*
X0018947Y0015830D01*
X0018978Y0015676D01*
X0019006Y0015521D01*
X0019030Y0015365D01*
X0019050Y0015208D01*
X0019066Y0015051D01*
X0019078Y0014894D01*
X0019086Y0014737D01*
X0019090Y0014579D01*
X0019090Y0014421D01*
X0019086Y0014263D01*
X0019078Y0014106D01*
X0019066Y0013949D01*
X0019050Y0013792D01*
X0019030Y0013635D01*
X0019006Y0013479D01*
X0018978Y0013324D01*
X0018947Y0013170D01*
X0018911Y0013016D01*
X0018872Y0012863D01*
X0018829Y0012712D01*
X0018782Y0012561D01*
X0018731Y0012412D01*
X0018676Y0012264D01*
X0018618Y0012117D01*
X0018556Y0011972D01*
X0018490Y0011829D01*
X0018421Y0011687D01*
X0018349Y0011547D01*
X0018272Y0011409D01*
X0018193Y0011273D01*
X0018109Y0011139D01*
X0018023Y0011007D01*
X0017933Y0010878D01*
X0017840Y0010750D01*
X0017744Y0010625D01*
X0017645Y0010503D01*
X0017542Y0010383D01*
X0017437Y0010265D01*
X0017329Y0010151D01*
X0017217Y0010039D01*
X0017103Y0009930D01*
X0016987Y0009824D01*
X0016867Y0009721D01*
X0016746Y0009621D01*
X0016621Y0009524D01*
X0016494Y0009430D01*
X0016365Y0009339D01*
X0016234Y0009252D01*
X0016101Y0009168D01*
X0015965Y0009087D01*
X0015827Y0009010D01*
X0015688Y0008937D01*
X0015547Y0008867D01*
X0015404Y0008800D01*
X0015259Y0008737D01*
X0015113Y0008678D01*
X0014965Y0008622D01*
X0014816Y0008571D01*
X0014666Y0008523D01*
X0014515Y0008479D01*
X0014362Y0008438D01*
X0014209Y0008402D01*
X0014054Y0008369D01*
X0013899Y0008340D01*
X0013744Y0008316D01*
X0013587Y0008295D01*
X0013431Y0008278D01*
X0013273Y0008265D01*
X0013116Y0008256D01*
X0012958Y0008251D01*
X0012801Y0008250D01*
X0012643Y0008253D01*
X0012485Y0008260D01*
X0012328Y0008271D01*
X0012171Y0008286D01*
X0012014Y0008305D01*
X0011858Y0008328D01*
X0011703Y0008354D01*
X0011548Y0008385D01*
X0011394Y0008419D01*
X0011241Y0008458D01*
X0011089Y0008500D01*
X0010939Y0008546D01*
X0010789Y0008596D01*
X0010641Y0008650D01*
X0010494Y0008707D01*
X0010348Y0008768D01*
X0010205Y0008833D01*
X0010062Y0008901D01*
X0009922Y0008973D01*
X0009784Y0009048D01*
X0009647Y0009127D01*
X0009512Y0009209D01*
X0009380Y0009295D01*
X0009250Y0009384D01*
X0009122Y0009476D01*
X0008996Y0009572D01*
X0008873Y0009670D01*
X0008753Y0009772D01*
X0008635Y0009877D01*
X0008519Y0009984D01*
X0008407Y0010095D01*
X0008297Y0010208D01*
X0008190Y0010324D01*
X0008086Y0010442D01*
X0007985Y0010564D01*
X0007888Y0010687D01*
X0007793Y0010814D01*
X0007702Y0010942D01*
X0007613Y0011073D01*
X0007529Y0011206D01*
X0007447Y0011341D01*
X0007369Y0011478D01*
X0007295Y0011617D01*
X0007224Y0011758D01*
X0007156Y0011900D01*
X0007093Y0012045D01*
X0007032Y0012190D01*
X0006976Y0012338D01*
X0006923Y0012486D01*
X0006874Y0012636D01*
X0006829Y0012787D01*
X0006788Y0012940D01*
X0006750Y0013093D01*
X0006717Y0013247D01*
X0006687Y0013402D01*
X0006661Y0013557D01*
X0006640Y0013714D01*
X0006622Y0013870D01*
X0006608Y0014027D01*
X0006598Y0014185D01*
X0006592Y0014342D01*
X0006590Y0014500D01*
X0006590Y0114500D02*
X0006592Y0114658D01*
X0006598Y0114815D01*
X0006608Y0114973D01*
X0006622Y0115130D01*
X0006640Y0115286D01*
X0006661Y0115443D01*
X0006687Y0115598D01*
X0006717Y0115753D01*
X0006750Y0115907D01*
X0006788Y0116060D01*
X0006829Y0116213D01*
X0006874Y0116364D01*
X0006923Y0116514D01*
X0006976Y0116662D01*
X0007032Y0116810D01*
X0007093Y0116955D01*
X0007156Y0117100D01*
X0007224Y0117242D01*
X0007295Y0117383D01*
X0007369Y0117522D01*
X0007447Y0117659D01*
X0007529Y0117794D01*
X0007613Y0117927D01*
X0007702Y0118058D01*
X0007793Y0118186D01*
X0007888Y0118313D01*
X0007985Y0118436D01*
X0008086Y0118558D01*
X0008190Y0118676D01*
X0008297Y0118792D01*
X0008407Y0118905D01*
X0008519Y0119016D01*
X0008635Y0119123D01*
X0008753Y0119228D01*
X0008873Y0119330D01*
X0008996Y0119428D01*
X0009122Y0119524D01*
X0009250Y0119616D01*
X0009380Y0119705D01*
X0009512Y0119791D01*
X0009647Y0119873D01*
X0009784Y0119952D01*
X0009922Y0120027D01*
X0010062Y0120099D01*
X0010205Y0120167D01*
X0010348Y0120232D01*
X0010494Y0120293D01*
X0010641Y0120350D01*
X0010789Y0120404D01*
X0010939Y0120454D01*
X0011089Y0120500D01*
X0011241Y0120542D01*
X0011394Y0120581D01*
X0011548Y0120615D01*
X0011703Y0120646D01*
X0011858Y0120672D01*
X0012014Y0120695D01*
X0012171Y0120714D01*
X0012328Y0120729D01*
X0012485Y0120740D01*
X0012643Y0120747D01*
X0012801Y0120750D01*
X0012958Y0120749D01*
X0013116Y0120744D01*
X0013273Y0120735D01*
X0013431Y0120722D01*
X0013587Y0120705D01*
X0013744Y0120684D01*
X0013899Y0120660D01*
X0014054Y0120631D01*
X0014209Y0120598D01*
X0014362Y0120562D01*
X0014515Y0120521D01*
X0014666Y0120477D01*
X0014816Y0120429D01*
X0014965Y0120378D01*
X0015113Y0120322D01*
X0015259Y0120263D01*
X0015404Y0120200D01*
X0015547Y0120133D01*
X0015688Y0120063D01*
X0015827Y0119990D01*
X0015965Y0119913D01*
X0016101Y0119832D01*
X0016234Y0119748D01*
X0016365Y0119661D01*
X0016494Y0119570D01*
X0016621Y0119476D01*
X0016746Y0119379D01*
X0016867Y0119279D01*
X0016987Y0119176D01*
X0017103Y0119070D01*
X0017217Y0118961D01*
X0017329Y0118849D01*
X0017437Y0118735D01*
X0017542Y0118617D01*
X0017645Y0118497D01*
X0017744Y0118375D01*
X0017840Y0118250D01*
X0017933Y0118122D01*
X0018023Y0117993D01*
X0018109Y0117861D01*
X0018193Y0117727D01*
X0018272Y0117591D01*
X0018349Y0117453D01*
X0018421Y0117313D01*
X0018490Y0117171D01*
X0018556Y0117028D01*
X0018618Y0116883D01*
X0018676Y0116736D01*
X0018731Y0116588D01*
X0018782Y0116439D01*
X0018829Y0116288D01*
X0018872Y0116137D01*
X0018911Y0115984D01*
X0018947Y0115830D01*
X0018978Y0115676D01*
X0019006Y0115521D01*
X0019030Y0115365D01*
X0019050Y0115208D01*
X0019066Y0115051D01*
X0019078Y0114894D01*
X0019086Y0114737D01*
X0019090Y0114579D01*
X0019090Y0114421D01*
X0019086Y0114263D01*
X0019078Y0114106D01*
X0019066Y0113949D01*
X0019050Y0113792D01*
X0019030Y0113635D01*
X0019006Y0113479D01*
X0018978Y0113324D01*
X0018947Y0113170D01*
X0018911Y0113016D01*
X0018872Y0112863D01*
X0018829Y0112712D01*
X0018782Y0112561D01*
X0018731Y0112412D01*
X0018676Y0112264D01*
X0018618Y0112117D01*
X0018556Y0111972D01*
X0018490Y0111829D01*
X0018421Y0111687D01*
X0018349Y0111547D01*
X0018272Y0111409D01*
X0018193Y0111273D01*
X0018109Y0111139D01*
X0018023Y0111007D01*
X0017933Y0110878D01*
X0017840Y0110750D01*
X0017744Y0110625D01*
X0017645Y0110503D01*
X0017542Y0110383D01*
X0017437Y0110265D01*
X0017329Y0110151D01*
X0017217Y0110039D01*
X0017103Y0109930D01*
X0016987Y0109824D01*
X0016867Y0109721D01*
X0016746Y0109621D01*
X0016621Y0109524D01*
X0016494Y0109430D01*
X0016365Y0109339D01*
X0016234Y0109252D01*
X0016101Y0109168D01*
X0015965Y0109087D01*
X0015827Y0109010D01*
X0015688Y0108937D01*
X0015547Y0108867D01*
X0015404Y0108800D01*
X0015259Y0108737D01*
X0015113Y0108678D01*
X0014965Y0108622D01*
X0014816Y0108571D01*
X0014666Y0108523D01*
X0014515Y0108479D01*
X0014362Y0108438D01*
X0014209Y0108402D01*
X0014054Y0108369D01*
X0013899Y0108340D01*
X0013744Y0108316D01*
X0013587Y0108295D01*
X0013431Y0108278D01*
X0013273Y0108265D01*
X0013116Y0108256D01*
X0012958Y0108251D01*
X0012801Y0108250D01*
X0012643Y0108253D01*
X0012485Y0108260D01*
X0012328Y0108271D01*
X0012171Y0108286D01*
X0012014Y0108305D01*
X0011858Y0108328D01*
X0011703Y0108354D01*
X0011548Y0108385D01*
X0011394Y0108419D01*
X0011241Y0108458D01*
X0011089Y0108500D01*
X0010939Y0108546D01*
X0010789Y0108596D01*
X0010641Y0108650D01*
X0010494Y0108707D01*
X0010348Y0108768D01*
X0010205Y0108833D01*
X0010062Y0108901D01*
X0009922Y0108973D01*
X0009784Y0109048D01*
X0009647Y0109127D01*
X0009512Y0109209D01*
X0009380Y0109295D01*
X0009250Y0109384D01*
X0009122Y0109476D01*
X0008996Y0109572D01*
X0008873Y0109670D01*
X0008753Y0109772D01*
X0008635Y0109877D01*
X0008519Y0109984D01*
X0008407Y0110095D01*
X0008297Y0110208D01*
X0008190Y0110324D01*
X0008086Y0110442D01*
X0007985Y0110564D01*
X0007888Y0110687D01*
X0007793Y0110814D01*
X0007702Y0110942D01*
X0007613Y0111073D01*
X0007529Y0111206D01*
X0007447Y0111341D01*
X0007369Y0111478D01*
X0007295Y0111617D01*
X0007224Y0111758D01*
X0007156Y0111900D01*
X0007093Y0112045D01*
X0007032Y0112190D01*
X0006976Y0112338D01*
X0006923Y0112486D01*
X0006874Y0112636D01*
X0006829Y0112787D01*
X0006788Y0112940D01*
X0006750Y0113093D01*
X0006717Y0113247D01*
X0006687Y0113402D01*
X0006661Y0113557D01*
X0006640Y0113714D01*
X0006622Y0113870D01*
X0006608Y0114027D01*
X0006598Y0114185D01*
X0006592Y0114342D01*
X0006590Y0114500D01*
X0111590Y0114500D02*
X0111592Y0114658D01*
X0111598Y0114815D01*
X0111608Y0114973D01*
X0111622Y0115130D01*
X0111640Y0115286D01*
X0111661Y0115443D01*
X0111687Y0115598D01*
X0111717Y0115753D01*
X0111750Y0115907D01*
X0111788Y0116060D01*
X0111829Y0116213D01*
X0111874Y0116364D01*
X0111923Y0116514D01*
X0111976Y0116662D01*
X0112032Y0116810D01*
X0112093Y0116955D01*
X0112156Y0117100D01*
X0112224Y0117242D01*
X0112295Y0117383D01*
X0112369Y0117522D01*
X0112447Y0117659D01*
X0112529Y0117794D01*
X0112613Y0117927D01*
X0112702Y0118058D01*
X0112793Y0118186D01*
X0112888Y0118313D01*
X0112985Y0118436D01*
X0113086Y0118558D01*
X0113190Y0118676D01*
X0113297Y0118792D01*
X0113407Y0118905D01*
X0113519Y0119016D01*
X0113635Y0119123D01*
X0113753Y0119228D01*
X0113873Y0119330D01*
X0113996Y0119428D01*
X0114122Y0119524D01*
X0114250Y0119616D01*
X0114380Y0119705D01*
X0114512Y0119791D01*
X0114647Y0119873D01*
X0114784Y0119952D01*
X0114922Y0120027D01*
X0115062Y0120099D01*
X0115205Y0120167D01*
X0115348Y0120232D01*
X0115494Y0120293D01*
X0115641Y0120350D01*
X0115789Y0120404D01*
X0115939Y0120454D01*
X0116089Y0120500D01*
X0116241Y0120542D01*
X0116394Y0120581D01*
X0116548Y0120615D01*
X0116703Y0120646D01*
X0116858Y0120672D01*
X0117014Y0120695D01*
X0117171Y0120714D01*
X0117328Y0120729D01*
X0117485Y0120740D01*
X0117643Y0120747D01*
X0117801Y0120750D01*
X0117958Y0120749D01*
X0118116Y0120744D01*
X0118273Y0120735D01*
X0118431Y0120722D01*
X0118587Y0120705D01*
X0118744Y0120684D01*
X0118899Y0120660D01*
X0119054Y0120631D01*
X0119209Y0120598D01*
X0119362Y0120562D01*
X0119515Y0120521D01*
X0119666Y0120477D01*
X0119816Y0120429D01*
X0119965Y0120378D01*
X0120113Y0120322D01*
X0120259Y0120263D01*
X0120404Y0120200D01*
X0120547Y0120133D01*
X0120688Y0120063D01*
X0120827Y0119990D01*
X0120965Y0119913D01*
X0121101Y0119832D01*
X0121234Y0119748D01*
X0121365Y0119661D01*
X0121494Y0119570D01*
X0121621Y0119476D01*
X0121746Y0119379D01*
X0121867Y0119279D01*
X0121987Y0119176D01*
X0122103Y0119070D01*
X0122217Y0118961D01*
X0122329Y0118849D01*
X0122437Y0118735D01*
X0122542Y0118617D01*
X0122645Y0118497D01*
X0122744Y0118375D01*
X0122840Y0118250D01*
X0122933Y0118122D01*
X0123023Y0117993D01*
X0123109Y0117861D01*
X0123193Y0117727D01*
X0123272Y0117591D01*
X0123349Y0117453D01*
X0123421Y0117313D01*
X0123490Y0117171D01*
X0123556Y0117028D01*
X0123618Y0116883D01*
X0123676Y0116736D01*
X0123731Y0116588D01*
X0123782Y0116439D01*
X0123829Y0116288D01*
X0123872Y0116137D01*
X0123911Y0115984D01*
X0123947Y0115830D01*
X0123978Y0115676D01*
X0124006Y0115521D01*
X0124030Y0115365D01*
X0124050Y0115208D01*
X0124066Y0115051D01*
X0124078Y0114894D01*
X0124086Y0114737D01*
X0124090Y0114579D01*
X0124090Y0114421D01*
X0124086Y0114263D01*
X0124078Y0114106D01*
X0124066Y0113949D01*
X0124050Y0113792D01*
X0124030Y0113635D01*
X0124006Y0113479D01*
X0123978Y0113324D01*
X0123947Y0113170D01*
X0123911Y0113016D01*
X0123872Y0112863D01*
X0123829Y0112712D01*
X0123782Y0112561D01*
X0123731Y0112412D01*
X0123676Y0112264D01*
X0123618Y0112117D01*
X0123556Y0111972D01*
X0123490Y0111829D01*
X0123421Y0111687D01*
X0123349Y0111547D01*
X0123272Y0111409D01*
X0123193Y0111273D01*
X0123109Y0111139D01*
X0123023Y0111007D01*
X0122933Y0110878D01*
X0122840Y0110750D01*
X0122744Y0110625D01*
X0122645Y0110503D01*
X0122542Y0110383D01*
X0122437Y0110265D01*
X0122329Y0110151D01*
X0122217Y0110039D01*
X0122103Y0109930D01*
X0121987Y0109824D01*
X0121867Y0109721D01*
X0121746Y0109621D01*
X0121621Y0109524D01*
X0121494Y0109430D01*
X0121365Y0109339D01*
X0121234Y0109252D01*
X0121101Y0109168D01*
X0120965Y0109087D01*
X0120827Y0109010D01*
X0120688Y0108937D01*
X0120547Y0108867D01*
X0120404Y0108800D01*
X0120259Y0108737D01*
X0120113Y0108678D01*
X0119965Y0108622D01*
X0119816Y0108571D01*
X0119666Y0108523D01*
X0119515Y0108479D01*
X0119362Y0108438D01*
X0119209Y0108402D01*
X0119054Y0108369D01*
X0118899Y0108340D01*
X0118744Y0108316D01*
X0118587Y0108295D01*
X0118431Y0108278D01*
X0118273Y0108265D01*
X0118116Y0108256D01*
X0117958Y0108251D01*
X0117801Y0108250D01*
X0117643Y0108253D01*
X0117485Y0108260D01*
X0117328Y0108271D01*
X0117171Y0108286D01*
X0117014Y0108305D01*
X0116858Y0108328D01*
X0116703Y0108354D01*
X0116548Y0108385D01*
X0116394Y0108419D01*
X0116241Y0108458D01*
X0116089Y0108500D01*
X0115939Y0108546D01*
X0115789Y0108596D01*
X0115641Y0108650D01*
X0115494Y0108707D01*
X0115348Y0108768D01*
X0115205Y0108833D01*
X0115062Y0108901D01*
X0114922Y0108973D01*
X0114784Y0109048D01*
X0114647Y0109127D01*
X0114512Y0109209D01*
X0114380Y0109295D01*
X0114250Y0109384D01*
X0114122Y0109476D01*
X0113996Y0109572D01*
X0113873Y0109670D01*
X0113753Y0109772D01*
X0113635Y0109877D01*
X0113519Y0109984D01*
X0113407Y0110095D01*
X0113297Y0110208D01*
X0113190Y0110324D01*
X0113086Y0110442D01*
X0112985Y0110564D01*
X0112888Y0110687D01*
X0112793Y0110814D01*
X0112702Y0110942D01*
X0112613Y0111073D01*
X0112529Y0111206D01*
X0112447Y0111341D01*
X0112369Y0111478D01*
X0112295Y0111617D01*
X0112224Y0111758D01*
X0112156Y0111900D01*
X0112093Y0112045D01*
X0112032Y0112190D01*
X0111976Y0112338D01*
X0111923Y0112486D01*
X0111874Y0112636D01*
X0111829Y0112787D01*
X0111788Y0112940D01*
X0111750Y0113093D01*
X0111717Y0113247D01*
X0111687Y0113402D01*
X0111661Y0113557D01*
X0111640Y0113714D01*
X0111622Y0113870D01*
X0111608Y0114027D01*
X0111598Y0114185D01*
X0111592Y0114342D01*
X0111590Y0114500D01*
X0111590Y0014500D02*
X0111592Y0014658D01*
X0111598Y0014815D01*
X0111608Y0014973D01*
X0111622Y0015130D01*
X0111640Y0015286D01*
X0111661Y0015443D01*
X0111687Y0015598D01*
X0111717Y0015753D01*
X0111750Y0015907D01*
X0111788Y0016060D01*
X0111829Y0016213D01*
X0111874Y0016364D01*
X0111923Y0016514D01*
X0111976Y0016662D01*
X0112032Y0016810D01*
X0112093Y0016955D01*
X0112156Y0017100D01*
X0112224Y0017242D01*
X0112295Y0017383D01*
X0112369Y0017522D01*
X0112447Y0017659D01*
X0112529Y0017794D01*
X0112613Y0017927D01*
X0112702Y0018058D01*
X0112793Y0018186D01*
X0112888Y0018313D01*
X0112985Y0018436D01*
X0113086Y0018558D01*
X0113190Y0018676D01*
X0113297Y0018792D01*
X0113407Y0018905D01*
X0113519Y0019016D01*
X0113635Y0019123D01*
X0113753Y0019228D01*
X0113873Y0019330D01*
X0113996Y0019428D01*
X0114122Y0019524D01*
X0114250Y0019616D01*
X0114380Y0019705D01*
X0114512Y0019791D01*
X0114647Y0019873D01*
X0114784Y0019952D01*
X0114922Y0020027D01*
X0115062Y0020099D01*
X0115205Y0020167D01*
X0115348Y0020232D01*
X0115494Y0020293D01*
X0115641Y0020350D01*
X0115789Y0020404D01*
X0115939Y0020454D01*
X0116089Y0020500D01*
X0116241Y0020542D01*
X0116394Y0020581D01*
X0116548Y0020615D01*
X0116703Y0020646D01*
X0116858Y0020672D01*
X0117014Y0020695D01*
X0117171Y0020714D01*
X0117328Y0020729D01*
X0117485Y0020740D01*
X0117643Y0020747D01*
X0117801Y0020750D01*
X0117958Y0020749D01*
X0118116Y0020744D01*
X0118273Y0020735D01*
X0118431Y0020722D01*
X0118587Y0020705D01*
X0118744Y0020684D01*
X0118899Y0020660D01*
X0119054Y0020631D01*
X0119209Y0020598D01*
X0119362Y0020562D01*
X0119515Y0020521D01*
X0119666Y0020477D01*
X0119816Y0020429D01*
X0119965Y0020378D01*
X0120113Y0020322D01*
X0120259Y0020263D01*
X0120404Y0020200D01*
X0120547Y0020133D01*
X0120688Y0020063D01*
X0120827Y0019990D01*
X0120965Y0019913D01*
X0121101Y0019832D01*
X0121234Y0019748D01*
X0121365Y0019661D01*
X0121494Y0019570D01*
X0121621Y0019476D01*
X0121746Y0019379D01*
X0121867Y0019279D01*
X0121987Y0019176D01*
X0122103Y0019070D01*
X0122217Y0018961D01*
X0122329Y0018849D01*
X0122437Y0018735D01*
X0122542Y0018617D01*
X0122645Y0018497D01*
X0122744Y0018375D01*
X0122840Y0018250D01*
X0122933Y0018122D01*
X0123023Y0017993D01*
X0123109Y0017861D01*
X0123193Y0017727D01*
X0123272Y0017591D01*
X0123349Y0017453D01*
X0123421Y0017313D01*
X0123490Y0017171D01*
X0123556Y0017028D01*
X0123618Y0016883D01*
X0123676Y0016736D01*
X0123731Y0016588D01*
X0123782Y0016439D01*
X0123829Y0016288D01*
X0123872Y0016137D01*
X0123911Y0015984D01*
X0123947Y0015830D01*
X0123978Y0015676D01*
X0124006Y0015521D01*
X0124030Y0015365D01*
X0124050Y0015208D01*
X0124066Y0015051D01*
X0124078Y0014894D01*
X0124086Y0014737D01*
X0124090Y0014579D01*
X0124090Y0014421D01*
X0124086Y0014263D01*
X0124078Y0014106D01*
X0124066Y0013949D01*
X0124050Y0013792D01*
X0124030Y0013635D01*
X0124006Y0013479D01*
X0123978Y0013324D01*
X0123947Y0013170D01*
X0123911Y0013016D01*
X0123872Y0012863D01*
X0123829Y0012712D01*
X0123782Y0012561D01*
X0123731Y0012412D01*
X0123676Y0012264D01*
X0123618Y0012117D01*
X0123556Y0011972D01*
X0123490Y0011829D01*
X0123421Y0011687D01*
X0123349Y0011547D01*
X0123272Y0011409D01*
X0123193Y0011273D01*
X0123109Y0011139D01*
X0123023Y0011007D01*
X0122933Y0010878D01*
X0122840Y0010750D01*
X0122744Y0010625D01*
X0122645Y0010503D01*
X0122542Y0010383D01*
X0122437Y0010265D01*
X0122329Y0010151D01*
X0122217Y0010039D01*
X0122103Y0009930D01*
X0121987Y0009824D01*
X0121867Y0009721D01*
X0121746Y0009621D01*
X0121621Y0009524D01*
X0121494Y0009430D01*
X0121365Y0009339D01*
X0121234Y0009252D01*
X0121101Y0009168D01*
X0120965Y0009087D01*
X0120827Y0009010D01*
X0120688Y0008937D01*
X0120547Y0008867D01*
X0120404Y0008800D01*
X0120259Y0008737D01*
X0120113Y0008678D01*
X0119965Y0008622D01*
X0119816Y0008571D01*
X0119666Y0008523D01*
X0119515Y0008479D01*
X0119362Y0008438D01*
X0119209Y0008402D01*
X0119054Y0008369D01*
X0118899Y0008340D01*
X0118744Y0008316D01*
X0118587Y0008295D01*
X0118431Y0008278D01*
X0118273Y0008265D01*
X0118116Y0008256D01*
X0117958Y0008251D01*
X0117801Y0008250D01*
X0117643Y0008253D01*
X0117485Y0008260D01*
X0117328Y0008271D01*
X0117171Y0008286D01*
X0117014Y0008305D01*
X0116858Y0008328D01*
X0116703Y0008354D01*
X0116548Y0008385D01*
X0116394Y0008419D01*
X0116241Y0008458D01*
X0116089Y0008500D01*
X0115939Y0008546D01*
X0115789Y0008596D01*
X0115641Y0008650D01*
X0115494Y0008707D01*
X0115348Y0008768D01*
X0115205Y0008833D01*
X0115062Y0008901D01*
X0114922Y0008973D01*
X0114784Y0009048D01*
X0114647Y0009127D01*
X0114512Y0009209D01*
X0114380Y0009295D01*
X0114250Y0009384D01*
X0114122Y0009476D01*
X0113996Y0009572D01*
X0113873Y0009670D01*
X0113753Y0009772D01*
X0113635Y0009877D01*
X0113519Y0009984D01*
X0113407Y0010095D01*
X0113297Y0010208D01*
X0113190Y0010324D01*
X0113086Y0010442D01*
X0112985Y0010564D01*
X0112888Y0010687D01*
X0112793Y0010814D01*
X0112702Y0010942D01*
X0112613Y0011073D01*
X0112529Y0011206D01*
X0112447Y0011341D01*
X0112369Y0011478D01*
X0112295Y0011617D01*
X0112224Y0011758D01*
X0112156Y0011900D01*
X0112093Y0012045D01*
X0112032Y0012190D01*
X0111976Y0012338D01*
X0111923Y0012486D01*
X0111874Y0012636D01*
X0111829Y0012787D01*
X0111788Y0012940D01*
X0111750Y0013093D01*
X0111717Y0013247D01*
X0111687Y0013402D01*
X0111661Y0013557D01*
X0111640Y0013714D01*
X0111622Y0013870D01*
X0111608Y0014027D01*
X0111598Y0014185D01*
X0111592Y0014342D01*
X0111590Y0014500D01*
D11*
X0002840Y0002000D02*
X0002840Y0127000D01*
X0127840Y0127000D01*
X0127840Y0002000D01*
X0002840Y0002000D01*
M02*
