G75*
%MOIN*%
%OFA0B0*%
%FSLAX25Y25*%
%IPPOS*%
%LPD*%
%AMOC8*
5,1,8,0,0,1.08239X$1,22.5*
%
%ADD10R,0.02362X0.08661*%
%ADD11R,0.04331X0.03937*%
%ADD12OC8,0.06000*%
%ADD13R,0.06000X0.06000*%
%ADD14C,0.06000*%
%ADD15C,0.05906*%
%ADD16C,0.00800*%
%ADD17C,0.02700*%
%ADD18C,0.01200*%
D10*
X0033706Y0059492D03*
X0038706Y0059492D03*
X0043706Y0059492D03*
X0048706Y0059492D03*
X0053706Y0059492D03*
X0058706Y0059492D03*
X0063706Y0059492D03*
X0068706Y0059492D03*
X0073706Y0059492D03*
X0073706Y0094965D03*
X0068706Y0094965D03*
X0063706Y0094965D03*
X0058706Y0094965D03*
X0053706Y0094965D03*
X0048706Y0094965D03*
X0043706Y0094965D03*
X0038706Y0094965D03*
X0033706Y0094965D03*
D11*
X0050730Y0048829D03*
X0057423Y0048829D03*
X0097815Y0052150D03*
X0097815Y0058843D03*
D12*
X0110540Y0037900D03*
X0120540Y0037900D03*
X0120540Y0027900D03*
X0110540Y0027900D03*
X0100540Y0027900D03*
D13*
X0100540Y0037900D03*
D14*
X0089340Y0041900D02*
X0083340Y0041900D01*
X0083340Y0051900D02*
X0089340Y0051900D01*
X0089340Y0061900D02*
X0083340Y0061900D01*
X0083340Y0071900D02*
X0089340Y0071900D01*
X0089340Y0081900D02*
X0083340Y0081900D01*
X0083340Y0091900D02*
X0089340Y0091900D01*
X0024340Y0091900D02*
X0018340Y0091900D01*
X0018340Y0081900D02*
X0024340Y0081900D01*
X0024340Y0071900D02*
X0018340Y0071900D01*
X0018340Y0061900D02*
X0024340Y0061900D01*
X0024340Y0051900D02*
X0018340Y0051900D01*
X0018340Y0041900D02*
X0024340Y0041900D01*
D15*
X0029340Y0018653D02*
X0029340Y0012747D01*
X0039340Y0012747D02*
X0039340Y0018653D01*
X0049340Y0018653D02*
X0049340Y0012747D01*
X0059340Y0012747D02*
X0059340Y0018653D01*
X0069340Y0018653D02*
X0069340Y0012747D01*
X0079340Y0012747D02*
X0079340Y0018653D01*
X0089340Y0018653D02*
X0089340Y0012747D01*
X0099340Y0012747D02*
X0099340Y0018653D01*
X0099340Y0107247D02*
X0099340Y0113153D01*
X0089340Y0113153D02*
X0089340Y0107247D01*
X0079340Y0107247D02*
X0079340Y0113153D01*
X0069340Y0113153D02*
X0069340Y0107247D01*
X0059340Y0107247D02*
X0059340Y0113153D01*
X0049340Y0113153D02*
X0049340Y0107247D01*
X0039340Y0107247D02*
X0039340Y0113153D01*
X0029340Y0113153D02*
X0029340Y0107247D01*
D16*
X0023040Y0028000D02*
X0026540Y0024500D01*
X0037040Y0024500D01*
X0035640Y0029400D02*
X0048590Y0016450D01*
X0048540Y0016400D01*
X0049240Y0015700D01*
X0049340Y0015700D01*
X0048940Y0016100D02*
X0048590Y0016450D01*
X0046840Y0008400D02*
X0040190Y0015050D01*
X0040140Y0015000D01*
X0039440Y0015700D01*
X0039340Y0015700D01*
X0039840Y0015400D02*
X0040190Y0015050D01*
X0046840Y0008400D02*
X0070640Y0008400D01*
X0073440Y0011200D01*
X0073440Y0018900D01*
X0094440Y0039900D01*
X0094440Y0044100D01*
X0092340Y0046200D01*
X0082640Y0046200D01*
X0079340Y0049500D01*
X0079340Y0063400D01*
X0053840Y0088900D01*
X0053840Y0094500D01*
X0053706Y0094965D01*
X0058040Y0095200D02*
X0058706Y0094965D01*
X0058040Y0095200D02*
X0058040Y0101500D01*
X0049990Y0109550D01*
X0049940Y0109500D01*
X0049940Y0110200D01*
X0049340Y0110200D01*
X0049640Y0109900D02*
X0049990Y0109550D01*
X0044740Y0105700D02*
X0044740Y0114800D01*
X0047540Y0117600D01*
X0062240Y0117600D01*
X0068890Y0110950D01*
X0068840Y0110900D01*
X0068840Y0110200D01*
X0069340Y0110200D01*
X0069240Y0110600D02*
X0068890Y0110950D01*
X0073440Y0114800D02*
X0069240Y0119000D01*
X0039140Y0119000D01*
X0033540Y0113400D01*
X0033540Y0105700D01*
X0023740Y0095900D01*
X0015340Y0095900D01*
X0009040Y0089600D01*
X0009040Y0035000D01*
X0014640Y0029400D01*
X0035640Y0029400D01*
X0029440Y0033700D02*
X0023140Y0033700D01*
X0023040Y0033600D01*
X0012540Y0033600D01*
X0010440Y0035700D01*
X0010440Y0081200D01*
X0016740Y0087500D01*
X0032840Y0087500D01*
X0036340Y0087500D02*
X0020940Y0072100D01*
X0021340Y0071900D01*
X0028740Y0064500D01*
X0028740Y0051900D01*
X0032940Y0047700D01*
X0032840Y0046900D01*
X0034240Y0049000D02*
X0035640Y0047600D01*
X0035640Y0041900D01*
X0033640Y0040000D02*
X0028740Y0035100D01*
X0025240Y0035100D01*
X0023840Y0036500D01*
X0023740Y0036400D01*
X0013240Y0036400D01*
X0016140Y0037900D02*
X0014040Y0040000D01*
X0014040Y0056100D01*
X0015690Y0057750D01*
X0016040Y0057400D01*
X0015690Y0057750D02*
X0013240Y0060200D01*
X0013240Y0074900D01*
X0020240Y0081900D01*
X0021340Y0081900D01*
X0028640Y0076300D02*
X0038440Y0086100D01*
X0038440Y0094500D01*
X0038706Y0094965D01*
X0036340Y0099400D02*
X0036340Y0087500D01*
X0033540Y0094500D02*
X0033706Y0094965D01*
X0033540Y0094500D02*
X0023040Y0094500D01*
X0020940Y0092400D01*
X0021340Y0091900D01*
X0030040Y0098000D02*
X0031440Y0099400D01*
X0031440Y0100100D01*
X0032140Y0100800D01*
X0034940Y0100800D01*
X0036340Y0099400D01*
X0043340Y0101500D02*
X0043340Y0095200D01*
X0043706Y0094965D01*
X0048240Y0095200D02*
X0048706Y0094965D01*
X0048240Y0095200D02*
X0048240Y0102200D01*
X0044740Y0105700D01*
X0046140Y0102200D02*
X0039840Y0108500D01*
X0039840Y0109500D01*
X0040140Y0109500D01*
X0039440Y0110200D01*
X0039340Y0110200D01*
X0039840Y0109900D02*
X0039840Y0109500D01*
X0046140Y0102200D02*
X0046140Y0090300D01*
X0046840Y0089600D01*
X0049640Y0089600D01*
X0066440Y0072800D01*
X0066440Y0048300D01*
X0063640Y0053200D02*
X0063640Y0058800D01*
X0063706Y0059492D01*
X0068706Y0059492D02*
X0069240Y0059500D01*
X0069240Y0062300D01*
X0072040Y0065100D01*
X0075540Y0065100D01*
X0076940Y0063700D01*
X0076940Y0062300D01*
X0076940Y0058800D02*
X0074140Y0058800D01*
X0073706Y0059492D01*
X0082640Y0066600D02*
X0084040Y0066600D01*
X0084040Y0066500D01*
X0083940Y0066500D01*
X0084040Y0066500D02*
X0091640Y0066500D01*
X0094440Y0063700D01*
X0094440Y0046200D01*
X0095840Y0044800D01*
X0095840Y0031500D01*
X0089540Y0025200D01*
X0089540Y0016400D01*
X0089840Y0016400D01*
X0089840Y0015700D01*
X0089340Y0015700D01*
X0089540Y0016100D02*
X0089540Y0016400D01*
X0096540Y0018200D02*
X0098290Y0016450D01*
X0098240Y0016400D01*
X0098940Y0015700D01*
X0099340Y0015700D01*
X0098640Y0016100D02*
X0098290Y0016450D01*
X0096540Y0018200D02*
X0096540Y0030100D01*
X0098640Y0032200D01*
X0102840Y0032200D01*
X0104940Y0034300D01*
X0104940Y0038500D01*
X0107740Y0041300D01*
X0107740Y0074200D01*
X0095840Y0086100D01*
X0084040Y0086100D01*
X0084040Y0086200D01*
X0083340Y0086200D01*
X0074940Y0094600D01*
X0074940Y0094500D01*
X0074140Y0094500D01*
X0073706Y0094965D01*
X0074940Y0094500D02*
X0075540Y0094500D01*
X0076940Y0096600D02*
X0091640Y0096600D01*
X0116140Y0072100D01*
X0116140Y0035700D01*
X0110540Y0030100D01*
X0110540Y0027900D01*
X0104940Y0028000D02*
X0110540Y0033600D01*
X0111940Y0033600D01*
X0114740Y0036400D01*
X0114740Y0071400D01*
X0094440Y0091700D01*
X0087440Y0091700D01*
X0086340Y0091900D01*
X0084040Y0086100D02*
X0083940Y0086100D01*
X0086340Y0081900D02*
X0087440Y0081900D01*
X0100740Y0068600D01*
X0103540Y0063000D02*
X0103540Y0074900D01*
X0099340Y0079100D01*
X0103540Y0063000D02*
X0100040Y0059500D01*
X0097940Y0059500D01*
X0097815Y0058843D01*
X0097940Y0052500D02*
X0097815Y0052150D01*
X0097240Y0051800D01*
X0097240Y0047600D01*
X0097940Y0052500D02*
X0101440Y0052500D01*
X0104940Y0056000D01*
X0082640Y0066600D02*
X0068640Y0080600D01*
X0068640Y0082000D01*
X0068540Y0082000D01*
X0068540Y0094500D01*
X0068706Y0094965D01*
X0064340Y0095200D02*
X0063706Y0094965D01*
X0064340Y0095200D02*
X0064340Y0098000D01*
X0069240Y0102900D01*
X0070640Y0102900D01*
X0073440Y0105700D01*
X0073440Y0114800D01*
X0079340Y0110200D02*
X0086740Y0117600D01*
X0098940Y0110200D02*
X0099340Y0110200D01*
X0098940Y0110200D02*
X0091640Y0102900D01*
X0074140Y0102900D01*
X0071340Y0100100D01*
X0071340Y0088900D01*
X0068540Y0082000D02*
X0068540Y0081900D01*
X0059440Y0076300D02*
X0059440Y0067200D01*
X0053840Y0061600D01*
X0053840Y0059500D01*
X0053706Y0059492D01*
X0048706Y0059492D02*
X0048240Y0059500D01*
X0048240Y0064400D01*
X0044040Y0068600D01*
X0040540Y0068600D01*
X0043340Y0065800D02*
X0043340Y0059500D01*
X0043706Y0059492D01*
X0039140Y0058800D02*
X0039140Y0056700D01*
X0042640Y0053200D01*
X0043340Y0053200D01*
X0042640Y0048300D02*
X0036340Y0054600D01*
X0036340Y0067900D01*
X0044740Y0076300D01*
X0055940Y0076300D01*
X0052440Y0065800D02*
X0051040Y0064400D01*
X0051040Y0049000D01*
X0050730Y0048829D01*
X0050340Y0048300D01*
X0050340Y0044800D01*
X0055340Y0044000D02*
X0058040Y0044000D01*
X0058040Y0048300D01*
X0057423Y0048829D01*
X0058040Y0044000D02*
X0058040Y0041900D01*
X0053140Y0032200D02*
X0068890Y0016450D01*
X0068840Y0016400D01*
X0068840Y0015700D01*
X0069340Y0015700D01*
X0069240Y0016100D02*
X0068890Y0016450D01*
X0053140Y0032200D02*
X0046140Y0032200D01*
X0033640Y0040000D02*
X0074940Y0040000D01*
X0074840Y0039900D01*
X0075540Y0039200D01*
X0076940Y0039200D01*
X0074140Y0037100D02*
X0073540Y0036500D01*
X0032240Y0036500D01*
X0029440Y0033700D01*
X0028040Y0037900D02*
X0016140Y0037900D01*
X0007640Y0034300D02*
X0007640Y0090300D01*
X0018140Y0100800D01*
X0025840Y0100800D01*
X0028640Y0103600D01*
X0028640Y0109500D01*
X0028940Y0109500D01*
X0028940Y0110200D01*
X0029340Y0110200D01*
X0028640Y0109900D02*
X0028640Y0109500D01*
X0021340Y0071900D02*
X0020940Y0071400D01*
X0033706Y0059492D02*
X0034240Y0058800D01*
X0034240Y0049000D01*
X0042640Y0048300D02*
X0042640Y0045500D01*
X0039140Y0058800D02*
X0038706Y0059492D01*
X0058706Y0059492D02*
X0058740Y0059500D01*
X0058740Y0062300D01*
X0062240Y0065800D01*
X0086740Y0100100D02*
X0092340Y0100100D01*
X0093740Y0101500D01*
X0100740Y0028000D02*
X0100540Y0027900D01*
X0100740Y0028000D02*
X0104940Y0028000D01*
X0023040Y0028000D02*
X0013940Y0028000D01*
X0007640Y0034300D01*
D17*
X0013240Y0036400D03*
X0028040Y0037900D03*
X0032840Y0046900D03*
X0042640Y0045500D03*
X0050340Y0044800D03*
X0055340Y0044000D03*
X0063640Y0053200D03*
X0066440Y0048300D03*
X0076940Y0039200D03*
X0074140Y0037100D03*
X0076940Y0058800D03*
X0076940Y0062300D03*
X0062240Y0065800D03*
X0052440Y0065800D03*
X0043340Y0065800D03*
X0040540Y0068600D03*
X0028640Y0076300D03*
X0032840Y0087500D03*
X0030040Y0098000D03*
X0043340Y0101500D03*
X0055940Y0076300D03*
X0059440Y0076300D03*
X0071340Y0088900D03*
X0076940Y0096600D03*
X0086740Y0100100D03*
X0093740Y0101500D03*
X0086740Y0117600D03*
X0099340Y0079100D03*
X0100740Y0068600D03*
X0104940Y0056000D03*
X0097240Y0047600D03*
X0046140Y0032200D03*
X0037040Y0024500D03*
X0043340Y0053200D03*
D18*
X0035640Y0041900D02*
X0058040Y0041900D01*
X0086340Y0041900D01*
X0035640Y0041900D02*
X0021340Y0041900D01*
M02*
