G75*
%MOIN*%
%OFA0B0*%
%FSLAX25Y25*%
%IPPOS*%
%LPD*%
%AMOC8*
5,1,8,0,0,1.08239X$1,22.5*
%
%ADD10C,0.11600*%
%ADD11R,0.02962X0.09261*%
%ADD12R,0.04931X0.04537*%
%ADD13OC8,0.06600*%
%ADD14R,0.06600X0.06600*%
%ADD15C,0.06600*%
%ADD16C,0.06506*%
%ADD17C,0.03300*%
D10*
X0011840Y0013000D03*
X0011840Y0113000D03*
X0116840Y0113000D03*
X0116840Y0013000D03*
D11*
X0073706Y0059492D03*
X0068706Y0059492D03*
X0063706Y0059492D03*
X0058706Y0059492D03*
X0053706Y0059492D03*
X0048706Y0059492D03*
X0043706Y0059492D03*
X0038706Y0059492D03*
X0033706Y0059492D03*
X0033706Y0094965D03*
X0038706Y0094965D03*
X0043706Y0094965D03*
X0048706Y0094965D03*
X0053706Y0094965D03*
X0058706Y0094965D03*
X0063706Y0094965D03*
X0068706Y0094965D03*
X0073706Y0094965D03*
D12*
X0097815Y0058843D03*
X0097815Y0052150D03*
X0057423Y0048829D03*
X0050730Y0048829D03*
D13*
X0100540Y0027900D03*
X0110540Y0027900D03*
X0120540Y0027900D03*
X0120540Y0037900D03*
X0110540Y0037900D03*
D14*
X0100540Y0037900D03*
D15*
X0089340Y0041900D02*
X0083340Y0041900D01*
X0083340Y0051900D02*
X0089340Y0051900D01*
X0089340Y0061900D02*
X0083340Y0061900D01*
X0083340Y0071900D02*
X0089340Y0071900D01*
X0089340Y0081900D02*
X0083340Y0081900D01*
X0083340Y0091900D02*
X0089340Y0091900D01*
X0024340Y0091900D02*
X0018340Y0091900D01*
X0018340Y0081900D02*
X0024340Y0081900D01*
X0024340Y0071900D02*
X0018340Y0071900D01*
X0018340Y0061900D02*
X0024340Y0061900D01*
X0024340Y0051900D02*
X0018340Y0051900D01*
X0018340Y0041900D02*
X0024340Y0041900D01*
D16*
X0029340Y0018653D02*
X0029340Y0012747D01*
X0039340Y0012747D02*
X0039340Y0018653D01*
X0049340Y0018653D02*
X0049340Y0012747D01*
X0059340Y0012747D02*
X0059340Y0018653D01*
X0069340Y0018653D02*
X0069340Y0012747D01*
X0079340Y0012747D02*
X0079340Y0018653D01*
X0089340Y0018653D02*
X0089340Y0012747D01*
X0099340Y0012747D02*
X0099340Y0018653D01*
X0099340Y0107247D02*
X0099340Y0113153D01*
X0089340Y0113153D02*
X0089340Y0107247D01*
X0079340Y0107247D02*
X0079340Y0113153D01*
X0069340Y0113153D02*
X0069340Y0107247D01*
X0059340Y0107247D02*
X0059340Y0113153D01*
X0049340Y0113153D02*
X0049340Y0107247D01*
X0039340Y0107247D02*
X0039340Y0113153D01*
X0029340Y0113153D02*
X0029340Y0107247D01*
D17*
X0030040Y0098000D03*
X0032840Y0087500D03*
X0028640Y0076300D03*
X0040540Y0068600D03*
X0043340Y0065800D03*
X0052440Y0065800D03*
X0062240Y0065800D03*
X0059440Y0076300D03*
X0055940Y0076300D03*
X0071340Y0088900D03*
X0076940Y0096600D03*
X0086740Y0100100D03*
X0093740Y0101500D03*
X0086740Y0117600D03*
X0099340Y0079100D03*
X0100740Y0068600D03*
X0104940Y0056000D03*
X0097240Y0047600D03*
X0076940Y0039200D03*
X0074140Y0037100D03*
X0066440Y0048300D03*
X0063640Y0053200D03*
X0055340Y0044000D03*
X0050340Y0044800D03*
X0042640Y0045500D03*
X0043340Y0053200D03*
X0032840Y0046900D03*
X0028040Y0037900D03*
X0037040Y0024500D03*
X0046140Y0032200D03*
X0076940Y0058800D03*
X0076940Y0062300D03*
X0043340Y0101500D03*
X0013240Y0036400D03*
M02*
