%
M48
M72
T01C0.0130
T02C0.0300
T03C0.0394
T04C0.0400
T05C0.1100
%
T01
X1324Y3640
X2804Y3790
X3284Y4690
X4264Y4550
X5034Y4480
X5534Y4400
X6364Y5320
X6644Y4830
X7694Y3920
X7414Y3710
X7694Y5880
X7694Y6230
X6224Y6580
X5244Y6580
X4334Y6580
X4054Y6860
X2864Y7630
X3284Y8750
X3004Y9800
X4334Y10150
X5594Y7630
X5944Y7630
X7134Y8890
X7694Y9660
X8674Y10010
X9374Y10150
X8674Y11760
X9934Y7910
X10074Y6860
X10494Y5600
X9724Y4760
X4614Y3220
X3704Y2450
X4334Y5320
T02
X10054Y3790
X11054Y3790
X12054Y3790
X12054Y2790
X11054Y2790
X10054Y2790
T03
X9934Y1570
X8934Y1570
X7934Y1570
X6934Y1570
X5934Y1570
X4934Y1570
X3934Y1570
X2934Y1570
X2934Y11020
X3934Y11020
X4934Y11020
X5934Y11020
X6934Y11020
X7934Y11020
X8934Y11020
X9934Y11020
T04
X8634Y9190
X8634Y8190
X8634Y7190
X8634Y6190
X8634Y5190
X8634Y4190
X2134Y4190
X2134Y5190
X2134Y6190
X2134Y7190
X2134Y8190
X2134Y9190
T05
X1184Y1300
X1184Y11300
X11684Y11300
X11684Y1300
M30
