G75*
%MOIN*%
%OFA0B0*%
%FSLAX25Y25*%
%IPPOS*%
%LPD*%
%AMOC8*
5,1,8,0,0,1.08239X$1,22.5*
%
%ADD10C,0.01598*%
%ADD11OC8,0.06000*%
%ADD12R,0.06000X0.06000*%
%ADD13C,0.06000*%
%ADD14C,0.05906*%
%ADD15C,0.00800*%
%ADD16C,0.02700*%
%ADD17C,0.01200*%
D10*
X0035635Y0043154D02*
X0039943Y0043154D01*
X0039943Y0046303D02*
X0035635Y0046303D01*
X0035635Y0049453D02*
X0039943Y0049453D01*
X0039943Y0052602D02*
X0035635Y0052602D01*
X0035635Y0055752D02*
X0039943Y0055752D01*
X0039943Y0058902D02*
X0035635Y0058902D01*
X0035635Y0062051D02*
X0039943Y0062051D01*
X0039943Y0065201D02*
X0035635Y0065201D01*
X0043497Y0068755D02*
X0043497Y0073063D01*
X0046647Y0073063D02*
X0046647Y0068755D01*
X0049797Y0068755D02*
X0049797Y0073063D01*
X0052946Y0073063D02*
X0052946Y0068755D01*
X0056096Y0068755D02*
X0056096Y0073063D01*
X0059245Y0073063D02*
X0059245Y0068755D01*
X0062395Y0068755D02*
X0062395Y0073063D01*
X0065545Y0073063D02*
X0065545Y0068755D01*
X0069099Y0065201D02*
X0073407Y0065201D01*
X0073407Y0062051D02*
X0069099Y0062051D01*
X0069099Y0058902D02*
X0073407Y0058902D01*
X0073407Y0055752D02*
X0069099Y0055752D01*
X0069099Y0052602D02*
X0073407Y0052602D01*
X0073407Y0049453D02*
X0069099Y0049453D01*
X0069099Y0046303D02*
X0073407Y0046303D01*
X0073407Y0043154D02*
X0069099Y0043154D01*
X0065545Y0039599D02*
X0065545Y0035291D01*
X0062395Y0035291D02*
X0062395Y0039599D01*
X0059245Y0039599D02*
X0059245Y0035291D01*
X0056096Y0035291D02*
X0056096Y0039599D01*
X0052946Y0039599D02*
X0052946Y0035291D01*
X0049797Y0035291D02*
X0049797Y0039599D01*
X0046647Y0039599D02*
X0046647Y0035291D01*
X0043497Y0035291D02*
X0043497Y0039599D01*
D11*
X0100540Y0027900D03*
X0110540Y0027900D03*
X0120540Y0027900D03*
X0120540Y0037900D03*
X0110540Y0037900D03*
D12*
X0100540Y0037900D03*
D13*
X0089340Y0041900D02*
X0083340Y0041900D01*
X0083340Y0051900D02*
X0089340Y0051900D01*
X0089340Y0061900D02*
X0083340Y0061900D01*
X0083340Y0071900D02*
X0089340Y0071900D01*
X0089340Y0081900D02*
X0083340Y0081900D01*
X0083340Y0091900D02*
X0089340Y0091900D01*
X0024340Y0091900D02*
X0018340Y0091900D01*
X0018340Y0081900D02*
X0024340Y0081900D01*
X0024340Y0071900D02*
X0018340Y0071900D01*
X0018340Y0061900D02*
X0024340Y0061900D01*
X0024340Y0051900D02*
X0018340Y0051900D01*
X0018340Y0041900D02*
X0024340Y0041900D01*
D14*
X0029340Y0018653D02*
X0029340Y0012747D01*
X0039340Y0012747D02*
X0039340Y0018653D01*
X0049340Y0018653D02*
X0049340Y0012747D01*
X0059340Y0012747D02*
X0059340Y0018653D01*
X0069340Y0018653D02*
X0069340Y0012747D01*
X0079340Y0012747D02*
X0079340Y0018653D01*
X0089340Y0018653D02*
X0089340Y0012747D01*
X0099340Y0012747D02*
X0099340Y0018653D01*
X0099340Y0107247D02*
X0099340Y0113153D01*
X0089340Y0113153D02*
X0089340Y0107247D01*
X0079340Y0107247D02*
X0079340Y0113153D01*
X0069340Y0113153D02*
X0069340Y0107247D01*
X0059340Y0107247D02*
X0059340Y0113153D01*
X0049340Y0113153D02*
X0049340Y0107247D01*
X0039340Y0107247D02*
X0039340Y0113153D01*
X0029340Y0113153D02*
X0029340Y0107247D01*
D15*
X0020240Y0100800D02*
X0038940Y0100800D01*
X0044740Y0107100D01*
X0044740Y0114800D01*
X0047540Y0117600D01*
X0081840Y0117600D01*
X0088490Y0110950D01*
X0088440Y0110900D01*
X0089140Y0110200D01*
X0089340Y0110200D01*
X0088840Y0110600D02*
X0088490Y0110950D01*
X0093740Y0114800D02*
X0090940Y0117600D01*
X0086740Y0117600D01*
X0093740Y0114800D02*
X0093740Y0101500D01*
X0087440Y0102900D02*
X0066440Y0102900D01*
X0059790Y0109550D01*
X0059740Y0109500D01*
X0059740Y0110200D01*
X0059340Y0110200D01*
X0059440Y0109900D02*
X0059790Y0109550D01*
X0043340Y0101500D02*
X0085340Y0101500D01*
X0086740Y0100100D01*
X0087440Y0102900D02*
X0102140Y0088200D01*
X0102140Y0078400D01*
X0097940Y0074200D01*
X0097940Y0055000D01*
X0104940Y0048000D01*
X0104940Y0034300D01*
X0104240Y0033600D01*
X0097240Y0033600D01*
X0096540Y0034300D01*
X0096540Y0042000D01*
X0092540Y0046000D01*
X0080840Y0046000D01*
X0074340Y0052500D01*
X0071340Y0052500D01*
X0071253Y0052602D01*
X0071340Y0055300D02*
X0071253Y0055752D01*
X0070640Y0055300D01*
X0069240Y0055300D01*
X0062240Y0048300D01*
X0049640Y0048300D01*
X0042640Y0041300D01*
X0034940Y0041300D01*
X0024440Y0051800D01*
X0020940Y0051800D01*
X0021340Y0051900D01*
X0013240Y0049000D02*
X0021340Y0041900D01*
X0028040Y0037900D02*
X0043440Y0037900D01*
X0043497Y0037445D01*
X0046647Y0037445D02*
X0046840Y0037800D01*
X0046840Y0039200D01*
X0050340Y0042700D01*
X0050340Y0044800D01*
X0049640Y0049700D02*
X0038440Y0049700D01*
X0037789Y0049453D01*
X0037740Y0049700D01*
X0032840Y0049700D01*
X0020940Y0061600D01*
X0021340Y0061900D01*
X0025240Y0066600D02*
X0016140Y0066600D01*
X0013240Y0063700D01*
X0013240Y0049000D01*
X0011840Y0041300D02*
X0020940Y0032200D01*
X0046140Y0032200D01*
X0044740Y0027300D02*
X0036340Y0027300D01*
X0029340Y0020300D01*
X0029340Y0016400D01*
X0029640Y0016400D01*
X0029640Y0015700D01*
X0029340Y0015700D01*
X0029340Y0016100D02*
X0029340Y0016400D01*
X0037040Y0024500D02*
X0051040Y0024500D01*
X0062240Y0035700D01*
X0062240Y0037100D01*
X0062395Y0037445D01*
X0059440Y0037800D02*
X0059440Y0039200D01*
X0062240Y0042000D01*
X0065740Y0042000D01*
X0079040Y0028700D01*
X0079040Y0016400D01*
X0079340Y0016400D01*
X0079340Y0015700D01*
X0079040Y0016100D02*
X0079040Y0016400D01*
X0065040Y0021700D02*
X0059740Y0016400D01*
X0059740Y0015700D01*
X0059340Y0015700D01*
X0059440Y0016100D02*
X0059740Y0016400D01*
X0065040Y0021700D02*
X0065040Y0037100D01*
X0065545Y0037445D01*
X0059440Y0037800D02*
X0059245Y0037445D01*
X0056096Y0037445D02*
X0055340Y0039000D01*
X0055340Y0044000D01*
X0052946Y0037445D02*
X0052440Y0037100D01*
X0052440Y0035000D01*
X0044740Y0027300D01*
X0040540Y0043400D02*
X0038440Y0043400D01*
X0037789Y0043154D01*
X0040540Y0043400D02*
X0042640Y0045500D01*
X0037789Y0046303D02*
X0037740Y0046900D01*
X0032840Y0046900D01*
X0043340Y0053200D02*
X0043340Y0055300D01*
X0039840Y0058800D01*
X0038440Y0058800D01*
X0037789Y0058902D01*
X0037789Y0062051D02*
X0038440Y0062300D01*
X0039840Y0062300D01*
X0043340Y0065800D01*
X0040540Y0067900D02*
X0040540Y0068600D01*
X0040540Y0067900D02*
X0038440Y0065800D01*
X0037789Y0065201D01*
X0033640Y0075000D02*
X0025240Y0066600D01*
X0033640Y0075000D02*
X0051140Y0075000D01*
X0051040Y0074900D01*
X0052440Y0073500D01*
X0052440Y0071400D01*
X0052946Y0070909D01*
X0055940Y0070700D02*
X0055940Y0068600D01*
X0053140Y0065800D01*
X0052440Y0065800D01*
X0055940Y0070700D02*
X0056096Y0070909D01*
X0055940Y0071400D01*
X0055940Y0072800D01*
X0049640Y0079100D01*
X0049740Y0079200D01*
X0027340Y0079200D01*
X0025940Y0077800D01*
X0025240Y0077800D01*
X0025140Y0077700D01*
X0015340Y0077700D01*
X0013240Y0079800D01*
X0013240Y0084700D01*
X0020240Y0091700D01*
X0021340Y0091900D01*
X0030040Y0098000D02*
X0031440Y0096600D01*
X0076940Y0096600D01*
X0071340Y0088900D02*
X0069940Y0087500D01*
X0032840Y0087500D01*
X0028640Y0076300D02*
X0016040Y0076300D01*
X0011840Y0072100D01*
X0011840Y0041300D01*
X0010440Y0040600D02*
X0010440Y0091000D01*
X0020240Y0100800D01*
X0055940Y0076300D02*
X0058740Y0079100D01*
X0079740Y0079100D01*
X0086740Y0072100D01*
X0086340Y0071900D01*
X0087440Y0071400D01*
X0094440Y0064400D01*
X0094440Y0055400D01*
X0100040Y0049800D01*
X0100040Y0038500D01*
X0100540Y0037900D01*
X0096540Y0032200D02*
X0087440Y0041300D01*
X0086340Y0041900D01*
X0091640Y0047600D02*
X0086340Y0051900D01*
X0083940Y0055300D01*
X0071340Y0055300D01*
X0071340Y0058800D02*
X0071253Y0058902D01*
X0071340Y0058800D02*
X0076940Y0058800D01*
X0076940Y0062300D02*
X0071340Y0062300D01*
X0071253Y0062051D01*
X0070640Y0065100D02*
X0069240Y0065100D01*
X0063640Y0059500D01*
X0063640Y0053200D01*
X0066440Y0048300D02*
X0067840Y0046900D01*
X0070640Y0046900D01*
X0071253Y0046303D01*
X0071340Y0049000D02*
X0071253Y0049453D01*
X0071340Y0049000D02*
X0073440Y0049000D01*
X0076940Y0045500D01*
X0076940Y0039200D01*
X0074140Y0037100D02*
X0071340Y0039900D01*
X0071340Y0042700D01*
X0071253Y0043154D01*
X0080440Y0062300D02*
X0086740Y0062300D01*
X0086340Y0061900D01*
X0080540Y0062400D01*
X0075640Y0067300D01*
X0075540Y0067200D01*
X0067140Y0067200D01*
X0049640Y0049700D01*
X0062240Y0065800D02*
X0065040Y0068600D01*
X0065040Y0070700D01*
X0065545Y0070909D01*
X0062395Y0070909D02*
X0062240Y0071400D01*
X0062240Y0073500D01*
X0059440Y0076300D01*
X0070640Y0065100D02*
X0071253Y0065201D01*
X0091640Y0047600D02*
X0097240Y0047600D01*
X0104940Y0054600D02*
X0121040Y0038500D01*
X0120540Y0037900D01*
X0111940Y0032200D02*
X0096540Y0032200D01*
X0110140Y0038100D02*
X0110540Y0037900D01*
X0110140Y0038100D02*
X0110140Y0047200D01*
X0101040Y0056300D01*
X0101040Y0068200D01*
X0100740Y0068600D01*
X0099340Y0079100D02*
X0086740Y0091700D01*
X0086340Y0091900D01*
X0104940Y0056000D02*
X0104940Y0054600D01*
X0111940Y0032200D02*
X0116140Y0028000D01*
X0120340Y0028000D01*
X0120540Y0027900D01*
X0013240Y0036400D02*
X0013240Y0037800D01*
X0010440Y0040600D01*
D16*
X0013240Y0036400D03*
X0028040Y0037900D03*
X0032840Y0046900D03*
X0042640Y0045500D03*
X0050340Y0044800D03*
X0055340Y0044000D03*
X0063640Y0053200D03*
X0066440Y0048300D03*
X0076940Y0039200D03*
X0074140Y0037100D03*
X0076940Y0058800D03*
X0076940Y0062300D03*
X0062240Y0065800D03*
X0052440Y0065800D03*
X0043340Y0065800D03*
X0040540Y0068600D03*
X0028640Y0076300D03*
X0032840Y0087500D03*
X0030040Y0098000D03*
X0043340Y0101500D03*
X0055940Y0076300D03*
X0059440Y0076300D03*
X0071340Y0088900D03*
X0076940Y0096600D03*
X0086740Y0100100D03*
X0093740Y0101500D03*
X0086740Y0117600D03*
X0099340Y0079100D03*
X0100740Y0068600D03*
X0104940Y0056000D03*
X0097240Y0047600D03*
X0046140Y0032200D03*
X0037040Y0024500D03*
X0043340Y0053200D03*
D17*
X0021340Y0081900D02*
X0086340Y0081900D01*
X0086340Y0091900D02*
X0021340Y0091900D01*
M02*
