G75*
%MOIN*%
%OFA0B0*%
%FSLAX25Y25*%
%IPPOS*%
%LPD*%
%AMOC8*
5,1,8,0,0,1.08239X$1,22.5*
%
%ADD10C,0.11600*%
%ADD11C,0.02198*%
%ADD12OC8,0.06600*%
%ADD13R,0.06600X0.06600*%
%ADD14C,0.06600*%
%ADD15C,0.06506*%
%ADD16C,0.03300*%
D10*
X0011840Y0013000D03*
X0011840Y0113000D03*
X0116840Y0113000D03*
X0116840Y0013000D03*
D11*
X0073407Y0043154D02*
X0069099Y0043154D01*
X0069099Y0046303D02*
X0073407Y0046303D01*
X0073407Y0049453D02*
X0069099Y0049453D01*
X0069099Y0052602D02*
X0073407Y0052602D01*
X0073407Y0055752D02*
X0069099Y0055752D01*
X0069099Y0058902D02*
X0073407Y0058902D01*
X0073407Y0062051D02*
X0069099Y0062051D01*
X0069099Y0065201D02*
X0073407Y0065201D01*
X0065545Y0068755D02*
X0065545Y0073063D01*
X0062395Y0073063D02*
X0062395Y0068755D01*
X0059245Y0068755D02*
X0059245Y0073063D01*
X0056096Y0073063D02*
X0056096Y0068755D01*
X0052946Y0068755D02*
X0052946Y0073063D01*
X0049797Y0073063D02*
X0049797Y0068755D01*
X0046647Y0068755D02*
X0046647Y0073063D01*
X0043497Y0073063D02*
X0043497Y0068755D01*
X0039943Y0065201D02*
X0035635Y0065201D01*
X0035635Y0062051D02*
X0039943Y0062051D01*
X0039943Y0058902D02*
X0035635Y0058902D01*
X0035635Y0055752D02*
X0039943Y0055752D01*
X0039943Y0052602D02*
X0035635Y0052602D01*
X0035635Y0049453D02*
X0039943Y0049453D01*
X0039943Y0046303D02*
X0035635Y0046303D01*
X0035635Y0043154D02*
X0039943Y0043154D01*
X0043497Y0039599D02*
X0043497Y0035291D01*
X0046647Y0035291D02*
X0046647Y0039599D01*
X0049797Y0039599D02*
X0049797Y0035291D01*
X0052946Y0035291D02*
X0052946Y0039599D01*
X0056096Y0039599D02*
X0056096Y0035291D01*
X0059245Y0035291D02*
X0059245Y0039599D01*
X0062395Y0039599D02*
X0062395Y0035291D01*
X0065545Y0035291D02*
X0065545Y0039599D01*
D12*
X0100540Y0027900D03*
X0110540Y0027900D03*
X0120540Y0027900D03*
X0120540Y0037900D03*
X0110540Y0037900D03*
D13*
X0100540Y0037900D03*
D14*
X0089340Y0041900D02*
X0083340Y0041900D01*
X0083340Y0051900D02*
X0089340Y0051900D01*
X0089340Y0061900D02*
X0083340Y0061900D01*
X0083340Y0071900D02*
X0089340Y0071900D01*
X0089340Y0081900D02*
X0083340Y0081900D01*
X0083340Y0091900D02*
X0089340Y0091900D01*
X0024340Y0091900D02*
X0018340Y0091900D01*
X0018340Y0081900D02*
X0024340Y0081900D01*
X0024340Y0071900D02*
X0018340Y0071900D01*
X0018340Y0061900D02*
X0024340Y0061900D01*
X0024340Y0051900D02*
X0018340Y0051900D01*
X0018340Y0041900D02*
X0024340Y0041900D01*
D15*
X0029340Y0018653D02*
X0029340Y0012747D01*
X0039340Y0012747D02*
X0039340Y0018653D01*
X0049340Y0018653D02*
X0049340Y0012747D01*
X0059340Y0012747D02*
X0059340Y0018653D01*
X0069340Y0018653D02*
X0069340Y0012747D01*
X0079340Y0012747D02*
X0079340Y0018653D01*
X0089340Y0018653D02*
X0089340Y0012747D01*
X0099340Y0012747D02*
X0099340Y0018653D01*
X0099340Y0107247D02*
X0099340Y0113153D01*
X0089340Y0113153D02*
X0089340Y0107247D01*
X0079340Y0107247D02*
X0079340Y0113153D01*
X0069340Y0113153D02*
X0069340Y0107247D01*
X0059340Y0107247D02*
X0059340Y0113153D01*
X0049340Y0113153D02*
X0049340Y0107247D01*
X0039340Y0107247D02*
X0039340Y0113153D01*
X0029340Y0113153D02*
X0029340Y0107247D01*
D16*
X0030040Y0098000D03*
X0032840Y0087500D03*
X0028640Y0076300D03*
X0040540Y0068600D03*
X0043340Y0065800D03*
X0052440Y0065800D03*
X0062240Y0065800D03*
X0059440Y0076300D03*
X0055940Y0076300D03*
X0071340Y0088900D03*
X0076940Y0096600D03*
X0086740Y0100100D03*
X0093740Y0101500D03*
X0086740Y0117600D03*
X0099340Y0079100D03*
X0100740Y0068600D03*
X0104940Y0056000D03*
X0097240Y0047600D03*
X0076940Y0039200D03*
X0074140Y0037100D03*
X0066440Y0048300D03*
X0063640Y0053200D03*
X0055340Y0044000D03*
X0050340Y0044800D03*
X0042640Y0045500D03*
X0043340Y0053200D03*
X0032840Y0046900D03*
X0028040Y0037900D03*
X0037040Y0024500D03*
X0046140Y0032200D03*
X0076940Y0058800D03*
X0076940Y0062300D03*
X0043340Y0101500D03*
X0013240Y0036400D03*
M02*
