G75*
%MOIN*%
%OFA0B0*%
%FSLAX25Y25*%
%IPPOS*%
%LPD*%
%AMOC8*
5,1,8,0,0,1.08239X$1,22.5*
%
%ADD10C,0.00000*%
%ADD11C,0.00100*%
D10*
X0006340Y0013000D02*
X0006342Y0013148D01*
X0006348Y0013296D01*
X0006358Y0013444D01*
X0006372Y0013592D01*
X0006390Y0013739D01*
X0006412Y0013886D01*
X0006438Y0014032D01*
X0006467Y0014177D01*
X0006501Y0014322D01*
X0006539Y0014465D01*
X0006580Y0014608D01*
X0006625Y0014749D01*
X0006675Y0014889D01*
X0006727Y0015027D01*
X0006784Y0015165D01*
X0006844Y0015300D01*
X0006908Y0015434D01*
X0006975Y0015566D01*
X0007046Y0015696D01*
X0007121Y0015825D01*
X0007199Y0015951D01*
X0007280Y0016075D01*
X0007364Y0016197D01*
X0007452Y0016316D01*
X0007543Y0016433D01*
X0007637Y0016548D01*
X0007735Y0016660D01*
X0007835Y0016769D01*
X0007938Y0016876D01*
X0008044Y0016980D01*
X0008152Y0017081D01*
X0008264Y0017179D01*
X0008378Y0017274D01*
X0008494Y0017365D01*
X0008613Y0017454D01*
X0008734Y0017539D01*
X0008858Y0017621D01*
X0008984Y0017700D01*
X0009111Y0017775D01*
X0009241Y0017847D01*
X0009373Y0017916D01*
X0009506Y0017980D01*
X0009641Y0018041D01*
X0009778Y0018099D01*
X0009916Y0018153D01*
X0010056Y0018203D01*
X0010197Y0018249D01*
X0010339Y0018291D01*
X0010482Y0018330D01*
X0010626Y0018364D01*
X0010772Y0018395D01*
X0010917Y0018422D01*
X0011064Y0018445D01*
X0011211Y0018464D01*
X0011359Y0018479D01*
X0011506Y0018490D01*
X0011655Y0018497D01*
X0011803Y0018500D01*
X0011951Y0018499D01*
X0012099Y0018494D01*
X0012247Y0018485D01*
X0012395Y0018472D01*
X0012543Y0018455D01*
X0012689Y0018434D01*
X0012836Y0018409D01*
X0012981Y0018380D01*
X0013126Y0018348D01*
X0013269Y0018311D01*
X0013412Y0018271D01*
X0013554Y0018226D01*
X0013694Y0018178D01*
X0013833Y0018126D01*
X0013970Y0018071D01*
X0014106Y0018011D01*
X0014241Y0017948D01*
X0014373Y0017882D01*
X0014504Y0017812D01*
X0014633Y0017738D01*
X0014759Y0017661D01*
X0014884Y0017581D01*
X0015006Y0017497D01*
X0015127Y0017410D01*
X0015244Y0017320D01*
X0015360Y0017226D01*
X0015472Y0017130D01*
X0015582Y0017031D01*
X0015690Y0016928D01*
X0015794Y0016823D01*
X0015896Y0016715D01*
X0015994Y0016604D01*
X0016090Y0016491D01*
X0016183Y0016375D01*
X0016272Y0016257D01*
X0016358Y0016136D01*
X0016441Y0016013D01*
X0016521Y0015888D01*
X0016597Y0015761D01*
X0016670Y0015631D01*
X0016739Y0015500D01*
X0016804Y0015367D01*
X0016867Y0015233D01*
X0016925Y0015096D01*
X0016980Y0014958D01*
X0017030Y0014819D01*
X0017078Y0014678D01*
X0017121Y0014537D01*
X0017161Y0014394D01*
X0017196Y0014250D01*
X0017228Y0014105D01*
X0017256Y0013959D01*
X0017280Y0013813D01*
X0017300Y0013666D01*
X0017316Y0013518D01*
X0017328Y0013371D01*
X0017336Y0013222D01*
X0017340Y0013074D01*
X0017340Y0012926D01*
X0017336Y0012778D01*
X0017328Y0012629D01*
X0017316Y0012482D01*
X0017300Y0012334D01*
X0017280Y0012187D01*
X0017256Y0012041D01*
X0017228Y0011895D01*
X0017196Y0011750D01*
X0017161Y0011606D01*
X0017121Y0011463D01*
X0017078Y0011322D01*
X0017030Y0011181D01*
X0016980Y0011042D01*
X0016925Y0010904D01*
X0016867Y0010767D01*
X0016804Y0010633D01*
X0016739Y0010500D01*
X0016670Y0010369D01*
X0016597Y0010239D01*
X0016521Y0010112D01*
X0016441Y0009987D01*
X0016358Y0009864D01*
X0016272Y0009743D01*
X0016183Y0009625D01*
X0016090Y0009509D01*
X0015994Y0009396D01*
X0015896Y0009285D01*
X0015794Y0009177D01*
X0015690Y0009072D01*
X0015582Y0008969D01*
X0015472Y0008870D01*
X0015360Y0008774D01*
X0015244Y0008680D01*
X0015127Y0008590D01*
X0015006Y0008503D01*
X0014884Y0008419D01*
X0014759Y0008339D01*
X0014633Y0008262D01*
X0014504Y0008188D01*
X0014373Y0008118D01*
X0014241Y0008052D01*
X0014106Y0007989D01*
X0013970Y0007929D01*
X0013833Y0007874D01*
X0013694Y0007822D01*
X0013554Y0007774D01*
X0013412Y0007729D01*
X0013269Y0007689D01*
X0013126Y0007652D01*
X0012981Y0007620D01*
X0012836Y0007591D01*
X0012689Y0007566D01*
X0012543Y0007545D01*
X0012395Y0007528D01*
X0012247Y0007515D01*
X0012099Y0007506D01*
X0011951Y0007501D01*
X0011803Y0007500D01*
X0011655Y0007503D01*
X0011506Y0007510D01*
X0011359Y0007521D01*
X0011211Y0007536D01*
X0011064Y0007555D01*
X0010917Y0007578D01*
X0010772Y0007605D01*
X0010626Y0007636D01*
X0010482Y0007670D01*
X0010339Y0007709D01*
X0010197Y0007751D01*
X0010056Y0007797D01*
X0009916Y0007847D01*
X0009778Y0007901D01*
X0009641Y0007959D01*
X0009506Y0008020D01*
X0009373Y0008084D01*
X0009241Y0008153D01*
X0009111Y0008225D01*
X0008984Y0008300D01*
X0008858Y0008379D01*
X0008734Y0008461D01*
X0008613Y0008546D01*
X0008494Y0008635D01*
X0008378Y0008726D01*
X0008264Y0008821D01*
X0008152Y0008919D01*
X0008044Y0009020D01*
X0007938Y0009124D01*
X0007835Y0009231D01*
X0007735Y0009340D01*
X0007637Y0009452D01*
X0007543Y0009567D01*
X0007452Y0009684D01*
X0007364Y0009803D01*
X0007280Y0009925D01*
X0007199Y0010049D01*
X0007121Y0010175D01*
X0007046Y0010304D01*
X0006975Y0010434D01*
X0006908Y0010566D01*
X0006844Y0010700D01*
X0006784Y0010835D01*
X0006727Y0010973D01*
X0006675Y0011111D01*
X0006625Y0011251D01*
X0006580Y0011392D01*
X0006539Y0011535D01*
X0006501Y0011678D01*
X0006467Y0011823D01*
X0006438Y0011968D01*
X0006412Y0012114D01*
X0006390Y0012261D01*
X0006372Y0012408D01*
X0006358Y0012556D01*
X0006348Y0012704D01*
X0006342Y0012852D01*
X0006340Y0013000D01*
X0006340Y0113000D02*
X0006342Y0113148D01*
X0006348Y0113296D01*
X0006358Y0113444D01*
X0006372Y0113592D01*
X0006390Y0113739D01*
X0006412Y0113886D01*
X0006438Y0114032D01*
X0006467Y0114177D01*
X0006501Y0114322D01*
X0006539Y0114465D01*
X0006580Y0114608D01*
X0006625Y0114749D01*
X0006675Y0114889D01*
X0006727Y0115027D01*
X0006784Y0115165D01*
X0006844Y0115300D01*
X0006908Y0115434D01*
X0006975Y0115566D01*
X0007046Y0115696D01*
X0007121Y0115825D01*
X0007199Y0115951D01*
X0007280Y0116075D01*
X0007364Y0116197D01*
X0007452Y0116316D01*
X0007543Y0116433D01*
X0007637Y0116548D01*
X0007735Y0116660D01*
X0007835Y0116769D01*
X0007938Y0116876D01*
X0008044Y0116980D01*
X0008152Y0117081D01*
X0008264Y0117179D01*
X0008378Y0117274D01*
X0008494Y0117365D01*
X0008613Y0117454D01*
X0008734Y0117539D01*
X0008858Y0117621D01*
X0008984Y0117700D01*
X0009111Y0117775D01*
X0009241Y0117847D01*
X0009373Y0117916D01*
X0009506Y0117980D01*
X0009641Y0118041D01*
X0009778Y0118099D01*
X0009916Y0118153D01*
X0010056Y0118203D01*
X0010197Y0118249D01*
X0010339Y0118291D01*
X0010482Y0118330D01*
X0010626Y0118364D01*
X0010772Y0118395D01*
X0010917Y0118422D01*
X0011064Y0118445D01*
X0011211Y0118464D01*
X0011359Y0118479D01*
X0011506Y0118490D01*
X0011655Y0118497D01*
X0011803Y0118500D01*
X0011951Y0118499D01*
X0012099Y0118494D01*
X0012247Y0118485D01*
X0012395Y0118472D01*
X0012543Y0118455D01*
X0012689Y0118434D01*
X0012836Y0118409D01*
X0012981Y0118380D01*
X0013126Y0118348D01*
X0013269Y0118311D01*
X0013412Y0118271D01*
X0013554Y0118226D01*
X0013694Y0118178D01*
X0013833Y0118126D01*
X0013970Y0118071D01*
X0014106Y0118011D01*
X0014241Y0117948D01*
X0014373Y0117882D01*
X0014504Y0117812D01*
X0014633Y0117738D01*
X0014759Y0117661D01*
X0014884Y0117581D01*
X0015006Y0117497D01*
X0015127Y0117410D01*
X0015244Y0117320D01*
X0015360Y0117226D01*
X0015472Y0117130D01*
X0015582Y0117031D01*
X0015690Y0116928D01*
X0015794Y0116823D01*
X0015896Y0116715D01*
X0015994Y0116604D01*
X0016090Y0116491D01*
X0016183Y0116375D01*
X0016272Y0116257D01*
X0016358Y0116136D01*
X0016441Y0116013D01*
X0016521Y0115888D01*
X0016597Y0115761D01*
X0016670Y0115631D01*
X0016739Y0115500D01*
X0016804Y0115367D01*
X0016867Y0115233D01*
X0016925Y0115096D01*
X0016980Y0114958D01*
X0017030Y0114819D01*
X0017078Y0114678D01*
X0017121Y0114537D01*
X0017161Y0114394D01*
X0017196Y0114250D01*
X0017228Y0114105D01*
X0017256Y0113959D01*
X0017280Y0113813D01*
X0017300Y0113666D01*
X0017316Y0113518D01*
X0017328Y0113371D01*
X0017336Y0113222D01*
X0017340Y0113074D01*
X0017340Y0112926D01*
X0017336Y0112778D01*
X0017328Y0112629D01*
X0017316Y0112482D01*
X0017300Y0112334D01*
X0017280Y0112187D01*
X0017256Y0112041D01*
X0017228Y0111895D01*
X0017196Y0111750D01*
X0017161Y0111606D01*
X0017121Y0111463D01*
X0017078Y0111322D01*
X0017030Y0111181D01*
X0016980Y0111042D01*
X0016925Y0110904D01*
X0016867Y0110767D01*
X0016804Y0110633D01*
X0016739Y0110500D01*
X0016670Y0110369D01*
X0016597Y0110239D01*
X0016521Y0110112D01*
X0016441Y0109987D01*
X0016358Y0109864D01*
X0016272Y0109743D01*
X0016183Y0109625D01*
X0016090Y0109509D01*
X0015994Y0109396D01*
X0015896Y0109285D01*
X0015794Y0109177D01*
X0015690Y0109072D01*
X0015582Y0108969D01*
X0015472Y0108870D01*
X0015360Y0108774D01*
X0015244Y0108680D01*
X0015127Y0108590D01*
X0015006Y0108503D01*
X0014884Y0108419D01*
X0014759Y0108339D01*
X0014633Y0108262D01*
X0014504Y0108188D01*
X0014373Y0108118D01*
X0014241Y0108052D01*
X0014106Y0107989D01*
X0013970Y0107929D01*
X0013833Y0107874D01*
X0013694Y0107822D01*
X0013554Y0107774D01*
X0013412Y0107729D01*
X0013269Y0107689D01*
X0013126Y0107652D01*
X0012981Y0107620D01*
X0012836Y0107591D01*
X0012689Y0107566D01*
X0012543Y0107545D01*
X0012395Y0107528D01*
X0012247Y0107515D01*
X0012099Y0107506D01*
X0011951Y0107501D01*
X0011803Y0107500D01*
X0011655Y0107503D01*
X0011506Y0107510D01*
X0011359Y0107521D01*
X0011211Y0107536D01*
X0011064Y0107555D01*
X0010917Y0107578D01*
X0010772Y0107605D01*
X0010626Y0107636D01*
X0010482Y0107670D01*
X0010339Y0107709D01*
X0010197Y0107751D01*
X0010056Y0107797D01*
X0009916Y0107847D01*
X0009778Y0107901D01*
X0009641Y0107959D01*
X0009506Y0108020D01*
X0009373Y0108084D01*
X0009241Y0108153D01*
X0009111Y0108225D01*
X0008984Y0108300D01*
X0008858Y0108379D01*
X0008734Y0108461D01*
X0008613Y0108546D01*
X0008494Y0108635D01*
X0008378Y0108726D01*
X0008264Y0108821D01*
X0008152Y0108919D01*
X0008044Y0109020D01*
X0007938Y0109124D01*
X0007835Y0109231D01*
X0007735Y0109340D01*
X0007637Y0109452D01*
X0007543Y0109567D01*
X0007452Y0109684D01*
X0007364Y0109803D01*
X0007280Y0109925D01*
X0007199Y0110049D01*
X0007121Y0110175D01*
X0007046Y0110304D01*
X0006975Y0110434D01*
X0006908Y0110566D01*
X0006844Y0110700D01*
X0006784Y0110835D01*
X0006727Y0110973D01*
X0006675Y0111111D01*
X0006625Y0111251D01*
X0006580Y0111392D01*
X0006539Y0111535D01*
X0006501Y0111678D01*
X0006467Y0111823D01*
X0006438Y0111968D01*
X0006412Y0112114D01*
X0006390Y0112261D01*
X0006372Y0112408D01*
X0006358Y0112556D01*
X0006348Y0112704D01*
X0006342Y0112852D01*
X0006340Y0113000D01*
X0111340Y0113000D02*
X0111342Y0113148D01*
X0111348Y0113296D01*
X0111358Y0113444D01*
X0111372Y0113592D01*
X0111390Y0113739D01*
X0111412Y0113886D01*
X0111438Y0114032D01*
X0111467Y0114177D01*
X0111501Y0114322D01*
X0111539Y0114465D01*
X0111580Y0114608D01*
X0111625Y0114749D01*
X0111675Y0114889D01*
X0111727Y0115027D01*
X0111784Y0115165D01*
X0111844Y0115300D01*
X0111908Y0115434D01*
X0111975Y0115566D01*
X0112046Y0115696D01*
X0112121Y0115825D01*
X0112199Y0115951D01*
X0112280Y0116075D01*
X0112364Y0116197D01*
X0112452Y0116316D01*
X0112543Y0116433D01*
X0112637Y0116548D01*
X0112735Y0116660D01*
X0112835Y0116769D01*
X0112938Y0116876D01*
X0113044Y0116980D01*
X0113152Y0117081D01*
X0113264Y0117179D01*
X0113378Y0117274D01*
X0113494Y0117365D01*
X0113613Y0117454D01*
X0113734Y0117539D01*
X0113858Y0117621D01*
X0113984Y0117700D01*
X0114111Y0117775D01*
X0114241Y0117847D01*
X0114373Y0117916D01*
X0114506Y0117980D01*
X0114641Y0118041D01*
X0114778Y0118099D01*
X0114916Y0118153D01*
X0115056Y0118203D01*
X0115197Y0118249D01*
X0115339Y0118291D01*
X0115482Y0118330D01*
X0115626Y0118364D01*
X0115772Y0118395D01*
X0115917Y0118422D01*
X0116064Y0118445D01*
X0116211Y0118464D01*
X0116359Y0118479D01*
X0116506Y0118490D01*
X0116655Y0118497D01*
X0116803Y0118500D01*
X0116951Y0118499D01*
X0117099Y0118494D01*
X0117247Y0118485D01*
X0117395Y0118472D01*
X0117543Y0118455D01*
X0117689Y0118434D01*
X0117836Y0118409D01*
X0117981Y0118380D01*
X0118126Y0118348D01*
X0118269Y0118311D01*
X0118412Y0118271D01*
X0118554Y0118226D01*
X0118694Y0118178D01*
X0118833Y0118126D01*
X0118970Y0118071D01*
X0119106Y0118011D01*
X0119241Y0117948D01*
X0119373Y0117882D01*
X0119504Y0117812D01*
X0119633Y0117738D01*
X0119759Y0117661D01*
X0119884Y0117581D01*
X0120006Y0117497D01*
X0120127Y0117410D01*
X0120244Y0117320D01*
X0120360Y0117226D01*
X0120472Y0117130D01*
X0120582Y0117031D01*
X0120690Y0116928D01*
X0120794Y0116823D01*
X0120896Y0116715D01*
X0120994Y0116604D01*
X0121090Y0116491D01*
X0121183Y0116375D01*
X0121272Y0116257D01*
X0121358Y0116136D01*
X0121441Y0116013D01*
X0121521Y0115888D01*
X0121597Y0115761D01*
X0121670Y0115631D01*
X0121739Y0115500D01*
X0121804Y0115367D01*
X0121867Y0115233D01*
X0121925Y0115096D01*
X0121980Y0114958D01*
X0122030Y0114819D01*
X0122078Y0114678D01*
X0122121Y0114537D01*
X0122161Y0114394D01*
X0122196Y0114250D01*
X0122228Y0114105D01*
X0122256Y0113959D01*
X0122280Y0113813D01*
X0122300Y0113666D01*
X0122316Y0113518D01*
X0122328Y0113371D01*
X0122336Y0113222D01*
X0122340Y0113074D01*
X0122340Y0112926D01*
X0122336Y0112778D01*
X0122328Y0112629D01*
X0122316Y0112482D01*
X0122300Y0112334D01*
X0122280Y0112187D01*
X0122256Y0112041D01*
X0122228Y0111895D01*
X0122196Y0111750D01*
X0122161Y0111606D01*
X0122121Y0111463D01*
X0122078Y0111322D01*
X0122030Y0111181D01*
X0121980Y0111042D01*
X0121925Y0110904D01*
X0121867Y0110767D01*
X0121804Y0110633D01*
X0121739Y0110500D01*
X0121670Y0110369D01*
X0121597Y0110239D01*
X0121521Y0110112D01*
X0121441Y0109987D01*
X0121358Y0109864D01*
X0121272Y0109743D01*
X0121183Y0109625D01*
X0121090Y0109509D01*
X0120994Y0109396D01*
X0120896Y0109285D01*
X0120794Y0109177D01*
X0120690Y0109072D01*
X0120582Y0108969D01*
X0120472Y0108870D01*
X0120360Y0108774D01*
X0120244Y0108680D01*
X0120127Y0108590D01*
X0120006Y0108503D01*
X0119884Y0108419D01*
X0119759Y0108339D01*
X0119633Y0108262D01*
X0119504Y0108188D01*
X0119373Y0108118D01*
X0119241Y0108052D01*
X0119106Y0107989D01*
X0118970Y0107929D01*
X0118833Y0107874D01*
X0118694Y0107822D01*
X0118554Y0107774D01*
X0118412Y0107729D01*
X0118269Y0107689D01*
X0118126Y0107652D01*
X0117981Y0107620D01*
X0117836Y0107591D01*
X0117689Y0107566D01*
X0117543Y0107545D01*
X0117395Y0107528D01*
X0117247Y0107515D01*
X0117099Y0107506D01*
X0116951Y0107501D01*
X0116803Y0107500D01*
X0116655Y0107503D01*
X0116506Y0107510D01*
X0116359Y0107521D01*
X0116211Y0107536D01*
X0116064Y0107555D01*
X0115917Y0107578D01*
X0115772Y0107605D01*
X0115626Y0107636D01*
X0115482Y0107670D01*
X0115339Y0107709D01*
X0115197Y0107751D01*
X0115056Y0107797D01*
X0114916Y0107847D01*
X0114778Y0107901D01*
X0114641Y0107959D01*
X0114506Y0108020D01*
X0114373Y0108084D01*
X0114241Y0108153D01*
X0114111Y0108225D01*
X0113984Y0108300D01*
X0113858Y0108379D01*
X0113734Y0108461D01*
X0113613Y0108546D01*
X0113494Y0108635D01*
X0113378Y0108726D01*
X0113264Y0108821D01*
X0113152Y0108919D01*
X0113044Y0109020D01*
X0112938Y0109124D01*
X0112835Y0109231D01*
X0112735Y0109340D01*
X0112637Y0109452D01*
X0112543Y0109567D01*
X0112452Y0109684D01*
X0112364Y0109803D01*
X0112280Y0109925D01*
X0112199Y0110049D01*
X0112121Y0110175D01*
X0112046Y0110304D01*
X0111975Y0110434D01*
X0111908Y0110566D01*
X0111844Y0110700D01*
X0111784Y0110835D01*
X0111727Y0110973D01*
X0111675Y0111111D01*
X0111625Y0111251D01*
X0111580Y0111392D01*
X0111539Y0111535D01*
X0111501Y0111678D01*
X0111467Y0111823D01*
X0111438Y0111968D01*
X0111412Y0112114D01*
X0111390Y0112261D01*
X0111372Y0112408D01*
X0111358Y0112556D01*
X0111348Y0112704D01*
X0111342Y0112852D01*
X0111340Y0113000D01*
X0111340Y0013000D02*
X0111342Y0013148D01*
X0111348Y0013296D01*
X0111358Y0013444D01*
X0111372Y0013592D01*
X0111390Y0013739D01*
X0111412Y0013886D01*
X0111438Y0014032D01*
X0111467Y0014177D01*
X0111501Y0014322D01*
X0111539Y0014465D01*
X0111580Y0014608D01*
X0111625Y0014749D01*
X0111675Y0014889D01*
X0111727Y0015027D01*
X0111784Y0015165D01*
X0111844Y0015300D01*
X0111908Y0015434D01*
X0111975Y0015566D01*
X0112046Y0015696D01*
X0112121Y0015825D01*
X0112199Y0015951D01*
X0112280Y0016075D01*
X0112364Y0016197D01*
X0112452Y0016316D01*
X0112543Y0016433D01*
X0112637Y0016548D01*
X0112735Y0016660D01*
X0112835Y0016769D01*
X0112938Y0016876D01*
X0113044Y0016980D01*
X0113152Y0017081D01*
X0113264Y0017179D01*
X0113378Y0017274D01*
X0113494Y0017365D01*
X0113613Y0017454D01*
X0113734Y0017539D01*
X0113858Y0017621D01*
X0113984Y0017700D01*
X0114111Y0017775D01*
X0114241Y0017847D01*
X0114373Y0017916D01*
X0114506Y0017980D01*
X0114641Y0018041D01*
X0114778Y0018099D01*
X0114916Y0018153D01*
X0115056Y0018203D01*
X0115197Y0018249D01*
X0115339Y0018291D01*
X0115482Y0018330D01*
X0115626Y0018364D01*
X0115772Y0018395D01*
X0115917Y0018422D01*
X0116064Y0018445D01*
X0116211Y0018464D01*
X0116359Y0018479D01*
X0116506Y0018490D01*
X0116655Y0018497D01*
X0116803Y0018500D01*
X0116951Y0018499D01*
X0117099Y0018494D01*
X0117247Y0018485D01*
X0117395Y0018472D01*
X0117543Y0018455D01*
X0117689Y0018434D01*
X0117836Y0018409D01*
X0117981Y0018380D01*
X0118126Y0018348D01*
X0118269Y0018311D01*
X0118412Y0018271D01*
X0118554Y0018226D01*
X0118694Y0018178D01*
X0118833Y0018126D01*
X0118970Y0018071D01*
X0119106Y0018011D01*
X0119241Y0017948D01*
X0119373Y0017882D01*
X0119504Y0017812D01*
X0119633Y0017738D01*
X0119759Y0017661D01*
X0119884Y0017581D01*
X0120006Y0017497D01*
X0120127Y0017410D01*
X0120244Y0017320D01*
X0120360Y0017226D01*
X0120472Y0017130D01*
X0120582Y0017031D01*
X0120690Y0016928D01*
X0120794Y0016823D01*
X0120896Y0016715D01*
X0120994Y0016604D01*
X0121090Y0016491D01*
X0121183Y0016375D01*
X0121272Y0016257D01*
X0121358Y0016136D01*
X0121441Y0016013D01*
X0121521Y0015888D01*
X0121597Y0015761D01*
X0121670Y0015631D01*
X0121739Y0015500D01*
X0121804Y0015367D01*
X0121867Y0015233D01*
X0121925Y0015096D01*
X0121980Y0014958D01*
X0122030Y0014819D01*
X0122078Y0014678D01*
X0122121Y0014537D01*
X0122161Y0014394D01*
X0122196Y0014250D01*
X0122228Y0014105D01*
X0122256Y0013959D01*
X0122280Y0013813D01*
X0122300Y0013666D01*
X0122316Y0013518D01*
X0122328Y0013371D01*
X0122336Y0013222D01*
X0122340Y0013074D01*
X0122340Y0012926D01*
X0122336Y0012778D01*
X0122328Y0012629D01*
X0122316Y0012482D01*
X0122300Y0012334D01*
X0122280Y0012187D01*
X0122256Y0012041D01*
X0122228Y0011895D01*
X0122196Y0011750D01*
X0122161Y0011606D01*
X0122121Y0011463D01*
X0122078Y0011322D01*
X0122030Y0011181D01*
X0121980Y0011042D01*
X0121925Y0010904D01*
X0121867Y0010767D01*
X0121804Y0010633D01*
X0121739Y0010500D01*
X0121670Y0010369D01*
X0121597Y0010239D01*
X0121521Y0010112D01*
X0121441Y0009987D01*
X0121358Y0009864D01*
X0121272Y0009743D01*
X0121183Y0009625D01*
X0121090Y0009509D01*
X0120994Y0009396D01*
X0120896Y0009285D01*
X0120794Y0009177D01*
X0120690Y0009072D01*
X0120582Y0008969D01*
X0120472Y0008870D01*
X0120360Y0008774D01*
X0120244Y0008680D01*
X0120127Y0008590D01*
X0120006Y0008503D01*
X0119884Y0008419D01*
X0119759Y0008339D01*
X0119633Y0008262D01*
X0119504Y0008188D01*
X0119373Y0008118D01*
X0119241Y0008052D01*
X0119106Y0007989D01*
X0118970Y0007929D01*
X0118833Y0007874D01*
X0118694Y0007822D01*
X0118554Y0007774D01*
X0118412Y0007729D01*
X0118269Y0007689D01*
X0118126Y0007652D01*
X0117981Y0007620D01*
X0117836Y0007591D01*
X0117689Y0007566D01*
X0117543Y0007545D01*
X0117395Y0007528D01*
X0117247Y0007515D01*
X0117099Y0007506D01*
X0116951Y0007501D01*
X0116803Y0007500D01*
X0116655Y0007503D01*
X0116506Y0007510D01*
X0116359Y0007521D01*
X0116211Y0007536D01*
X0116064Y0007555D01*
X0115917Y0007578D01*
X0115772Y0007605D01*
X0115626Y0007636D01*
X0115482Y0007670D01*
X0115339Y0007709D01*
X0115197Y0007751D01*
X0115056Y0007797D01*
X0114916Y0007847D01*
X0114778Y0007901D01*
X0114641Y0007959D01*
X0114506Y0008020D01*
X0114373Y0008084D01*
X0114241Y0008153D01*
X0114111Y0008225D01*
X0113984Y0008300D01*
X0113858Y0008379D01*
X0113734Y0008461D01*
X0113613Y0008546D01*
X0113494Y0008635D01*
X0113378Y0008726D01*
X0113264Y0008821D01*
X0113152Y0008919D01*
X0113044Y0009020D01*
X0112938Y0009124D01*
X0112835Y0009231D01*
X0112735Y0009340D01*
X0112637Y0009452D01*
X0112543Y0009567D01*
X0112452Y0009684D01*
X0112364Y0009803D01*
X0112280Y0009925D01*
X0112199Y0010049D01*
X0112121Y0010175D01*
X0112046Y0010304D01*
X0111975Y0010434D01*
X0111908Y0010566D01*
X0111844Y0010700D01*
X0111784Y0010835D01*
X0111727Y0010973D01*
X0111675Y0011111D01*
X0111625Y0011251D01*
X0111580Y0011392D01*
X0111539Y0011535D01*
X0111501Y0011678D01*
X0111467Y0011823D01*
X0111438Y0011968D01*
X0111412Y0012114D01*
X0111390Y0012261D01*
X0111372Y0012408D01*
X0111358Y0012556D01*
X0111348Y0012704D01*
X0111342Y0012852D01*
X0111340Y0013000D01*
D11*
X0002840Y0001500D02*
X0002840Y0124500D01*
X0125840Y0124500D01*
X0125840Y0001500D01*
X0002840Y0001500D01*
M02*
