G75*
%MOIN*%
%OFA0B0*%
%FSLAX25Y25*%
%IPPOS*%
%LPD*%
%AMOC8*
5,1,8,0,0,1.08239X$1,22.5*
%
%ADD10C,0.01598*%
%ADD11OC8,0.06000*%
%ADD12R,0.06000X0.06000*%
%ADD13C,0.06000*%
%ADD14C,0.05906*%
%ADD15C,0.00800*%
%ADD16C,0.02700*%
%ADD17C,0.01200*%
D10*
X0044497Y0036791D02*
X0044497Y0041099D01*
X0047647Y0041099D02*
X0047647Y0036791D01*
X0050797Y0036791D02*
X0050797Y0041099D01*
X0053946Y0041099D02*
X0053946Y0036791D01*
X0057096Y0036791D02*
X0057096Y0041099D01*
X0060245Y0041099D02*
X0060245Y0036791D01*
X0063395Y0036791D02*
X0063395Y0041099D01*
X0066545Y0041099D02*
X0066545Y0036791D01*
X0070099Y0044654D02*
X0074407Y0044654D01*
X0074407Y0047803D02*
X0070099Y0047803D01*
X0070099Y0050953D02*
X0074407Y0050953D01*
X0074407Y0054102D02*
X0070099Y0054102D01*
X0070099Y0057252D02*
X0074407Y0057252D01*
X0074407Y0060402D02*
X0070099Y0060402D01*
X0070099Y0063551D02*
X0074407Y0063551D01*
X0074407Y0066701D02*
X0070099Y0066701D01*
X0066545Y0070255D02*
X0066545Y0074563D01*
X0063395Y0074563D02*
X0063395Y0070255D01*
X0060245Y0070255D02*
X0060245Y0074563D01*
X0057096Y0074563D02*
X0057096Y0070255D01*
X0053946Y0070255D02*
X0053946Y0074563D01*
X0050797Y0074563D02*
X0050797Y0070255D01*
X0047647Y0070255D02*
X0047647Y0074563D01*
X0044497Y0074563D02*
X0044497Y0070255D01*
X0040943Y0066701D02*
X0036635Y0066701D01*
X0036635Y0063551D02*
X0040943Y0063551D01*
X0040943Y0060402D02*
X0036635Y0060402D01*
X0036635Y0057252D02*
X0040943Y0057252D01*
X0040943Y0054102D02*
X0036635Y0054102D01*
X0036635Y0050953D02*
X0040943Y0050953D01*
X0040943Y0047803D02*
X0036635Y0047803D01*
X0036635Y0044654D02*
X0040943Y0044654D01*
D11*
X0101540Y0029400D03*
X0111540Y0029400D03*
X0121540Y0029400D03*
X0121540Y0039400D03*
X0111540Y0039400D03*
D12*
X0101540Y0039400D03*
D13*
X0091340Y0043400D02*
X0085340Y0043400D01*
X0085340Y0053400D02*
X0091340Y0053400D01*
X0091340Y0063400D02*
X0085340Y0063400D01*
X0085340Y0073400D02*
X0091340Y0073400D01*
X0091340Y0083400D02*
X0085340Y0083400D01*
X0085340Y0093400D02*
X0091340Y0093400D01*
X0024340Y0093400D02*
X0018340Y0093400D01*
X0018340Y0083400D02*
X0024340Y0083400D01*
X0024340Y0073400D02*
X0018340Y0073400D01*
X0018340Y0063400D02*
X0024340Y0063400D01*
X0024340Y0053400D02*
X0018340Y0053400D01*
X0018340Y0043400D02*
X0024340Y0043400D01*
D14*
X0030340Y0020153D02*
X0030340Y0014247D01*
X0040340Y0014247D02*
X0040340Y0020153D01*
X0050340Y0020153D02*
X0050340Y0014247D01*
X0060340Y0014247D02*
X0060340Y0020153D01*
X0070340Y0020153D02*
X0070340Y0014247D01*
X0080340Y0014247D02*
X0080340Y0020153D01*
X0090340Y0020153D02*
X0090340Y0014247D01*
X0100340Y0014247D02*
X0100340Y0020153D01*
X0100340Y0108747D02*
X0100340Y0114653D01*
X0090340Y0114653D02*
X0090340Y0108747D01*
X0080340Y0108747D02*
X0080340Y0114653D01*
X0070340Y0114653D02*
X0070340Y0108747D01*
X0060340Y0108747D02*
X0060340Y0114653D01*
X0050340Y0114653D02*
X0050340Y0108747D01*
X0040340Y0108747D02*
X0040340Y0114653D01*
X0030340Y0114653D02*
X0030340Y0108747D01*
D15*
X0031040Y0099500D02*
X0032440Y0098100D01*
X0077940Y0098100D01*
X0072340Y0090400D02*
X0070940Y0089000D01*
X0033840Y0089000D01*
X0027540Y0080600D02*
X0026140Y0079200D01*
X0016340Y0079200D01*
X0014240Y0081300D01*
X0014240Y0086200D01*
X0021240Y0093200D01*
X0021340Y0093400D01*
X0021240Y0102300D02*
X0039940Y0102300D01*
X0045740Y0108600D01*
X0045740Y0116300D01*
X0048540Y0119100D01*
X0082840Y0119100D01*
X0089840Y0112100D01*
X0094740Y0116300D02*
X0091940Y0119100D01*
X0087740Y0119100D01*
X0094740Y0116300D02*
X0094740Y0103000D01*
X0088440Y0104400D02*
X0067440Y0104400D01*
X0060440Y0111400D01*
X0044340Y0103000D02*
X0086340Y0103000D01*
X0087740Y0101600D01*
X0088440Y0104400D02*
X0103140Y0089700D01*
X0103140Y0079900D01*
X0098940Y0075700D01*
X0098940Y0061000D01*
X0105940Y0054000D01*
X0105940Y0035800D01*
X0105240Y0035100D01*
X0098240Y0035100D01*
X0097540Y0035800D01*
X0097540Y0043500D01*
X0093340Y0047700D01*
X0084940Y0047700D01*
X0078640Y0054000D01*
X0072340Y0054000D01*
X0072253Y0054102D01*
X0072253Y0050953D02*
X0072340Y0050500D01*
X0074440Y0050500D01*
X0077940Y0047000D01*
X0077940Y0040700D01*
X0075140Y0038600D02*
X0072340Y0041400D01*
X0072340Y0044200D01*
X0072253Y0044654D01*
X0072253Y0047803D02*
X0071640Y0048400D01*
X0068840Y0048400D01*
X0067440Y0049800D01*
X0063240Y0049800D02*
X0070240Y0056800D01*
X0071640Y0056800D01*
X0072253Y0057252D01*
X0072340Y0056800D01*
X0084940Y0056800D01*
X0088340Y0053400D01*
X0092640Y0049100D01*
X0098240Y0049100D01*
X0101040Y0056800D02*
X0095440Y0062400D01*
X0095440Y0065900D01*
X0088440Y0072900D01*
X0088340Y0073400D01*
X0087740Y0073600D01*
X0080740Y0080600D01*
X0059740Y0080600D01*
X0056940Y0077800D01*
X0060440Y0077800D02*
X0063240Y0075000D01*
X0063240Y0072900D01*
X0063395Y0072409D01*
X0066040Y0072200D02*
X0066040Y0070100D01*
X0063240Y0067300D01*
X0066040Y0072200D02*
X0066545Y0072409D01*
X0068140Y0068700D02*
X0050640Y0051200D01*
X0039440Y0051200D01*
X0038789Y0050953D01*
X0038740Y0051200D01*
X0033840Y0051200D01*
X0021940Y0063100D01*
X0021340Y0063400D01*
X0024740Y0068000D02*
X0017040Y0068000D01*
X0014240Y0065200D01*
X0014240Y0050500D01*
X0021340Y0043400D01*
X0014240Y0039300D02*
X0014240Y0037900D01*
X0014240Y0039300D02*
X0011440Y0042100D01*
X0011440Y0092500D01*
X0021240Y0102300D01*
X0027540Y0080600D02*
X0050640Y0080600D01*
X0056940Y0074300D01*
X0056940Y0072900D01*
X0057096Y0072409D01*
X0056940Y0072200D01*
X0056940Y0070100D01*
X0054140Y0067300D01*
X0053440Y0067300D01*
X0053946Y0072409D02*
X0053440Y0072900D01*
X0053440Y0075000D01*
X0052040Y0076400D01*
X0033140Y0076400D01*
X0024740Y0068000D01*
X0029640Y0077800D02*
X0017040Y0077800D01*
X0012840Y0073600D01*
X0012840Y0042800D01*
X0021940Y0033700D01*
X0047140Y0033700D01*
X0045740Y0028800D02*
X0037340Y0028800D01*
X0030340Y0021800D01*
X0030340Y0017600D01*
X0038040Y0026000D02*
X0052040Y0026000D01*
X0063240Y0037200D01*
X0063240Y0038600D01*
X0063395Y0038945D01*
X0066040Y0038600D02*
X0066545Y0038945D01*
X0066040Y0038600D02*
X0066040Y0023200D01*
X0060440Y0017600D01*
X0045740Y0028800D02*
X0053440Y0036500D01*
X0053440Y0038600D01*
X0053946Y0038945D01*
X0057096Y0038945D02*
X0057640Y0039300D01*
X0057640Y0044200D01*
X0060440Y0040700D02*
X0063240Y0043500D01*
X0066740Y0043500D01*
X0080040Y0030200D01*
X0080040Y0017600D01*
X0097540Y0033700D02*
X0088440Y0042800D01*
X0088340Y0043400D01*
X0097540Y0033700D02*
X0112940Y0033700D01*
X0117140Y0029500D01*
X0121340Y0029500D01*
X0121540Y0029400D01*
X0124840Y0035100D02*
X0117840Y0035100D01*
X0113640Y0039300D01*
X0111540Y0039300D01*
X0111540Y0039400D01*
X0121540Y0039400D02*
X0122040Y0040000D01*
X0105940Y0056100D01*
X0105940Y0057500D01*
X0101040Y0056800D02*
X0101040Y0040000D01*
X0101540Y0039400D01*
X0124840Y0035100D02*
X0125540Y0035800D01*
X0125540Y0046300D01*
X0101740Y0070100D01*
X0100340Y0080600D02*
X0087740Y0093200D01*
X0088340Y0093400D01*
X0076540Y0068700D02*
X0068140Y0068700D01*
X0070240Y0066600D02*
X0064640Y0061000D01*
X0064640Y0054700D01*
X0063240Y0049800D02*
X0050640Y0049800D01*
X0043640Y0042800D01*
X0035940Y0042800D01*
X0025440Y0053300D01*
X0021940Y0053300D01*
X0021340Y0053400D01*
X0028940Y0046300D02*
X0035940Y0039300D01*
X0044340Y0039300D01*
X0044497Y0038945D01*
X0047647Y0038945D02*
X0047840Y0039300D01*
X0047840Y0040700D01*
X0051340Y0044200D01*
X0051340Y0046300D01*
X0043640Y0047000D02*
X0041540Y0044900D01*
X0039440Y0044900D01*
X0038789Y0044654D01*
X0038789Y0047803D02*
X0038740Y0048400D01*
X0033840Y0048400D01*
X0044340Y0054700D02*
X0044340Y0056800D01*
X0040840Y0060300D01*
X0039440Y0060300D01*
X0038789Y0060402D01*
X0038789Y0063551D02*
X0039440Y0063800D01*
X0040840Y0063800D01*
X0044340Y0067300D01*
X0041540Y0069400D02*
X0041540Y0070100D01*
X0041540Y0069400D02*
X0039440Y0067300D01*
X0038789Y0066701D01*
X0060440Y0040700D02*
X0060440Y0039300D01*
X0060245Y0038945D01*
X0072340Y0060300D02*
X0072253Y0060402D01*
X0072340Y0060300D02*
X0077940Y0060300D01*
X0077940Y0063800D02*
X0072340Y0063800D01*
X0072253Y0063551D01*
X0071640Y0066600D02*
X0070240Y0066600D01*
X0071640Y0066600D02*
X0072253Y0066701D01*
X0076540Y0068700D02*
X0081440Y0063800D01*
X0087740Y0063800D01*
X0088340Y0063400D01*
D16*
X0077940Y0063800D03*
X0077940Y0060300D03*
X0067440Y0049800D03*
X0064640Y0054700D03*
X0057640Y0044200D03*
X0051340Y0046300D03*
X0043640Y0047000D03*
X0044340Y0054700D03*
X0033840Y0048400D03*
X0028940Y0046300D03*
X0014240Y0037900D03*
X0038040Y0026000D03*
X0047140Y0033700D03*
X0075140Y0038600D03*
X0077940Y0040700D03*
X0098240Y0049100D03*
X0105940Y0057500D03*
X0101740Y0070100D03*
X0100340Y0080600D03*
X0087740Y0101600D03*
X0094740Y0103000D03*
X0077940Y0098100D03*
X0072340Y0090400D03*
X0060440Y0077800D03*
X0056940Y0077800D03*
X0053440Y0067300D03*
X0044340Y0067300D03*
X0041540Y0070100D03*
X0029640Y0077800D03*
X0033840Y0089000D03*
X0031040Y0099500D03*
X0044340Y0103000D03*
X0063240Y0067300D03*
X0087740Y0119100D03*
D17*
X0088340Y0093400D02*
X0021340Y0093400D01*
X0021340Y0083400D02*
X0088340Y0083400D01*
M02*
