G75*
%MOIN*%
%OFA0B0*%
%FSLAX25Y25*%
%IPPOS*%
%LPD*%
%AMOC8*
5,1,8,0,0,1.08239X$1,22.5*
%
%ADD10C,0.00400*%
%ADD11C,0.00800*%
%ADD12C,0.00500*%
%ADD13C,0.00200*%
%ADD14C,0.00300*%
%ADD15C,0.00600*%
%ADD16R,0.02000X0.02000*%
D10*
X0004001Y0070200D02*
X0005536Y0070200D01*
X0004769Y0070200D02*
X0004769Y0074804D01*
X0005536Y0074804D02*
X0004001Y0074804D01*
X0007071Y0074037D02*
X0007838Y0074804D01*
X0009373Y0074804D01*
X0010140Y0074037D01*
X0010140Y0073269D01*
X0009373Y0072502D01*
X0007838Y0072502D01*
X0007071Y0071735D01*
X0007071Y0070967D01*
X0007838Y0070200D01*
X0009373Y0070200D01*
X0010140Y0070967D01*
X0021833Y0097192D02*
X0024902Y0097192D01*
X0021833Y0100261D01*
X0021833Y0101029D01*
X0022600Y0101796D01*
X0024135Y0101796D01*
X0024902Y0101029D01*
X0026437Y0101796D02*
X0026437Y0097959D01*
X0027204Y0097192D01*
X0028739Y0097192D01*
X0029506Y0097959D01*
X0029506Y0101796D01*
X0107259Y0084804D02*
X0110328Y0081735D01*
X0109561Y0082502D02*
X0107259Y0080200D01*
X0110328Y0080200D02*
X0110328Y0084804D01*
X0114932Y0084804D02*
X0114932Y0080200D01*
X0111863Y0080200D01*
X0116467Y0080967D02*
X0117234Y0080200D01*
X0118769Y0080200D01*
X0119536Y0080967D01*
X0119536Y0084037D01*
X0118769Y0084804D01*
X0117234Y0084804D01*
X0116467Y0084037D01*
X0121071Y0084037D02*
X0121838Y0084804D01*
X0123373Y0084804D01*
X0124140Y0084037D01*
X0124140Y0083269D01*
X0123373Y0082502D01*
X0121838Y0082502D01*
X0121071Y0081735D01*
X0121071Y0080967D01*
X0121838Y0080200D01*
X0123373Y0080200D01*
X0124140Y0080967D01*
X0124140Y0074804D02*
X0122605Y0073269D01*
X0121071Y0074804D01*
X0121071Y0070200D01*
X0119536Y0070200D02*
X0118001Y0070200D01*
X0118769Y0070200D02*
X0118769Y0074804D01*
X0119536Y0074804D02*
X0118001Y0074804D01*
X0116467Y0074037D02*
X0116467Y0073269D01*
X0115699Y0072502D01*
X0114165Y0072502D01*
X0113397Y0071735D01*
X0113397Y0070967D01*
X0114165Y0070200D01*
X0115699Y0070200D01*
X0116467Y0070967D01*
X0116467Y0074037D02*
X0115699Y0074804D01*
X0114165Y0074804D01*
X0113397Y0074037D01*
X0111863Y0074037D02*
X0111863Y0070967D01*
X0111095Y0070200D01*
X0109561Y0070200D01*
X0108793Y0070967D01*
X0108793Y0074037D01*
X0109561Y0074804D01*
X0111095Y0074804D01*
X0111863Y0074037D01*
X0116467Y0064804D02*
X0119536Y0064804D01*
X0119536Y0060200D01*
X0116467Y0060200D01*
X0118001Y0062502D02*
X0119536Y0062502D01*
X0121071Y0064037D02*
X0121838Y0064804D01*
X0123373Y0064804D01*
X0124140Y0064037D01*
X0124140Y0060967D01*
X0123373Y0060200D01*
X0121838Y0060200D01*
X0121071Y0060967D01*
X0121838Y0054804D02*
X0121071Y0054037D01*
X0121071Y0052502D01*
X0121838Y0051735D01*
X0124140Y0051735D01*
X0122605Y0051735D02*
X0121071Y0050200D01*
X0119536Y0050967D02*
X0118769Y0050200D01*
X0117234Y0050200D01*
X0116467Y0050967D01*
X0116467Y0051735D01*
X0117234Y0052502D01*
X0118769Y0052502D01*
X0119536Y0053269D01*
X0119536Y0054037D01*
X0118769Y0054804D01*
X0117234Y0054804D01*
X0116467Y0054037D01*
X0114932Y0054804D02*
X0111863Y0054804D01*
X0113397Y0054804D02*
X0113397Y0050200D01*
X0112630Y0046304D02*
X0111863Y0045537D01*
X0111863Y0042467D01*
X0112630Y0041700D01*
X0114932Y0041700D01*
X0114932Y0046304D01*
X0112630Y0046304D01*
X0116467Y0046304D02*
X0116467Y0041700D01*
X0119536Y0046304D01*
X0119536Y0041700D01*
X0121071Y0042467D02*
X0121071Y0044002D01*
X0122605Y0044002D01*
X0121071Y0042467D02*
X0121838Y0041700D01*
X0123373Y0041700D01*
X0124140Y0042467D01*
X0124140Y0045537D01*
X0123373Y0046304D01*
X0121838Y0046304D01*
X0121071Y0045537D01*
X0124140Y0050200D02*
X0124140Y0054804D01*
X0121838Y0054804D01*
X0124140Y0070200D02*
X0124140Y0074804D01*
X0123373Y0090200D02*
X0121838Y0090200D01*
X0121071Y0090967D01*
X0121071Y0091735D01*
X0121838Y0092502D01*
X0122605Y0092502D01*
X0121838Y0092502D02*
X0121071Y0093269D01*
X0121071Y0094037D01*
X0121838Y0094804D01*
X0123373Y0094804D01*
X0124140Y0094037D01*
X0124140Y0090967D02*
X0123373Y0090200D01*
X0119536Y0090200D02*
X0118769Y0090200D01*
X0118769Y0090967D01*
X0119536Y0090967D01*
X0119536Y0090200D01*
X0117234Y0090967D02*
X0116467Y0090200D01*
X0114932Y0090200D01*
X0114165Y0090967D01*
X0114165Y0091735D01*
X0114932Y0092502D01*
X0115699Y0092502D01*
X0114932Y0092502D02*
X0114165Y0093269D01*
X0114165Y0094037D01*
X0114932Y0094804D01*
X0116467Y0094804D01*
X0117234Y0094037D01*
X0112630Y0094804D02*
X0112630Y0091735D01*
X0111095Y0090200D01*
X0109561Y0091735D01*
X0109561Y0094804D01*
D11*
X0094340Y0042000D02*
X0003340Y0042000D01*
X0003340Y0052000D02*
X0111340Y0052000D01*
X0110340Y0044000D02*
X0096340Y0044000D01*
X0094340Y0042000D01*
X0114840Y0062000D02*
X0003340Y0062000D01*
X0011340Y0072000D02*
X0106840Y0072000D01*
X0102840Y0078500D01*
X0105840Y0082000D02*
X0003340Y0082000D01*
X0003340Y0092000D02*
X0107840Y0092000D01*
X0106840Y0072000D02*
X0102840Y0065000D01*
D12*
X0077643Y0059492D02*
X0077643Y0094925D01*
X0030399Y0094925D01*
X0030399Y0059492D01*
X0077643Y0059492D01*
X0072206Y0068492D02*
X0072208Y0068569D01*
X0072214Y0068646D01*
X0072224Y0068723D01*
X0072238Y0068799D01*
X0072255Y0068874D01*
X0072277Y0068948D01*
X0072302Y0069021D01*
X0072332Y0069093D01*
X0072364Y0069163D01*
X0072401Y0069231D01*
X0072440Y0069297D01*
X0072483Y0069361D01*
X0072530Y0069423D01*
X0072579Y0069482D01*
X0072632Y0069539D01*
X0072687Y0069593D01*
X0072745Y0069644D01*
X0072806Y0069692D01*
X0072869Y0069737D01*
X0072934Y0069778D01*
X0073001Y0069816D01*
X0073070Y0069851D01*
X0073141Y0069881D01*
X0073213Y0069909D01*
X0073287Y0069932D01*
X0073361Y0069952D01*
X0073437Y0069968D01*
X0073513Y0069980D01*
X0073590Y0069988D01*
X0073667Y0069992D01*
X0073745Y0069992D01*
X0073822Y0069988D01*
X0073899Y0069980D01*
X0073975Y0069968D01*
X0074051Y0069952D01*
X0074125Y0069932D01*
X0074199Y0069909D01*
X0074271Y0069881D01*
X0074342Y0069851D01*
X0074411Y0069816D01*
X0074478Y0069778D01*
X0074543Y0069737D01*
X0074606Y0069692D01*
X0074667Y0069644D01*
X0074725Y0069593D01*
X0074780Y0069539D01*
X0074833Y0069482D01*
X0074882Y0069423D01*
X0074929Y0069361D01*
X0074972Y0069297D01*
X0075011Y0069231D01*
X0075048Y0069163D01*
X0075080Y0069093D01*
X0075110Y0069021D01*
X0075135Y0068948D01*
X0075157Y0068874D01*
X0075174Y0068799D01*
X0075188Y0068723D01*
X0075198Y0068646D01*
X0075204Y0068569D01*
X0075206Y0068492D01*
X0075204Y0068415D01*
X0075198Y0068338D01*
X0075188Y0068261D01*
X0075174Y0068185D01*
X0075157Y0068110D01*
X0075135Y0068036D01*
X0075110Y0067963D01*
X0075080Y0067891D01*
X0075048Y0067821D01*
X0075011Y0067753D01*
X0074972Y0067687D01*
X0074929Y0067623D01*
X0074882Y0067561D01*
X0074833Y0067502D01*
X0074780Y0067445D01*
X0074725Y0067391D01*
X0074667Y0067340D01*
X0074606Y0067292D01*
X0074543Y0067247D01*
X0074478Y0067206D01*
X0074411Y0067168D01*
X0074342Y0067133D01*
X0074271Y0067103D01*
X0074199Y0067075D01*
X0074125Y0067052D01*
X0074051Y0067032D01*
X0073975Y0067016D01*
X0073899Y0067004D01*
X0073822Y0066996D01*
X0073745Y0066992D01*
X0073667Y0066992D01*
X0073590Y0066996D01*
X0073513Y0067004D01*
X0073437Y0067016D01*
X0073361Y0067032D01*
X0073287Y0067052D01*
X0073213Y0067075D01*
X0073141Y0067103D01*
X0073070Y0067133D01*
X0073001Y0067168D01*
X0072934Y0067206D01*
X0072869Y0067247D01*
X0072806Y0067292D01*
X0072745Y0067340D01*
X0072687Y0067391D01*
X0072632Y0067445D01*
X0072579Y0067502D01*
X0072530Y0067561D01*
X0072483Y0067623D01*
X0072440Y0067687D01*
X0072401Y0067753D01*
X0072364Y0067821D01*
X0072332Y0067891D01*
X0072302Y0067963D01*
X0072277Y0068036D01*
X0072255Y0068110D01*
X0072238Y0068185D01*
X0072224Y0068261D01*
X0072214Y0068338D01*
X0072208Y0068415D01*
X0072206Y0068492D01*
X0077726Y0033154D02*
X0079227Y0033154D01*
X0079978Y0032403D01*
X0079978Y0029401D01*
X0079227Y0028650D01*
X0077726Y0028650D01*
X0076976Y0029401D01*
X0076976Y0030902D01*
X0078477Y0030902D01*
X0076976Y0032403D02*
X0077726Y0033154D01*
X0081579Y0032403D02*
X0081579Y0029401D01*
X0082330Y0028650D01*
X0083831Y0028650D01*
X0084582Y0029401D01*
X0084582Y0032403D01*
X0083831Y0033154D01*
X0082330Y0033154D01*
X0081579Y0032403D01*
X0086183Y0032403D02*
X0086183Y0030902D01*
X0086934Y0030151D01*
X0089186Y0030151D01*
X0089186Y0028650D02*
X0089186Y0033154D01*
X0086934Y0033154D01*
X0086183Y0032403D01*
X0087685Y0030151D02*
X0086183Y0028650D01*
X0090787Y0030902D02*
X0091538Y0030151D01*
X0093790Y0030151D01*
X0093790Y0028650D02*
X0093790Y0033154D01*
X0091538Y0033154D01*
X0090787Y0032403D01*
X0090787Y0030902D01*
D13*
X0091044Y0055596D02*
X0091044Y0058398D01*
X0091978Y0057464D01*
X0092872Y0056997D02*
X0093339Y0056530D01*
X0094740Y0056530D01*
X0094740Y0055596D02*
X0094740Y0058398D01*
X0093339Y0058398D01*
X0092872Y0057931D01*
X0092872Y0056997D01*
X0093806Y0056530D02*
X0092872Y0055596D01*
X0091978Y0055596D02*
X0090110Y0055596D01*
D14*
X0065793Y0046065D02*
X0065793Y0043596D01*
X0065176Y0042979D01*
X0063942Y0042979D01*
X0063324Y0043596D01*
X0062110Y0042979D02*
X0059641Y0042979D01*
X0060876Y0042979D02*
X0060876Y0046682D01*
X0062110Y0045448D01*
X0063324Y0046065D02*
X0063942Y0046682D01*
X0065176Y0046682D01*
X0065793Y0046065D01*
D15*
X0095540Y0040400D02*
X0095540Y0025400D01*
X0098040Y0022900D01*
X0103040Y0022900D01*
X0105540Y0025400D01*
X0105540Y0040400D01*
X0103040Y0042900D01*
X0098040Y0042900D01*
X0095540Y0040400D01*
X0105540Y0040400D02*
X0108040Y0042900D01*
X0115540Y0040400D02*
X0115540Y0025400D01*
X0113040Y0022900D01*
X0108040Y0022900D01*
X0105540Y0025400D01*
X0115540Y0025400D02*
X0118040Y0022900D01*
X0123040Y0022900D01*
X0125540Y0025400D01*
X0125540Y0040400D01*
D16*
X0120540Y0037900D03*
X0120540Y0027900D03*
X0110540Y0027900D03*
X0110540Y0037900D03*
X0100540Y0037900D03*
X0100540Y0027900D03*
M02*
