G75*
%MOIN*%
%OFA0B0*%
%FSLAX25Y25*%
%IPPOS*%
%LPD*%
%AMOC8*
5,1,8,0,0,1.08239X$1,22.5*
%
%ADD10C,0.13100*%
%ADD11C,0.02198*%
%ADD12OC8,0.06600*%
%ADD13R,0.06600X0.06600*%
%ADD14C,0.06600*%
%ADD15C,0.06506*%
%ADD16C,0.03300*%
D10*
X0012840Y0014500D03*
X0012840Y0114500D03*
X0117840Y0114500D03*
X0117840Y0014500D03*
D11*
X0074407Y0044654D02*
X0070099Y0044654D01*
X0070099Y0047803D02*
X0074407Y0047803D01*
X0074407Y0050953D02*
X0070099Y0050953D01*
X0070099Y0054102D02*
X0074407Y0054102D01*
X0074407Y0057252D02*
X0070099Y0057252D01*
X0070099Y0060402D02*
X0074407Y0060402D01*
X0074407Y0063551D02*
X0070099Y0063551D01*
X0070099Y0066701D02*
X0074407Y0066701D01*
X0066545Y0070255D02*
X0066545Y0074563D01*
X0063395Y0074563D02*
X0063395Y0070255D01*
X0060245Y0070255D02*
X0060245Y0074563D01*
X0057096Y0074563D02*
X0057096Y0070255D01*
X0053946Y0070255D02*
X0053946Y0074563D01*
X0050797Y0074563D02*
X0050797Y0070255D01*
X0047647Y0070255D02*
X0047647Y0074563D01*
X0044497Y0074563D02*
X0044497Y0070255D01*
X0040943Y0066701D02*
X0036635Y0066701D01*
X0036635Y0063551D02*
X0040943Y0063551D01*
X0040943Y0060402D02*
X0036635Y0060402D01*
X0036635Y0057252D02*
X0040943Y0057252D01*
X0040943Y0054102D02*
X0036635Y0054102D01*
X0036635Y0050953D02*
X0040943Y0050953D01*
X0040943Y0047803D02*
X0036635Y0047803D01*
X0036635Y0044654D02*
X0040943Y0044654D01*
X0044497Y0041099D02*
X0044497Y0036791D01*
X0047647Y0036791D02*
X0047647Y0041099D01*
X0050797Y0041099D02*
X0050797Y0036791D01*
X0053946Y0036791D02*
X0053946Y0041099D01*
X0057096Y0041099D02*
X0057096Y0036791D01*
X0060245Y0036791D02*
X0060245Y0041099D01*
X0063395Y0041099D02*
X0063395Y0036791D01*
X0066545Y0036791D02*
X0066545Y0041099D01*
D12*
X0101540Y0029400D03*
X0111540Y0029400D03*
X0121540Y0029400D03*
X0121540Y0039400D03*
X0111540Y0039400D03*
D13*
X0101540Y0039400D03*
D14*
X0091340Y0043400D02*
X0085340Y0043400D01*
X0085340Y0053400D02*
X0091340Y0053400D01*
X0091340Y0063400D02*
X0085340Y0063400D01*
X0085340Y0073400D02*
X0091340Y0073400D01*
X0091340Y0083400D02*
X0085340Y0083400D01*
X0085340Y0093400D02*
X0091340Y0093400D01*
X0024340Y0093400D02*
X0018340Y0093400D01*
X0018340Y0083400D02*
X0024340Y0083400D01*
X0024340Y0073400D02*
X0018340Y0073400D01*
X0018340Y0063400D02*
X0024340Y0063400D01*
X0024340Y0053400D02*
X0018340Y0053400D01*
X0018340Y0043400D02*
X0024340Y0043400D01*
D15*
X0030340Y0020153D02*
X0030340Y0014247D01*
X0040340Y0014247D02*
X0040340Y0020153D01*
X0050340Y0020153D02*
X0050340Y0014247D01*
X0060340Y0014247D02*
X0060340Y0020153D01*
X0070340Y0020153D02*
X0070340Y0014247D01*
X0080340Y0014247D02*
X0080340Y0020153D01*
X0090340Y0020153D02*
X0090340Y0014247D01*
X0100340Y0014247D02*
X0100340Y0020153D01*
X0100340Y0108747D02*
X0100340Y0114653D01*
X0090340Y0114653D02*
X0090340Y0108747D01*
X0080340Y0108747D02*
X0080340Y0114653D01*
X0070340Y0114653D02*
X0070340Y0108747D01*
X0060340Y0108747D02*
X0060340Y0114653D01*
X0050340Y0114653D02*
X0050340Y0108747D01*
X0040340Y0108747D02*
X0040340Y0114653D01*
X0030340Y0114653D02*
X0030340Y0108747D01*
D16*
X0031040Y0099500D03*
X0033840Y0089000D03*
X0029640Y0077800D03*
X0041540Y0070100D03*
X0044340Y0067300D03*
X0053440Y0067300D03*
X0063240Y0067300D03*
X0060440Y0077800D03*
X0056940Y0077800D03*
X0072340Y0090400D03*
X0077940Y0098100D03*
X0087740Y0101600D03*
X0094740Y0103000D03*
X0087740Y0119100D03*
X0100340Y0080600D03*
X0101740Y0070100D03*
X0105940Y0057500D03*
X0098240Y0049100D03*
X0077940Y0040700D03*
X0075140Y0038600D03*
X0067440Y0049800D03*
X0064640Y0054700D03*
X0057640Y0044200D03*
X0051340Y0046300D03*
X0043640Y0047000D03*
X0044340Y0054700D03*
X0033840Y0048400D03*
X0028940Y0046300D03*
X0014240Y0037900D03*
X0038040Y0026000D03*
X0047140Y0033700D03*
X0077940Y0060300D03*
X0077940Y0063800D03*
X0044340Y0103000D03*
M02*
