G75*
%MOIN*%
%OFA0B0*%
%FSLAX25Y25*%
%IPPOS*%
%LPD*%
%AMOC8*
5,1,8,0,0,1.08239X$1,22.5*
%
%ADD10C,0.00400*%
%ADD11C,0.00800*%
%ADD12C,0.00500*%
%ADD13C,0.00600*%
%ADD14R,0.02000X0.02000*%
D10*
X0004001Y0071700D02*
X0005536Y0071700D01*
X0004769Y0071700D02*
X0004769Y0076304D01*
X0005536Y0076304D02*
X0004001Y0076304D01*
X0007071Y0075537D02*
X0007838Y0076304D01*
X0009373Y0076304D01*
X0010140Y0075537D01*
X0010140Y0074769D01*
X0009373Y0074002D01*
X0007838Y0074002D01*
X0007071Y0073235D01*
X0007071Y0072467D01*
X0007838Y0071700D01*
X0009373Y0071700D01*
X0010140Y0072467D01*
X0022833Y0098692D02*
X0025902Y0098692D01*
X0022833Y0101761D01*
X0022833Y0102529D01*
X0023600Y0103296D01*
X0025135Y0103296D01*
X0025902Y0102529D01*
X0027437Y0103296D02*
X0027437Y0099459D01*
X0028204Y0098692D01*
X0029739Y0098692D01*
X0030506Y0099459D01*
X0030506Y0103296D01*
X0109259Y0086304D02*
X0112328Y0083235D01*
X0111561Y0084002D02*
X0109259Y0081700D01*
X0112328Y0081700D02*
X0112328Y0086304D01*
X0113863Y0081700D02*
X0116932Y0081700D01*
X0116932Y0086304D01*
X0118467Y0085537D02*
X0119234Y0086304D01*
X0120769Y0086304D01*
X0121536Y0085537D01*
X0121536Y0082467D01*
X0120769Y0081700D01*
X0119234Y0081700D01*
X0118467Y0082467D01*
X0123071Y0082467D02*
X0123838Y0081700D01*
X0125373Y0081700D01*
X0126140Y0082467D01*
X0125373Y0084002D02*
X0123838Y0084002D01*
X0123071Y0083235D01*
X0123071Y0082467D01*
X0125373Y0084002D02*
X0126140Y0084769D01*
X0126140Y0085537D01*
X0125373Y0086304D01*
X0123838Y0086304D01*
X0123071Y0085537D01*
X0123838Y0091700D02*
X0125373Y0091700D01*
X0126140Y0092467D01*
X0124605Y0094002D02*
X0123838Y0094002D01*
X0123071Y0093235D01*
X0123071Y0092467D01*
X0123838Y0091700D01*
X0123838Y0094002D02*
X0123071Y0094769D01*
X0123071Y0095537D01*
X0123838Y0096304D01*
X0125373Y0096304D01*
X0126140Y0095537D01*
X0121536Y0092467D02*
X0120769Y0092467D01*
X0120769Y0091700D01*
X0121536Y0091700D01*
X0121536Y0092467D01*
X0119234Y0092467D02*
X0118467Y0091700D01*
X0116932Y0091700D01*
X0116165Y0092467D01*
X0116165Y0093235D01*
X0116932Y0094002D01*
X0117699Y0094002D01*
X0116932Y0094002D02*
X0116165Y0094769D01*
X0116165Y0095537D01*
X0116932Y0096304D01*
X0118467Y0096304D01*
X0119234Y0095537D01*
X0114630Y0096304D02*
X0114630Y0093235D01*
X0113095Y0091700D01*
X0111561Y0093235D01*
X0111561Y0096304D01*
X0111561Y0076304D02*
X0110793Y0075537D01*
X0110793Y0072467D01*
X0111561Y0071700D01*
X0113095Y0071700D01*
X0113863Y0072467D01*
X0113863Y0075537D01*
X0113095Y0076304D01*
X0111561Y0076304D01*
X0115397Y0075537D02*
X0116165Y0076304D01*
X0117699Y0076304D01*
X0118467Y0075537D01*
X0118467Y0074769D01*
X0117699Y0074002D01*
X0116165Y0074002D01*
X0115397Y0073235D01*
X0115397Y0072467D01*
X0116165Y0071700D01*
X0117699Y0071700D01*
X0118467Y0072467D01*
X0120001Y0071700D02*
X0121536Y0071700D01*
X0120769Y0071700D02*
X0120769Y0076304D01*
X0121536Y0076304D02*
X0120001Y0076304D01*
X0123071Y0076304D02*
X0123071Y0071700D01*
X0126140Y0071700D02*
X0126140Y0076304D01*
X0124605Y0074769D01*
X0123071Y0076304D01*
X0123838Y0066304D02*
X0125373Y0066304D01*
X0126140Y0065537D01*
X0126140Y0062467D01*
X0125373Y0061700D01*
X0123838Y0061700D01*
X0123071Y0062467D01*
X0121536Y0061700D02*
X0118467Y0061700D01*
X0120001Y0064002D02*
X0121536Y0064002D01*
X0123071Y0065537D02*
X0123838Y0066304D01*
X0121536Y0066304D02*
X0121536Y0061700D01*
X0121536Y0066304D02*
X0118467Y0066304D01*
X0119234Y0056304D02*
X0118467Y0055537D01*
X0119234Y0056304D02*
X0120769Y0056304D01*
X0121536Y0055537D01*
X0121536Y0054769D01*
X0120769Y0054002D01*
X0119234Y0054002D01*
X0118467Y0053235D01*
X0118467Y0052467D01*
X0119234Y0051700D01*
X0120769Y0051700D01*
X0121536Y0052467D01*
X0123071Y0051700D02*
X0124605Y0053235D01*
X0123838Y0053235D02*
X0126140Y0053235D01*
X0126140Y0051700D02*
X0126140Y0056304D01*
X0123838Y0056304D01*
X0123071Y0055537D01*
X0123071Y0054002D01*
X0123838Y0053235D01*
X0123838Y0047804D02*
X0125373Y0047804D01*
X0126140Y0047037D01*
X0126140Y0043967D01*
X0125373Y0043200D01*
X0123838Y0043200D01*
X0123071Y0043967D01*
X0123071Y0045502D01*
X0124605Y0045502D01*
X0123071Y0047037D02*
X0123838Y0047804D01*
X0121536Y0047804D02*
X0118467Y0043200D01*
X0118467Y0047804D01*
X0116932Y0047804D02*
X0114630Y0047804D01*
X0113863Y0047037D01*
X0113863Y0043967D01*
X0114630Y0043200D01*
X0116932Y0043200D01*
X0116932Y0047804D01*
X0115397Y0051700D02*
X0115397Y0056304D01*
X0113863Y0056304D02*
X0116932Y0056304D01*
X0121536Y0047804D02*
X0121536Y0043200D01*
D11*
X0095340Y0043500D02*
X0003840Y0043500D01*
X0003840Y0053500D02*
X0112340Y0053500D01*
X0111340Y0045500D02*
X0097340Y0045500D01*
X0095340Y0043500D01*
X0115840Y0063500D02*
X0003840Y0063500D01*
X0011340Y0073500D02*
X0108840Y0073500D01*
X0104840Y0080000D01*
X0106840Y0083500D02*
X0003840Y0083500D01*
X0003840Y0093500D02*
X0108840Y0093500D01*
X0108840Y0073500D02*
X0104840Y0066500D01*
D12*
X0078643Y0060992D02*
X0078643Y0096425D01*
X0031399Y0096425D01*
X0031399Y0060992D01*
X0078643Y0060992D01*
X0073206Y0069992D02*
X0073208Y0070069D01*
X0073214Y0070146D01*
X0073224Y0070223D01*
X0073238Y0070299D01*
X0073255Y0070374D01*
X0073277Y0070448D01*
X0073302Y0070521D01*
X0073332Y0070593D01*
X0073364Y0070663D01*
X0073401Y0070731D01*
X0073440Y0070797D01*
X0073483Y0070861D01*
X0073530Y0070923D01*
X0073579Y0070982D01*
X0073632Y0071039D01*
X0073687Y0071093D01*
X0073745Y0071144D01*
X0073806Y0071192D01*
X0073869Y0071237D01*
X0073934Y0071278D01*
X0074001Y0071316D01*
X0074070Y0071351D01*
X0074141Y0071381D01*
X0074213Y0071409D01*
X0074287Y0071432D01*
X0074361Y0071452D01*
X0074437Y0071468D01*
X0074513Y0071480D01*
X0074590Y0071488D01*
X0074667Y0071492D01*
X0074745Y0071492D01*
X0074822Y0071488D01*
X0074899Y0071480D01*
X0074975Y0071468D01*
X0075051Y0071452D01*
X0075125Y0071432D01*
X0075199Y0071409D01*
X0075271Y0071381D01*
X0075342Y0071351D01*
X0075411Y0071316D01*
X0075478Y0071278D01*
X0075543Y0071237D01*
X0075606Y0071192D01*
X0075667Y0071144D01*
X0075725Y0071093D01*
X0075780Y0071039D01*
X0075833Y0070982D01*
X0075882Y0070923D01*
X0075929Y0070861D01*
X0075972Y0070797D01*
X0076011Y0070731D01*
X0076048Y0070663D01*
X0076080Y0070593D01*
X0076110Y0070521D01*
X0076135Y0070448D01*
X0076157Y0070374D01*
X0076174Y0070299D01*
X0076188Y0070223D01*
X0076198Y0070146D01*
X0076204Y0070069D01*
X0076206Y0069992D01*
X0076204Y0069915D01*
X0076198Y0069838D01*
X0076188Y0069761D01*
X0076174Y0069685D01*
X0076157Y0069610D01*
X0076135Y0069536D01*
X0076110Y0069463D01*
X0076080Y0069391D01*
X0076048Y0069321D01*
X0076011Y0069253D01*
X0075972Y0069187D01*
X0075929Y0069123D01*
X0075882Y0069061D01*
X0075833Y0069002D01*
X0075780Y0068945D01*
X0075725Y0068891D01*
X0075667Y0068840D01*
X0075606Y0068792D01*
X0075543Y0068747D01*
X0075478Y0068706D01*
X0075411Y0068668D01*
X0075342Y0068633D01*
X0075271Y0068603D01*
X0075199Y0068575D01*
X0075125Y0068552D01*
X0075051Y0068532D01*
X0074975Y0068516D01*
X0074899Y0068504D01*
X0074822Y0068496D01*
X0074745Y0068492D01*
X0074667Y0068492D01*
X0074590Y0068496D01*
X0074513Y0068504D01*
X0074437Y0068516D01*
X0074361Y0068532D01*
X0074287Y0068552D01*
X0074213Y0068575D01*
X0074141Y0068603D01*
X0074070Y0068633D01*
X0074001Y0068668D01*
X0073934Y0068706D01*
X0073869Y0068747D01*
X0073806Y0068792D01*
X0073745Y0068840D01*
X0073687Y0068891D01*
X0073632Y0068945D01*
X0073579Y0069002D01*
X0073530Y0069061D01*
X0073483Y0069123D01*
X0073440Y0069187D01*
X0073401Y0069253D01*
X0073364Y0069321D01*
X0073332Y0069391D01*
X0073302Y0069463D01*
X0073277Y0069536D01*
X0073255Y0069610D01*
X0073238Y0069685D01*
X0073224Y0069761D01*
X0073214Y0069838D01*
X0073208Y0069915D01*
X0073206Y0069992D01*
D13*
X0099040Y0044400D02*
X0104040Y0044400D01*
X0106540Y0041900D01*
X0106540Y0026900D01*
X0104040Y0024400D01*
X0099040Y0024400D01*
X0096540Y0026900D01*
X0096540Y0041900D01*
X0099040Y0044400D01*
X0106540Y0041900D02*
X0109040Y0044400D01*
X0116540Y0041900D02*
X0116540Y0026900D01*
X0114040Y0024400D01*
X0109040Y0024400D01*
X0106540Y0026900D01*
X0116540Y0026900D02*
X0119040Y0024400D01*
X0124040Y0024400D01*
X0126540Y0026900D01*
X0126540Y0041900D01*
D14*
X0121540Y0039400D03*
X0111540Y0039400D03*
X0111540Y0029400D03*
X0121540Y0029400D03*
X0101540Y0029400D03*
X0101540Y0039400D03*
M02*
