G75*
%MOIN*%
%OFA0B0*%
%FSLAX25Y25*%
%IPPOS*%
%LPD*%
%AMOC8*
5,1,8,0,0,1.08239X$1,22.5*
%
%ADD10C,0.01598*%
D10*
X0044497Y0036791D02*
X0044497Y0041099D01*
X0047647Y0041099D02*
X0047647Y0036791D01*
X0050797Y0036791D02*
X0050797Y0041099D01*
X0053946Y0041099D02*
X0053946Y0036791D01*
X0057096Y0036791D02*
X0057096Y0041099D01*
X0060245Y0041099D02*
X0060245Y0036791D01*
X0063395Y0036791D02*
X0063395Y0041099D01*
X0066545Y0041099D02*
X0066545Y0036791D01*
X0070099Y0044654D02*
X0074407Y0044654D01*
X0074407Y0047803D02*
X0070099Y0047803D01*
X0070099Y0050953D02*
X0074407Y0050953D01*
X0074407Y0054102D02*
X0070099Y0054102D01*
X0070099Y0057252D02*
X0074407Y0057252D01*
X0074407Y0060402D02*
X0070099Y0060402D01*
X0070099Y0063551D02*
X0074407Y0063551D01*
X0074407Y0066701D02*
X0070099Y0066701D01*
X0066545Y0070255D02*
X0066545Y0074563D01*
X0063395Y0074563D02*
X0063395Y0070255D01*
X0060245Y0070255D02*
X0060245Y0074563D01*
X0057096Y0074563D02*
X0057096Y0070255D01*
X0053946Y0070255D02*
X0053946Y0074563D01*
X0050797Y0074563D02*
X0050797Y0070255D01*
X0047647Y0070255D02*
X0047647Y0074563D01*
X0044497Y0074563D02*
X0044497Y0070255D01*
X0040943Y0066701D02*
X0036635Y0066701D01*
X0036635Y0063551D02*
X0040943Y0063551D01*
X0040943Y0060402D02*
X0036635Y0060402D01*
X0036635Y0057252D02*
X0040943Y0057252D01*
X0040943Y0054102D02*
X0036635Y0054102D01*
X0036635Y0050953D02*
X0040943Y0050953D01*
X0040943Y0047803D02*
X0036635Y0047803D01*
X0036635Y0044654D02*
X0040943Y0044654D01*
M02*
