G75*
%MOIN*%
%OFA0B0*%
%FSLAX25Y25*%
%IPPOS*%
%LPD*%
%AMOC8*
5,1,8,0,0,1.08239X$1,22.5*
%
%ADD10R,0.02362X0.00886*%
%ADD11R,0.03937X0.04331*%
%ADD12R,0.04331X0.03937*%
%ADD13C,0.06000*%
%ADD14C,0.00800*%
D10*
X0022676Y0042350D03*
X0022676Y0043925D03*
X0022676Y0045500D03*
X0022676Y0047075D03*
X0022676Y0048650D03*
X0029763Y0048650D03*
X0029763Y0047075D03*
X0029763Y0045500D03*
X0029763Y0043925D03*
X0029763Y0042350D03*
D11*
X0029566Y0055500D03*
X0022873Y0055500D03*
X0014220Y0048846D03*
X0014220Y0042154D03*
X0012566Y0056500D03*
X0006220Y0048846D03*
X0006220Y0042154D03*
X0005873Y0056500D03*
X0037220Y0048846D03*
X0037220Y0042154D03*
D12*
X0029566Y0034500D03*
X0022873Y0034500D03*
D13*
X0021220Y0026500D02*
X0021220Y0020500D01*
X0011220Y0020500D02*
X0011220Y0026500D01*
X0011220Y0070500D02*
X0011220Y0076500D01*
X0021220Y0076500D02*
X0021220Y0070500D01*
X0031220Y0070500D02*
X0031220Y0076500D01*
X0031220Y0026500D02*
X0031220Y0020500D01*
D14*
X0009420Y0016300D02*
X0005220Y0020500D01*
X0005220Y0041154D01*
X0006220Y0042154D01*
X0006820Y0042200D01*
X0013820Y0042200D01*
X0014220Y0042154D01*
X0014520Y0041500D01*
X0014220Y0048846D02*
X0013820Y0049200D01*
X0006820Y0049200D01*
X0006220Y0048846D01*
X0006120Y0049200D01*
X0006120Y0056746D01*
X0005873Y0056500D01*
X0005873Y0068154D01*
X0011220Y0073500D01*
X0011020Y0073500D01*
X0011220Y0073500D02*
X0012220Y0074500D01*
X0012220Y0077500D01*
X0016220Y0081500D01*
X0027120Y0081500D01*
X0027120Y0068946D01*
X0022873Y0064700D01*
X0022873Y0055500D01*
X0022676Y0055303D01*
X0022676Y0048650D01*
X0022676Y0047075D02*
X0022220Y0047100D01*
X0020820Y0047100D01*
X0019220Y0048700D01*
X0019220Y0056500D01*
X0012566Y0056500D01*
X0019220Y0056500D02*
X0019220Y0071500D01*
X0021220Y0073500D01*
X0027120Y0081500D02*
X0032220Y0081500D01*
X0037220Y0076500D01*
X0037220Y0048846D01*
X0033873Y0045500D01*
X0029763Y0045500D01*
X0029763Y0043925D02*
X0029220Y0043600D01*
X0028520Y0043600D01*
X0027120Y0045000D01*
X0027120Y0046400D01*
X0027820Y0047100D01*
X0029220Y0047100D01*
X0029763Y0047075D01*
X0029763Y0048650D02*
X0029763Y0052697D01*
X0029566Y0055500D01*
X0029566Y0071846D01*
X0031220Y0073500D01*
X0031320Y0073500D01*
X0022676Y0045500D02*
X0020220Y0045500D01*
X0019220Y0044500D01*
X0019220Y0039500D01*
X0011220Y0031500D01*
X0011220Y0023500D01*
X0009420Y0016300D02*
X0023620Y0016300D01*
X0030620Y0023300D01*
X0031220Y0023500D01*
X0030620Y0024000D01*
X0029920Y0024700D01*
X0029920Y0034500D01*
X0029566Y0034500D01*
X0029920Y0034500D02*
X0029920Y0042200D01*
X0029763Y0042350D01*
X0029920Y0042200D02*
X0029920Y0043600D01*
X0029763Y0043925D01*
X0029920Y0042200D02*
X0036920Y0042200D01*
X0037220Y0042154D01*
X0026220Y0042500D02*
X0026220Y0037846D01*
X0022873Y0034500D01*
X0019420Y0036600D02*
X0022220Y0039400D01*
X0022220Y0042200D01*
X0022676Y0042350D01*
X0022676Y0043925D02*
X0024795Y0043925D01*
X0026220Y0042500D01*
X0019420Y0036600D02*
X0019420Y0025400D01*
X0020820Y0024000D01*
X0021220Y0023500D01*
M02*
