G75*
%MOIN*%
%OFA0B0*%
%FSLAX25Y25*%
%IPPOS*%
%LPD*%
%AMOC8*
5,1,8,0,0,1.08239X$1,22.5*
%
%ADD10C,0.00300*%
%ADD11C,0.01500*%
%ADD12C,0.00400*%
%ADD13C,0.01000*%
D10*
X0009370Y0002645D02*
X0009370Y0003880D01*
X0009370Y0003262D02*
X0013073Y0003262D01*
X0013073Y0002645D02*
X0013073Y0003880D01*
X0013073Y0005101D02*
X0009370Y0007569D01*
X0013073Y0007569D01*
X0013073Y0008784D02*
X0013073Y0011252D01*
X0013073Y0010018D02*
X0009370Y0010018D01*
X0009370Y0012467D02*
X0009370Y0014936D01*
X0009370Y0013701D02*
X0013073Y0013701D01*
X0011839Y0012467D01*
X0013073Y0005101D02*
X0009370Y0005101D01*
X0019370Y0005101D02*
X0023073Y0005101D01*
X0019370Y0007569D01*
X0023073Y0007569D01*
X0023073Y0008784D02*
X0023073Y0011252D01*
X0023073Y0010018D02*
X0019370Y0010018D01*
X0019370Y0012467D02*
X0021839Y0014936D01*
X0022456Y0014936D01*
X0023073Y0014318D01*
X0023073Y0013084D01*
X0022456Y0012467D01*
X0019370Y0012467D02*
X0019370Y0014936D01*
X0019370Y0003880D02*
X0019370Y0002645D01*
X0019370Y0003262D02*
X0023073Y0003262D01*
X0023073Y0002645D02*
X0023073Y0003880D01*
X0029370Y0005718D02*
X0029370Y0006952D01*
X0029987Y0007569D01*
X0031221Y0007569D01*
X0031221Y0006335D01*
X0032456Y0005101D02*
X0029987Y0005101D01*
X0029370Y0005718D01*
X0029370Y0008784D02*
X0033073Y0008784D01*
X0029370Y0011252D01*
X0033073Y0011252D01*
X0033073Y0012467D02*
X0033073Y0014318D01*
X0032456Y0014936D01*
X0029987Y0014936D01*
X0029370Y0014318D01*
X0029370Y0012467D01*
X0033073Y0012467D01*
X0032456Y0007569D02*
X0033073Y0006952D01*
X0033073Y0005718D01*
X0032456Y0005101D01*
X0032456Y0082650D02*
X0031839Y0082650D01*
X0031221Y0083267D01*
X0031221Y0084502D01*
X0030604Y0085119D01*
X0029987Y0085119D01*
X0029370Y0084502D01*
X0029370Y0083267D01*
X0029987Y0082650D01*
X0029370Y0086333D02*
X0029370Y0088185D01*
X0029987Y0088802D01*
X0032456Y0088802D01*
X0033073Y0088185D01*
X0033073Y0086333D01*
X0029370Y0086333D01*
X0029370Y0090016D02*
X0031839Y0090016D01*
X0033073Y0091251D01*
X0031839Y0092485D01*
X0029370Y0092485D01*
X0031221Y0092485D02*
X0031221Y0090016D01*
X0032456Y0085119D02*
X0033073Y0084502D01*
X0033073Y0083267D01*
X0032456Y0082650D01*
X0023073Y0083267D02*
X0022456Y0082650D01*
X0021839Y0082650D01*
X0021221Y0083267D01*
X0021221Y0084502D01*
X0020604Y0085119D01*
X0019987Y0085119D01*
X0019370Y0084502D01*
X0019370Y0083267D01*
X0019987Y0082650D01*
X0019987Y0086333D02*
X0019370Y0086950D01*
X0019370Y0088185D01*
X0019987Y0088802D01*
X0019370Y0090016D02*
X0019370Y0092485D01*
X0019370Y0090016D02*
X0023073Y0090016D01*
X0022456Y0088802D02*
X0023073Y0088185D01*
X0023073Y0086950D01*
X0022456Y0086333D01*
X0019987Y0086333D01*
X0022456Y0085119D02*
X0023073Y0084502D01*
X0023073Y0083267D01*
X0013073Y0082650D02*
X0010604Y0082650D01*
X0009370Y0083884D01*
X0010604Y0085119D01*
X0013073Y0085119D01*
X0012456Y0086333D02*
X0009987Y0086333D01*
X0009370Y0086950D01*
X0009370Y0088185D01*
X0009987Y0088802D01*
X0009987Y0090016D02*
X0009370Y0090633D01*
X0009370Y0091868D01*
X0009987Y0092485D01*
X0009987Y0090016D02*
X0012456Y0090016D01*
X0013073Y0090633D01*
X0013073Y0091868D01*
X0012456Y0092485D01*
X0012456Y0088802D02*
X0013073Y0088185D01*
X0013073Y0086950D01*
X0012456Y0086333D01*
D11*
X0028220Y0061000D02*
X0025220Y0054500D01*
X0031220Y0054500D02*
X0028220Y0061000D01*
X0028220Y0043500D01*
X0024220Y0039500D02*
X0024222Y0039626D01*
X0024228Y0039752D01*
X0024238Y0039878D01*
X0024252Y0040004D01*
X0024270Y0040129D01*
X0024292Y0040253D01*
X0024317Y0040377D01*
X0024347Y0040500D01*
X0024380Y0040621D01*
X0024418Y0040742D01*
X0024459Y0040861D01*
X0024504Y0040980D01*
X0024552Y0041096D01*
X0024604Y0041211D01*
X0024660Y0041324D01*
X0024720Y0041436D01*
X0024783Y0041545D01*
X0024849Y0041653D01*
X0024918Y0041758D01*
X0024991Y0041861D01*
X0025068Y0041962D01*
X0025147Y0042060D01*
X0025229Y0042156D01*
X0025315Y0042249D01*
X0025403Y0042340D01*
X0025494Y0042427D01*
X0025588Y0042512D01*
X0025684Y0042593D01*
X0025783Y0042672D01*
X0025884Y0042747D01*
X0025988Y0042819D01*
X0026094Y0042888D01*
X0026202Y0042954D01*
X0026312Y0043016D01*
X0026424Y0043074D01*
X0026537Y0043129D01*
X0026653Y0043180D01*
X0026770Y0043228D01*
X0026888Y0043272D01*
X0027008Y0043312D01*
X0027129Y0043348D01*
X0027251Y0043381D01*
X0027374Y0043410D01*
X0027498Y0043434D01*
X0027622Y0043455D01*
X0027747Y0043472D01*
X0027873Y0043485D01*
X0027999Y0043494D01*
X0028125Y0043499D01*
X0028252Y0043500D01*
X0028378Y0043497D01*
X0028504Y0043490D01*
X0028630Y0043479D01*
X0028755Y0043464D01*
X0028880Y0043445D01*
X0029004Y0043422D01*
X0029128Y0043396D01*
X0029250Y0043365D01*
X0029372Y0043331D01*
X0029492Y0043292D01*
X0029611Y0043250D01*
X0029729Y0043205D01*
X0029845Y0043155D01*
X0029960Y0043102D01*
X0030072Y0043045D01*
X0030183Y0042985D01*
X0030292Y0042921D01*
X0030399Y0042854D01*
X0030504Y0042784D01*
X0030607Y0042710D01*
X0030707Y0042633D01*
X0030805Y0042553D01*
X0030900Y0042470D01*
X0030992Y0042384D01*
X0031082Y0042295D01*
X0031169Y0042203D01*
X0031252Y0042109D01*
X0031333Y0042012D01*
X0031411Y0041912D01*
X0031486Y0041810D01*
X0031557Y0041706D01*
X0031625Y0041599D01*
X0031689Y0041491D01*
X0031750Y0041380D01*
X0031808Y0041268D01*
X0031862Y0041154D01*
X0031912Y0041038D01*
X0031959Y0040921D01*
X0032002Y0040802D01*
X0032041Y0040682D01*
X0032077Y0040561D01*
X0032108Y0040438D01*
X0032136Y0040315D01*
X0032160Y0040191D01*
X0032180Y0040066D01*
X0032196Y0039941D01*
X0032208Y0039815D01*
X0032216Y0039689D01*
X0032220Y0039563D01*
X0032220Y0039437D01*
X0032216Y0039311D01*
X0032208Y0039185D01*
X0032196Y0039059D01*
X0032180Y0038934D01*
X0032160Y0038809D01*
X0032136Y0038685D01*
X0032108Y0038562D01*
X0032077Y0038439D01*
X0032041Y0038318D01*
X0032002Y0038198D01*
X0031959Y0038079D01*
X0031912Y0037962D01*
X0031862Y0037846D01*
X0031808Y0037732D01*
X0031750Y0037620D01*
X0031689Y0037509D01*
X0031625Y0037401D01*
X0031557Y0037294D01*
X0031486Y0037190D01*
X0031411Y0037088D01*
X0031333Y0036988D01*
X0031252Y0036891D01*
X0031169Y0036797D01*
X0031082Y0036705D01*
X0030992Y0036616D01*
X0030900Y0036530D01*
X0030805Y0036447D01*
X0030707Y0036367D01*
X0030607Y0036290D01*
X0030504Y0036216D01*
X0030399Y0036146D01*
X0030292Y0036079D01*
X0030183Y0036015D01*
X0030072Y0035955D01*
X0029960Y0035898D01*
X0029845Y0035845D01*
X0029729Y0035795D01*
X0029611Y0035750D01*
X0029492Y0035708D01*
X0029372Y0035669D01*
X0029250Y0035635D01*
X0029128Y0035604D01*
X0029004Y0035578D01*
X0028880Y0035555D01*
X0028755Y0035536D01*
X0028630Y0035521D01*
X0028504Y0035510D01*
X0028378Y0035503D01*
X0028252Y0035500D01*
X0028125Y0035501D01*
X0027999Y0035506D01*
X0027873Y0035515D01*
X0027747Y0035528D01*
X0027622Y0035545D01*
X0027498Y0035566D01*
X0027374Y0035590D01*
X0027251Y0035619D01*
X0027129Y0035652D01*
X0027008Y0035688D01*
X0026888Y0035728D01*
X0026770Y0035772D01*
X0026653Y0035820D01*
X0026537Y0035871D01*
X0026424Y0035926D01*
X0026312Y0035984D01*
X0026202Y0036046D01*
X0026094Y0036112D01*
X0025988Y0036181D01*
X0025884Y0036253D01*
X0025783Y0036328D01*
X0025684Y0036407D01*
X0025588Y0036488D01*
X0025494Y0036573D01*
X0025403Y0036660D01*
X0025315Y0036751D01*
X0025229Y0036844D01*
X0025147Y0036940D01*
X0025068Y0037038D01*
X0024991Y0037139D01*
X0024918Y0037242D01*
X0024849Y0037347D01*
X0024783Y0037455D01*
X0024720Y0037564D01*
X0024660Y0037676D01*
X0024604Y0037789D01*
X0024552Y0037904D01*
X0024504Y0038020D01*
X0024459Y0038139D01*
X0024418Y0038258D01*
X0024380Y0038379D01*
X0024347Y0038500D01*
X0024317Y0038623D01*
X0024292Y0038747D01*
X0024270Y0038871D01*
X0024252Y0038996D01*
X0024238Y0039122D01*
X0024228Y0039248D01*
X0024222Y0039374D01*
X0024220Y0039500D01*
X0006720Y0039500D01*
X0013220Y0042500D01*
X0013220Y0036500D02*
X0006720Y0039500D01*
D12*
X0005554Y0042700D02*
X0008624Y0047304D01*
X0005554Y0047304D02*
X0008624Y0042700D01*
X0024089Y0061502D02*
X0022554Y0063037D01*
X0022554Y0063804D01*
X0024089Y0061502D02*
X0024089Y0059200D01*
X0024089Y0061502D02*
X0025624Y0063037D01*
X0025624Y0063804D01*
X0035554Y0039804D02*
X0035554Y0039037D01*
X0038624Y0035967D01*
X0038624Y0035200D01*
X0035554Y0035200D01*
X0035554Y0039804D02*
X0038624Y0039804D01*
D13*
X0027720Y0039500D02*
X0027722Y0039544D01*
X0027728Y0039588D01*
X0027738Y0039631D01*
X0027751Y0039673D01*
X0027768Y0039714D01*
X0027789Y0039753D01*
X0027813Y0039790D01*
X0027840Y0039825D01*
X0027870Y0039857D01*
X0027903Y0039887D01*
X0027939Y0039913D01*
X0027976Y0039937D01*
X0028016Y0039956D01*
X0028057Y0039973D01*
X0028100Y0039985D01*
X0028143Y0039994D01*
X0028187Y0039999D01*
X0028231Y0040000D01*
X0028275Y0039997D01*
X0028319Y0039990D01*
X0028362Y0039979D01*
X0028404Y0039965D01*
X0028444Y0039947D01*
X0028483Y0039925D01*
X0028519Y0039901D01*
X0028553Y0039873D01*
X0028585Y0039842D01*
X0028614Y0039808D01*
X0028640Y0039772D01*
X0028662Y0039734D01*
X0028681Y0039694D01*
X0028696Y0039652D01*
X0028708Y0039610D01*
X0028716Y0039566D01*
X0028720Y0039522D01*
X0028720Y0039478D01*
X0028716Y0039434D01*
X0028708Y0039390D01*
X0028696Y0039348D01*
X0028681Y0039306D01*
X0028662Y0039266D01*
X0028640Y0039228D01*
X0028614Y0039192D01*
X0028585Y0039158D01*
X0028553Y0039127D01*
X0028519Y0039099D01*
X0028483Y0039075D01*
X0028444Y0039053D01*
X0028404Y0039035D01*
X0028362Y0039021D01*
X0028319Y0039010D01*
X0028275Y0039003D01*
X0028231Y0039000D01*
X0028187Y0039001D01*
X0028143Y0039006D01*
X0028100Y0039015D01*
X0028057Y0039027D01*
X0028016Y0039044D01*
X0027976Y0039063D01*
X0027939Y0039087D01*
X0027903Y0039113D01*
X0027870Y0039143D01*
X0027840Y0039175D01*
X0027813Y0039210D01*
X0027789Y0039247D01*
X0027768Y0039286D01*
X0027751Y0039327D01*
X0027738Y0039369D01*
X0027728Y0039412D01*
X0027722Y0039456D01*
X0027720Y0039500D01*
M02*
