G75*
%MOIN*%
%OFA0B0*%
%FSLAX25Y25*%
%IPPOS*%
%LPD*%
%AMOC8*
5,1,8,0,0,1.08239X$1,22.5*
%
%ADD10C,0.00200*%
%ADD11C,0.00300*%
%ADD12C,0.00500*%
D10*
X0003808Y0009098D02*
X0003808Y0011700D01*
X0004675Y0009965D02*
X0003808Y0009098D01*
X0004675Y0009965D02*
X0005543Y0009098D01*
X0005543Y0011700D01*
X0006386Y0011700D02*
X0008121Y0011700D01*
X0008121Y0009098D01*
X0006386Y0009098D01*
X0007254Y0010399D02*
X0008121Y0010399D01*
X0008964Y0009098D02*
X0010699Y0009098D01*
X0009832Y0009098D02*
X0009832Y0011700D01*
X0011543Y0011266D02*
X0011976Y0011700D01*
X0012844Y0011700D01*
X0013277Y0011266D01*
X0012844Y0010399D02*
X0011976Y0010399D01*
X0011543Y0010833D01*
X0011543Y0011266D01*
X0011543Y0009531D02*
X0011976Y0009098D01*
X0012844Y0009098D01*
X0013277Y0009531D01*
X0013277Y0009965D01*
X0012844Y0010399D01*
X0016707Y0009965D02*
X0017574Y0009965D01*
X0017141Y0009531D02*
X0017141Y0011266D01*
X0016707Y0011700D01*
X0018418Y0010833D02*
X0018418Y0010399D01*
X0018852Y0009965D01*
X0019719Y0009965D01*
X0020153Y0010399D01*
X0020153Y0011266D01*
X0019719Y0011700D01*
X0018852Y0011700D01*
X0018418Y0010833D02*
X0020153Y0010833D01*
X0020996Y0010833D02*
X0020996Y0011266D01*
X0021430Y0011700D01*
X0022297Y0011700D01*
X0022731Y0011266D01*
X0022297Y0010399D02*
X0021430Y0010399D01*
X0020996Y0010833D01*
X0020996Y0009531D02*
X0021430Y0009098D01*
X0022297Y0009098D01*
X0022731Y0009531D01*
X0022731Y0009965D01*
X0022297Y0010399D01*
X0022715Y0007500D02*
X0024450Y0007500D01*
X0023582Y0007500D02*
X0023582Y0004898D01*
X0024450Y0005765D01*
X0025293Y0005331D02*
X0025293Y0007066D01*
X0025727Y0007500D01*
X0026594Y0007500D01*
X0027028Y0007066D01*
X0025293Y0005331D01*
X0025727Y0004898D01*
X0026594Y0004898D01*
X0027028Y0005331D01*
X0027028Y0007066D01*
X0027871Y0007500D02*
X0029606Y0007500D01*
X0027871Y0005765D01*
X0027871Y0005331D01*
X0028305Y0004898D01*
X0029172Y0004898D01*
X0029606Y0005331D01*
X0028731Y0009098D02*
X0028731Y0011700D01*
X0030032Y0011700D01*
X0030465Y0011266D01*
X0030465Y0010399D01*
X0030032Y0009965D01*
X0028731Y0009965D01*
X0027887Y0009965D02*
X0027887Y0011266D01*
X0027454Y0011700D01*
X0026152Y0011700D01*
X0026152Y0012134D02*
X0026586Y0012567D01*
X0027020Y0012567D01*
X0026152Y0012134D02*
X0026152Y0009965D01*
X0021871Y0007066D02*
X0021871Y0006199D01*
X0020570Y0006199D01*
X0020137Y0006633D01*
X0020137Y0007066D01*
X0020570Y0007500D01*
X0021438Y0007500D01*
X0021871Y0007066D01*
X0021871Y0006199D02*
X0021004Y0005331D01*
X0020137Y0004898D01*
X0031309Y0010399D02*
X0031309Y0011700D01*
X0032610Y0011700D01*
X0033044Y0011266D01*
X0032610Y0010833D01*
X0031309Y0010833D01*
X0031309Y0010399D02*
X0031742Y0009965D01*
X0032610Y0009965D01*
X0033887Y0010399D02*
X0033887Y0010833D01*
X0035622Y0010833D01*
X0035622Y0011266D02*
X0035622Y0010399D01*
X0035188Y0009965D01*
X0034321Y0009965D01*
X0033887Y0010399D01*
X0034321Y0011700D02*
X0035188Y0011700D01*
X0035622Y0011266D01*
X0036465Y0011700D02*
X0037333Y0010833D01*
X0036899Y0010833D02*
X0038200Y0010833D01*
X0038200Y0011700D02*
X0038200Y0009098D01*
X0036899Y0009098D01*
X0036465Y0009531D01*
X0036465Y0010399D01*
X0036899Y0010833D01*
X0037333Y0007500D02*
X0038200Y0006633D01*
X0038200Y0005765D01*
X0037333Y0004898D01*
X0036048Y0005765D02*
X0036481Y0006199D01*
X0036481Y0007066D01*
X0036048Y0007500D01*
X0034746Y0007500D01*
X0033903Y0007500D02*
X0033036Y0006633D01*
X0033036Y0005765D01*
X0033903Y0004898D01*
X0034746Y0005765D02*
X0036048Y0005765D01*
D11*
X0034850Y0061448D02*
X0033399Y0061448D01*
X0032915Y0061931D01*
X0032915Y0062899D01*
X0033399Y0063383D01*
X0034850Y0063383D01*
X0034850Y0064350D02*
X0034850Y0061448D01*
X0033883Y0063383D02*
X0032915Y0064350D01*
X0031903Y0063866D02*
X0031903Y0062899D01*
X0031420Y0062415D01*
X0030452Y0062415D01*
X0029969Y0062899D01*
X0029969Y0063383D01*
X0031903Y0063383D01*
X0031903Y0063866D02*
X0031420Y0064350D01*
X0030452Y0064350D01*
X0028957Y0062415D02*
X0027989Y0064350D01*
X0027022Y0062415D01*
X0026010Y0062899D02*
X0024075Y0062899D01*
X0023064Y0063866D02*
X0023064Y0061931D01*
X0022580Y0061448D01*
X0021613Y0061448D01*
X0021129Y0061931D01*
X0023064Y0063866D01*
X0022580Y0064350D01*
X0021613Y0064350D01*
X0021129Y0063866D01*
X0021129Y0061931D01*
X0020117Y0062415D02*
X0019150Y0061448D01*
X0019150Y0064350D01*
X0020117Y0064350D02*
X0018182Y0064350D01*
X0017171Y0063866D02*
X0016687Y0063383D01*
X0015236Y0063383D01*
X0015236Y0062899D02*
X0015236Y0064350D01*
X0016687Y0064350D01*
X0017171Y0063866D01*
X0016687Y0062415D02*
X0015720Y0062415D01*
X0015236Y0062899D01*
D12*
X0017100Y0059500D02*
X0017100Y0053500D01*
X0004100Y0053500D01*
X0004100Y0059500D01*
X0017100Y0059500D01*
X0019500Y0058500D02*
X0019500Y0052500D01*
X0032500Y0052500D01*
X0032500Y0058500D01*
X0019500Y0058500D01*
X0018000Y0052000D02*
X0012000Y0052000D01*
X0012000Y0039000D01*
X0018000Y0039000D01*
X0018000Y0052000D01*
X0020000Y0048500D02*
X0022000Y0050339D01*
X0031970Y0050339D01*
X0031970Y0040661D01*
X0020030Y0040661D01*
X0020000Y0048500D01*
X0019500Y0037500D02*
X0019500Y0031500D01*
X0032500Y0031500D01*
X0032500Y0037500D01*
X0019500Y0037500D01*
X0010000Y0039000D02*
X0004000Y0039000D01*
X0004000Y0052000D01*
X0010000Y0052000D01*
X0010000Y0039000D01*
X0009600Y0081300D02*
X0003600Y0081300D01*
X0003600Y0094300D01*
X0009600Y0094300D01*
X0009600Y0081300D01*
X0034000Y0052000D02*
X0034000Y0039000D01*
X0040000Y0039000D01*
X0040000Y0052000D01*
X0034000Y0052000D01*
M02*
