G75*
%MOIN*%
%OFA0B0*%
%FSLAX25Y25*%
%IPPOS*%
%LPD*%
%AMOC8*
5,1,8,0,0,1.08239X$1,22.5*
%
%ADD10R,0.02362X0.00886*%
%ADD11R,0.03937X0.04331*%
%ADD12R,0.04331X0.03937*%
%ADD13C,0.06000*%
%ADD14R,0.05512X0.03937*%
%ADD15C,0.00800*%
D10*
X0022457Y0042350D03*
X0022457Y0043925D03*
X0022457Y0045500D03*
X0022457Y0047075D03*
X0022457Y0048650D03*
X0029543Y0048650D03*
X0029543Y0047075D03*
X0029543Y0045500D03*
X0029543Y0043925D03*
X0029543Y0042350D03*
D11*
X0029346Y0055500D03*
X0022654Y0055500D03*
X0015000Y0048846D03*
X0015000Y0042154D03*
X0013946Y0056500D03*
X0007254Y0056500D03*
X0007000Y0048846D03*
X0007000Y0042154D03*
X0037000Y0042154D03*
X0037000Y0048846D03*
D12*
X0029346Y0034500D03*
X0022654Y0034500D03*
X0006600Y0084454D03*
X0006600Y0091146D03*
D13*
X0011000Y0076500D02*
X0011000Y0070500D01*
X0021000Y0070500D02*
X0021000Y0076500D01*
X0031000Y0076500D02*
X0031000Y0070500D01*
X0031000Y0026500D02*
X0031000Y0020500D01*
X0021000Y0020500D02*
X0021000Y0026500D01*
X0011000Y0026500D02*
X0011000Y0020500D01*
D14*
X0021069Y0084260D03*
X0021069Y0091740D03*
X0029731Y0088000D03*
D15*
X0003300Y0020800D02*
X0007800Y0016300D01*
X0023400Y0016300D01*
X0030400Y0023300D01*
X0031000Y0023500D01*
X0030400Y0024000D01*
X0029700Y0024700D01*
X0029700Y0034500D01*
X0029346Y0034500D01*
X0029700Y0034500D02*
X0029700Y0042200D01*
X0029543Y0042350D01*
X0029700Y0042200D02*
X0036700Y0042200D01*
X0037000Y0042154D01*
X0033654Y0045500D02*
X0037000Y0048846D01*
X0037000Y0080731D01*
X0029731Y0088000D01*
X0029700Y0088400D01*
X0029600Y0088300D01*
X0029600Y0082800D01*
X0027700Y0080900D01*
X0019200Y0080900D01*
X0016100Y0077800D01*
X0016100Y0068200D01*
X0005900Y0058000D01*
X0005900Y0056746D01*
X0007254Y0056500D01*
X0006500Y0056346D01*
X0007000Y0048846D01*
X0005900Y0049200D01*
X0005900Y0048500D01*
X0005700Y0048800D01*
X0005654Y0048846D01*
X0006600Y0049200D02*
X0007000Y0048846D01*
X0006600Y0049200D02*
X0013600Y0049200D01*
X0015000Y0048846D01*
X0015000Y0042154D02*
X0013600Y0042200D01*
X0006600Y0042200D01*
X0007000Y0042154D01*
X0003300Y0037554D01*
X0003300Y0020800D01*
X0003300Y0037554D02*
X0003300Y0079800D01*
X0005997Y0083428D01*
X0005900Y0083500D01*
X0006600Y0084200D01*
X0006600Y0084454D01*
X0006200Y0083700D02*
X0005997Y0083428D01*
X0006200Y0091000D02*
X0006500Y0091300D01*
X0006600Y0091200D01*
X0006600Y0091146D01*
X0006500Y0091300D02*
X0006940Y0091740D01*
X0021069Y0091740D01*
X0021069Y0084260D02*
X0017160Y0084260D01*
X0010800Y0077900D01*
X0010800Y0073700D01*
X0011000Y0073500D01*
X0013946Y0056500D02*
X0019000Y0056500D01*
X0019000Y0071500D01*
X0021000Y0073500D01*
X0026200Y0079400D02*
X0027700Y0080900D01*
X0026200Y0079400D02*
X0026200Y0059046D01*
X0022654Y0055500D01*
X0022600Y0055446D01*
X0022600Y0050700D01*
X0022600Y0048800D01*
X0022600Y0048650D01*
X0022457Y0048650D01*
X0022457Y0047075D02*
X0022000Y0047100D01*
X0020600Y0047100D01*
X0019000Y0048700D01*
X0019000Y0056500D01*
X0020000Y0045500D02*
X0019000Y0044500D01*
X0019000Y0039500D01*
X0011000Y0031500D01*
X0011000Y0023500D01*
X0014300Y0041500D02*
X0015000Y0042154D01*
X0019200Y0036600D02*
X0019200Y0025400D01*
X0020600Y0024000D01*
X0021000Y0023500D01*
X0022654Y0034500D02*
X0026000Y0037846D01*
X0026000Y0042500D01*
X0024575Y0043925D01*
X0022457Y0043925D01*
X0022457Y0045500D02*
X0020000Y0045500D01*
X0022000Y0042200D02*
X0022457Y0042350D01*
X0022000Y0042200D02*
X0022000Y0039400D01*
X0019200Y0036600D01*
X0026900Y0045000D02*
X0028300Y0043600D01*
X0029000Y0043600D01*
X0029543Y0043925D01*
X0029700Y0043600D01*
X0029700Y0042200D01*
X0029543Y0045500D02*
X0033654Y0045500D01*
X0029543Y0047075D02*
X0029000Y0047100D01*
X0027600Y0047100D01*
X0026900Y0046400D01*
X0026900Y0045000D01*
X0029543Y0048650D02*
X0029543Y0052697D01*
X0029346Y0055500D01*
X0029346Y0071846D01*
X0031000Y0073500D01*
X0031100Y0073500D01*
X0029700Y0088400D02*
X0029900Y0088600D01*
M02*
