G75*
%MOIN*%
%OFA0B0*%
%FSLAX25Y25*%
%IPPOS*%
%LPD*%
%AMOC8*
5,1,8,0,0,1.08239X$1,22.5*
%
%ADD10C,0.00300*%
%ADD11C,0.00100*%
%ADD12C,0.01400*%
%ADD13C,0.00500*%
D10*
X0017391Y0061448D02*
X0017391Y0064350D01*
X0015939Y0064350D01*
X0015456Y0063866D01*
X0015456Y0062899D01*
X0015939Y0062415D01*
X0017391Y0062415D01*
X0018402Y0061931D02*
X0020337Y0063866D01*
X0019853Y0064350D01*
X0018886Y0064350D01*
X0018402Y0063866D01*
X0018402Y0061931D01*
X0018886Y0061448D01*
X0019853Y0061448D01*
X0020337Y0061931D01*
X0020337Y0063866D01*
X0021349Y0063866D02*
X0021349Y0061931D01*
X0023284Y0063866D01*
X0022800Y0064350D01*
X0021832Y0064350D01*
X0021349Y0063866D01*
X0021349Y0061931D02*
X0021832Y0061448D01*
X0022800Y0061448D01*
X0023284Y0061931D01*
X0023284Y0063866D01*
X0024295Y0062899D02*
X0026230Y0062899D01*
X0027242Y0062415D02*
X0028209Y0064350D01*
X0029177Y0062415D01*
X0030188Y0062899D02*
X0030188Y0063383D01*
X0032123Y0063383D01*
X0032123Y0063866D02*
X0032123Y0062899D01*
X0031640Y0062415D01*
X0030672Y0062415D01*
X0030188Y0062899D01*
X0030672Y0064350D02*
X0031640Y0064350D01*
X0032123Y0063866D01*
X0033135Y0064350D02*
X0034102Y0063383D01*
X0033619Y0063383D02*
X0035070Y0063383D01*
X0035070Y0064350D02*
X0035070Y0061448D01*
X0033619Y0061448D01*
X0033135Y0061931D01*
X0033135Y0062899D01*
X0033619Y0063383D01*
X0034659Y0083148D02*
X0033691Y0084115D01*
X0033691Y0085083D01*
X0034659Y0086050D01*
X0035670Y0086050D02*
X0037122Y0086050D01*
X0037605Y0085566D01*
X0037605Y0084599D01*
X0037122Y0084115D01*
X0035670Y0084115D01*
X0038119Y0087948D02*
X0037635Y0088431D01*
X0037635Y0089399D01*
X0038119Y0089883D01*
X0039570Y0089883D01*
X0039570Y0090850D02*
X0039570Y0087948D01*
X0038119Y0087948D01*
X0038602Y0086050D02*
X0039570Y0085083D01*
X0039570Y0084115D01*
X0038602Y0083148D01*
X0036140Y0088915D02*
X0035172Y0088915D01*
X0034688Y0089399D01*
X0034688Y0090850D01*
X0036140Y0090850D01*
X0036623Y0090366D01*
X0036140Y0089883D01*
X0034688Y0089883D01*
X0033677Y0089399D02*
X0033193Y0088915D01*
X0031742Y0088915D01*
X0032226Y0089883D02*
X0033193Y0089883D01*
X0033677Y0089399D01*
X0033677Y0090850D02*
X0032226Y0090850D01*
X0031742Y0090366D01*
X0032226Y0089883D01*
X0030730Y0090850D02*
X0029279Y0090850D01*
X0028795Y0090366D01*
X0028795Y0089399D01*
X0029279Y0088915D01*
X0030730Y0088915D01*
X0030730Y0091817D01*
X0027784Y0090850D02*
X0027784Y0087948D01*
X0027784Y0088915D02*
X0026332Y0088915D01*
X0025849Y0089399D01*
X0025849Y0090366D01*
X0026332Y0090850D01*
X0027784Y0090850D01*
X0027813Y0086050D02*
X0029748Y0086050D01*
X0027813Y0084115D01*
X0027813Y0083631D01*
X0028297Y0083148D01*
X0029264Y0083148D01*
X0029748Y0083631D01*
X0026802Y0083631D02*
X0026318Y0083148D01*
X0025350Y0083148D01*
X0024867Y0083631D01*
X0026802Y0085566D01*
X0026318Y0086050D01*
X0025350Y0086050D01*
X0024867Y0085566D01*
X0024867Y0083631D01*
X0023855Y0084115D02*
X0022888Y0083148D01*
X0022888Y0086050D01*
X0023855Y0086050D02*
X0021920Y0086050D01*
X0020908Y0085566D02*
X0020425Y0086050D01*
X0019457Y0086050D01*
X0018974Y0085566D01*
X0018974Y0084599D01*
X0019457Y0084115D01*
X0019941Y0084115D01*
X0020908Y0084599D01*
X0020908Y0083148D01*
X0018974Y0083148D01*
X0019435Y0088915D02*
X0019435Y0090850D01*
X0019435Y0089883D02*
X0018468Y0088915D01*
X0017984Y0088915D01*
X0016980Y0088915D02*
X0016980Y0090366D01*
X0016496Y0090850D01*
X0015045Y0090850D01*
X0015045Y0091334D02*
X0015529Y0091817D01*
X0016012Y0091817D01*
X0015045Y0091334D02*
X0015045Y0088915D01*
X0014033Y0088915D02*
X0013550Y0089399D01*
X0012582Y0089399D01*
X0012098Y0089883D01*
X0012098Y0090366D01*
X0012582Y0090850D01*
X0013550Y0090850D01*
X0014033Y0090366D01*
X0014033Y0088915D02*
X0014033Y0088431D01*
X0013550Y0087948D01*
X0012582Y0087948D01*
X0012098Y0088431D01*
X0011087Y0087948D02*
X0009152Y0087948D01*
X0010119Y0087948D02*
X0010119Y0090850D01*
X0008140Y0090850D02*
X0008140Y0087948D01*
X0006205Y0087948D01*
X0005194Y0087948D02*
X0004226Y0088915D01*
X0003259Y0087948D01*
X0003259Y0090850D01*
X0005194Y0090850D02*
X0005194Y0087948D01*
X0006205Y0090850D02*
X0008140Y0090850D01*
X0008140Y0089399D02*
X0007173Y0089399D01*
X0020439Y0088915D02*
X0020923Y0088915D01*
X0021891Y0089883D01*
X0021891Y0090850D02*
X0021891Y0088915D01*
X0022902Y0089399D02*
X0022902Y0089883D01*
X0024837Y0089883D01*
X0024837Y0090366D02*
X0024837Y0089399D01*
X0024353Y0088915D01*
X0023386Y0088915D01*
X0022902Y0089399D01*
X0023386Y0090850D02*
X0024353Y0090850D01*
X0024837Y0090366D01*
X0026802Y0085566D02*
X0026802Y0083631D01*
X0037635Y0090850D02*
X0038602Y0089883D01*
D11*
X0029720Y0016800D02*
X0028320Y0015600D01*
X0027020Y0016800D01*
X0024320Y0014300D01*
X0025620Y0012900D01*
X0024320Y0011700D01*
X0024420Y0011600D01*
X0027020Y0008900D01*
X0028320Y0010300D01*
X0029720Y0008900D01*
X0032320Y0011500D01*
X0031020Y0013000D01*
X0032320Y0014200D01*
X0029720Y0016800D01*
X0029769Y0016751D02*
X0029662Y0016751D01*
X0029548Y0016652D02*
X0029867Y0016652D01*
X0029966Y0016554D02*
X0029433Y0016554D01*
X0029318Y0016455D02*
X0030064Y0016455D01*
X0030163Y0016357D02*
X0029203Y0016357D01*
X0029088Y0016258D02*
X0030261Y0016258D01*
X0030360Y0016160D02*
X0028973Y0016160D01*
X0028858Y0016061D02*
X0030458Y0016061D01*
X0030557Y0015963D02*
X0028743Y0015963D01*
X0028628Y0015864D02*
X0030655Y0015864D01*
X0030754Y0015766D02*
X0028513Y0015766D01*
X0028398Y0015667D02*
X0030853Y0015667D01*
X0030951Y0015569D02*
X0025690Y0015569D01*
X0025796Y0015667D02*
X0028247Y0015667D01*
X0028140Y0015766D02*
X0025903Y0015766D01*
X0026009Y0015864D02*
X0028033Y0015864D01*
X0027927Y0015963D02*
X0026116Y0015963D01*
X0026222Y0016061D02*
X0027820Y0016061D01*
X0027713Y0016160D02*
X0026328Y0016160D01*
X0026435Y0016258D02*
X0027607Y0016258D01*
X0027500Y0016357D02*
X0026541Y0016357D01*
X0026648Y0016455D02*
X0027393Y0016455D01*
X0027286Y0016554D02*
X0026754Y0016554D01*
X0026860Y0016652D02*
X0027180Y0016652D01*
X0027073Y0016751D02*
X0026967Y0016751D01*
X0025584Y0015470D02*
X0031050Y0015470D01*
X0031148Y0015372D02*
X0025477Y0015372D01*
X0025371Y0015273D02*
X0031247Y0015273D01*
X0031345Y0015175D02*
X0025264Y0015175D01*
X0025158Y0015076D02*
X0031444Y0015076D01*
X0031542Y0014978D02*
X0025052Y0014978D01*
X0024945Y0014879D02*
X0031641Y0014879D01*
X0031739Y0014781D02*
X0024839Y0014781D01*
X0024732Y0014682D02*
X0031838Y0014682D01*
X0031936Y0014584D02*
X0024626Y0014584D01*
X0024520Y0014485D02*
X0032035Y0014485D01*
X0032133Y0014387D02*
X0024413Y0014387D01*
X0024331Y0014288D02*
X0032232Y0014288D01*
X0032308Y0014190D02*
X0024422Y0014190D01*
X0024514Y0014091D02*
X0032202Y0014091D01*
X0032095Y0013993D02*
X0024605Y0013993D01*
X0024697Y0013894D02*
X0031988Y0013894D01*
X0031882Y0013796D02*
X0024788Y0013796D01*
X0024880Y0013697D02*
X0031775Y0013697D01*
X0031668Y0013599D02*
X0024971Y0013599D01*
X0025063Y0013500D02*
X0031561Y0013500D01*
X0031455Y0013401D02*
X0025154Y0013401D01*
X0025246Y0013303D02*
X0031348Y0013303D01*
X0031241Y0013204D02*
X0025337Y0013204D01*
X0025429Y0013106D02*
X0031135Y0013106D01*
X0031028Y0013007D02*
X0025520Y0013007D01*
X0025611Y0012909D02*
X0031099Y0012909D01*
X0031184Y0012810D02*
X0025523Y0012810D01*
X0025416Y0012712D02*
X0031269Y0012712D01*
X0031355Y0012613D02*
X0025309Y0012613D01*
X0025203Y0012515D02*
X0031440Y0012515D01*
X0031526Y0012416D02*
X0025096Y0012416D01*
X0024989Y0012318D02*
X0031611Y0012318D01*
X0031696Y0012219D02*
X0024882Y0012219D01*
X0024776Y0012121D02*
X0031782Y0012121D01*
X0031867Y0012022D02*
X0024669Y0012022D01*
X0024562Y0011924D02*
X0031952Y0011924D01*
X0032038Y0011825D02*
X0024456Y0011825D01*
X0024349Y0011727D02*
X0032123Y0011727D01*
X0032209Y0011628D02*
X0024391Y0011628D01*
X0024487Y0011530D02*
X0032294Y0011530D01*
X0032251Y0011431D02*
X0024582Y0011431D01*
X0024677Y0011333D02*
X0032153Y0011333D01*
X0032054Y0011234D02*
X0024772Y0011234D01*
X0024867Y0011136D02*
X0031955Y0011136D01*
X0031857Y0011037D02*
X0024962Y0011037D01*
X0025057Y0010939D02*
X0031758Y0010939D01*
X0031660Y0010840D02*
X0025151Y0010840D01*
X0025246Y0010742D02*
X0031561Y0010742D01*
X0031463Y0010643D02*
X0025341Y0010643D01*
X0025436Y0010545D02*
X0031364Y0010545D01*
X0031266Y0010446D02*
X0025531Y0010446D01*
X0025626Y0010348D02*
X0031167Y0010348D01*
X0031069Y0010249D02*
X0028371Y0010249D01*
X0028273Y0010249D02*
X0025721Y0010249D01*
X0025815Y0010151D02*
X0028181Y0010151D01*
X0028090Y0010052D02*
X0025910Y0010052D01*
X0026005Y0009954D02*
X0027998Y0009954D01*
X0027907Y0009855D02*
X0026100Y0009855D01*
X0026195Y0009757D02*
X0027815Y0009757D01*
X0027724Y0009658D02*
X0026290Y0009658D01*
X0026385Y0009560D02*
X0027632Y0009560D01*
X0027541Y0009461D02*
X0026480Y0009461D01*
X0026574Y0009363D02*
X0027449Y0009363D01*
X0027358Y0009264D02*
X0026669Y0009264D01*
X0026764Y0009166D02*
X0027266Y0009166D01*
X0027175Y0009067D02*
X0026859Y0009067D01*
X0026954Y0008968D02*
X0027083Y0008968D01*
X0028469Y0010151D02*
X0030970Y0010151D01*
X0030872Y0010052D02*
X0028568Y0010052D01*
X0028666Y0009954D02*
X0030773Y0009954D01*
X0030675Y0009855D02*
X0028765Y0009855D01*
X0028863Y0009757D02*
X0030576Y0009757D01*
X0030478Y0009658D02*
X0028962Y0009658D01*
X0029060Y0009560D02*
X0030379Y0009560D01*
X0030281Y0009461D02*
X0029159Y0009461D01*
X0029257Y0009363D02*
X0030182Y0009363D01*
X0030084Y0009264D02*
X0029356Y0009264D01*
X0029454Y0009166D02*
X0029985Y0009166D01*
X0029887Y0009067D02*
X0029553Y0009067D01*
X0029651Y0008968D02*
X0029788Y0008968D01*
X0022420Y0005000D02*
X0020020Y0005700D01*
X0019720Y0004500D01*
X0018420Y0004900D01*
X0017720Y0002500D01*
X0020220Y0001700D01*
X0020620Y0002900D01*
X0021820Y0002500D01*
X0022420Y0005000D01*
X0022403Y0004930D02*
X0019827Y0004930D01*
X0019852Y0005028D02*
X0022324Y0005028D01*
X0022379Y0004831D02*
X0019803Y0004831D01*
X0019778Y0004732D02*
X0022356Y0004732D01*
X0022332Y0004634D02*
X0019753Y0004634D01*
X0019729Y0004535D02*
X0022308Y0004535D01*
X0022285Y0004437D02*
X0018285Y0004437D01*
X0018313Y0004535D02*
X0019605Y0004535D01*
X0019284Y0004634D02*
X0018342Y0004634D01*
X0018371Y0004732D02*
X0018964Y0004732D01*
X0018644Y0004831D02*
X0018400Y0004831D01*
X0018256Y0004338D02*
X0022261Y0004338D01*
X0022237Y0004240D02*
X0018227Y0004240D01*
X0018199Y0004141D02*
X0022214Y0004141D01*
X0022190Y0004043D02*
X0018170Y0004043D01*
X0018141Y0003944D02*
X0022166Y0003944D01*
X0022143Y0003846D02*
X0018112Y0003846D01*
X0018084Y0003747D02*
X0022119Y0003747D01*
X0022095Y0003649D02*
X0018055Y0003649D01*
X0018026Y0003550D02*
X0022072Y0003550D01*
X0022048Y0003452D02*
X0017997Y0003452D01*
X0017969Y0003353D02*
X0022025Y0003353D01*
X0022001Y0003255D02*
X0017940Y0003255D01*
X0017911Y0003156D02*
X0021977Y0003156D01*
X0021954Y0003058D02*
X0017882Y0003058D01*
X0017854Y0002959D02*
X0021930Y0002959D01*
X0021906Y0002861D02*
X0020737Y0002861D01*
X0020607Y0002861D02*
X0017825Y0002861D01*
X0017796Y0002762D02*
X0020574Y0002762D01*
X0020541Y0002664D02*
X0017768Y0002664D01*
X0017739Y0002565D02*
X0020508Y0002565D01*
X0020475Y0002467D02*
X0017824Y0002467D01*
X0018132Y0002368D02*
X0020443Y0002368D01*
X0020410Y0002270D02*
X0018439Y0002270D01*
X0018747Y0002171D02*
X0020377Y0002171D01*
X0020344Y0002073D02*
X0019055Y0002073D01*
X0019363Y0001974D02*
X0020311Y0001974D01*
X0020278Y0001876D02*
X0019671Y0001876D01*
X0019979Y0001777D02*
X0020245Y0001777D01*
X0021033Y0002762D02*
X0021883Y0002762D01*
X0021859Y0002664D02*
X0021329Y0002664D01*
X0021624Y0002565D02*
X0021835Y0002565D01*
X0021986Y0005127D02*
X0019876Y0005127D01*
X0019901Y0005225D02*
X0021648Y0005225D01*
X0021310Y0005324D02*
X0019926Y0005324D01*
X0019950Y0005422D02*
X0020973Y0005422D01*
X0020635Y0005521D02*
X0019975Y0005521D01*
X0020000Y0005619D02*
X0020297Y0005619D01*
X0019334Y0009954D02*
X0018251Y0009954D01*
X0018224Y0010052D02*
X0019728Y0010052D01*
X0020122Y0010151D02*
X0018197Y0010151D01*
X0018170Y0010249D02*
X0020516Y0010249D01*
X0020720Y0010300D02*
X0018320Y0009700D01*
X0018020Y0010800D01*
X0016820Y0010500D01*
X0016720Y0010600D01*
X0016120Y0013000D01*
X0018620Y0013600D01*
X0018920Y0012400D01*
X0020120Y0012700D01*
X0020720Y0010300D01*
X0020708Y0010348D02*
X0018143Y0010348D01*
X0018116Y0010446D02*
X0020683Y0010446D01*
X0020659Y0010545D02*
X0018089Y0010545D01*
X0018063Y0010643D02*
X0020634Y0010643D01*
X0020609Y0010742D02*
X0018036Y0010742D01*
X0017787Y0010742D02*
X0016684Y0010742D01*
X0016660Y0010840D02*
X0020585Y0010840D01*
X0020560Y0010939D02*
X0016635Y0010939D01*
X0016610Y0011037D02*
X0020535Y0011037D01*
X0020511Y0011136D02*
X0016586Y0011136D01*
X0016561Y0011234D02*
X0020486Y0011234D01*
X0020462Y0011333D02*
X0016537Y0011333D01*
X0016512Y0011431D02*
X0020437Y0011431D01*
X0020412Y0011530D02*
X0016487Y0011530D01*
X0016463Y0011628D02*
X0020388Y0011628D01*
X0020363Y0011727D02*
X0016438Y0011727D01*
X0016413Y0011825D02*
X0020338Y0011825D01*
X0020314Y0011924D02*
X0016389Y0011924D01*
X0016364Y0012022D02*
X0020289Y0012022D01*
X0020265Y0012121D02*
X0016340Y0012121D01*
X0016315Y0012219D02*
X0020240Y0012219D01*
X0020215Y0012318D02*
X0016290Y0012318D01*
X0016266Y0012416D02*
X0018916Y0012416D01*
X0018985Y0012416D02*
X0020191Y0012416D01*
X0020166Y0012515D02*
X0019379Y0012515D01*
X0019773Y0012613D02*
X0020141Y0012613D01*
X0018891Y0012515D02*
X0016241Y0012515D01*
X0016216Y0012613D02*
X0018866Y0012613D01*
X0018842Y0012712D02*
X0016192Y0012712D01*
X0016167Y0012810D02*
X0018817Y0012810D01*
X0018793Y0012909D02*
X0016143Y0012909D01*
X0016151Y0013007D02*
X0018768Y0013007D01*
X0018743Y0013106D02*
X0016561Y0013106D01*
X0016972Y0013204D02*
X0018719Y0013204D01*
X0018694Y0013303D02*
X0017382Y0013303D01*
X0017793Y0013401D02*
X0018669Y0013401D01*
X0018645Y0013500D02*
X0018203Y0013500D01*
X0018614Y0013599D02*
X0018620Y0013599D01*
X0017392Y0010643D02*
X0016709Y0010643D01*
X0016775Y0010545D02*
X0016998Y0010545D01*
X0018277Y0009855D02*
X0018940Y0009855D01*
X0018546Y0009757D02*
X0018304Y0009757D01*
D12*
X0009620Y0012400D02*
X0008420Y0014000D01*
X0009620Y0012400D02*
X0011020Y0010800D01*
X0012720Y0009400D01*
X0014520Y0008300D01*
X0016520Y0007600D01*
X0018420Y0007300D01*
X0020320Y0007400D01*
X0021920Y0007900D01*
X0023320Y0008500D01*
X0023820Y0008800D01*
D13*
X0019720Y0031500D02*
X0019720Y0037500D01*
X0032720Y0037500D01*
X0032720Y0031500D01*
X0019720Y0031500D01*
X0017220Y0039000D02*
X0011220Y0039000D01*
X0011220Y0052000D01*
X0017220Y0052000D01*
X0017220Y0039000D01*
X0020249Y0040661D02*
X0020220Y0048500D01*
X0022220Y0050339D01*
X0032190Y0050339D01*
X0032190Y0040661D01*
X0020249Y0040661D01*
X0019720Y0052500D02*
X0032720Y0052500D01*
X0032720Y0058500D01*
X0019720Y0058500D01*
X0019720Y0052500D01*
X0015720Y0053500D02*
X0015720Y0059500D01*
X0002720Y0059500D01*
X0002720Y0053500D01*
X0015720Y0053500D01*
X0009220Y0052000D02*
X0009220Y0039000D01*
X0003220Y0039000D01*
X0003220Y0052000D01*
X0009220Y0052000D01*
X0034220Y0052000D02*
X0034220Y0039000D01*
X0040220Y0039000D01*
X0040220Y0052000D01*
X0034220Y0052000D01*
M02*
